M48
; DRILL file {KiCad 6.0.4} date Mon Jul  4 15:34:01 2022
; FORMAT={-:-/ absolute / inch / decimal}
; #@! TF.CreationDate,2022-07-04T15:34:01+01:00
; #@! TF.GenerationSoftware,Kicad,Pcbnew,6.0.4
; #@! TF.FileFunction,Plated,1,2,PTH
FMAT,2
INCH
; #@! TA.AperFunction,Plated,PTH,ComponentDrill
T1C0.0138
; #@! TA.AperFunction,Plated,PTH,ViaDrill
T2C0.0157
; #@! TA.AperFunction,Plated,PTH,ComponentDrill
T3C0.0276
; #@! TA.AperFunction,Plated,PTH,ComponentDrill
T4C0.0354
; #@! TA.AperFunction,Plated,PTH,ComponentDrill
T5C0.0394
; #@! TA.AperFunction,Plated,PTH,ComponentDrill
T6C0.0866
%
G90
G05
T1
X1.6309Y-0.9254
X1.6309Y-0.9756
X1.6309Y-1.0258
X1.6811Y-0.9254
X1.6811Y-0.9756
X1.6811Y-1.0258
X1.7313Y-0.9254
X1.7313Y-0.9756
X1.7313Y-1.0258
T2
X1.0177Y-0.9035
X1.0906Y-1.0425
X1.0937Y-1.2835
X1.0945Y-1.1331
X1.0945Y-1.1843
X1.0945Y-1.2315
X1.122Y-0.8024
X1.122Y-0.8929
X1.1732Y-1.0425
X1.2815Y-0.9323
X1.2972Y-0.702
X1.2992Y-0.7925
X1.3779Y-1.0167
X1.378Y-1.1331
X1.4303Y-0.9854
X1.4393Y-0.8472
X1.4803Y-0.8535
X1.5Y-1.1626
X1.5039Y-1.06
X1.5669Y-1.1567
X1.5866Y-0.9047
X1.5906Y-1.0268
X1.6142Y-1.0661
X1.7637Y-1.1685
X1.7717Y-0.9047
X1.7756Y-1.0209
X1.8209Y-1.1567
X1.8641Y-1.1098
X1.8673Y-0.8614
X1.8701Y-0.8071
X1.9291Y-1.1803
X2.0511Y-0.9343
X2.0866Y-1.1783
T3
X2.4035Y-0.8874
X2.4035Y-0.9874
T4
X2.4035Y-1.1291
X2.5035Y-1.1291
T5
X1.5004Y-0.7016
X1.5004Y-1.3063
X1.6004Y-0.7016
X1.6004Y-1.3063
X1.7004Y-0.7016
X1.7004Y-1.3063
X1.8004Y-0.7016
X1.8004Y-1.3063
X1.9004Y-0.7016
X1.9004Y-1.3063
X2.0004Y-0.7016
X2.0004Y-1.3063
X2.1004Y-0.7016
X2.1004Y-1.3063
T6
X0.8858Y-0.7283
X0.8858Y-1.2795
X2.4016Y-0.7283
X2.4016Y-1.2795
T0
M30
