%TF.GenerationSoftware,KiCad,Pcbnew,6.0.4*%
%TF.CreationDate,2022-07-04T15:33:55+01:00*%
%TF.ProjectId,bob,626f622e-6b69-4636-9164-5f7063625858,rev?*%
%TF.SameCoordinates,Original*%
%TF.FileFunction,Soldermask,Bot*%
%TF.FilePolarity,Negative*%
%FSLAX46Y46*%
G04 Gerber Fmt 4.6, Leading zero omitted, Abs format (unit mm)*
G04 Created by KiCad (PCBNEW 6.0.4) date 2022-07-04 15:33:55*
%MOMM*%
%LPD*%
G01*
G04 APERTURE LIST*
G04 Aperture macros list*
%AMRoundRect*
0 Rectangle with rounded corners*
0 $1 Rounding radius*
0 $2 $3 $4 $5 $6 $7 $8 $9 X,Y pos of 4 corners*
0 Add a 4 corners polygon primitive as box body*
4,1,4,$2,$3,$4,$5,$6,$7,$8,$9,$2,$3,0*
0 Add four circle primitives for the rounded corners*
1,1,$1+$1,$2,$3*
1,1,$1+$1,$4,$5*
1,1,$1+$1,$6,$7*
1,1,$1+$1,$8,$9*
0 Add four rect primitives between the rounded corners*
20,1,$1+$1,$2,$3,$4,$5,0*
20,1,$1+$1,$4,$5,$6,$7,0*
20,1,$1+$1,$6,$7,$8,$9,0*
20,1,$1+$1,$8,$9,$2,$3,0*%
G04 Aperture macros list end*
%ADD10C,0.575000*%
%ADD11O,1.700000X1.700000*%
%ADD12R,1.700000X1.700000*%
%ADD13RoundRect,0.101600X0.299720X-0.248920X0.299720X0.248920X-0.299720X0.248920X-0.299720X-0.248920X0*%
%ADD14RoundRect,0.101600X-0.248920X-0.299720X0.248920X-0.299720X0.248920X0.299720X-0.248920X0.299720X0*%
%ADD15RoundRect,0.140000X-0.170000X0.140000X-0.170000X-0.140000X0.170000X-0.140000X0.170000X0.140000X0*%
%ADD16C,6.500000*%
%ADD17C,2.000000*%
%ADD18RoundRect,0.425000X0.425000X-0.425000X0.425000X0.425000X-0.425000X0.425000X-0.425000X-0.425000X0*%
%ADD19C,1.700000*%
%ADD20RoundRect,0.075000X-0.075000X0.350000X-0.075000X-0.350000X0.075000X-0.350000X0.075000X0.350000X0*%
%ADD21RoundRect,0.075000X-0.350000X-0.075000X0.350000X-0.075000X0.350000X0.075000X-0.350000X0.075000X0*%
%ADD22C,1.000000*%
%ADD23C,1.800000*%
%ADD24R,1.800000X1.800000*%
%ADD25C,3.800000*%
%ADD26R,2.000000X1.500000*%
%ADD27R,2.000000X3.800000*%
%ADD28RoundRect,0.135000X-0.185000X0.135000X-0.185000X-0.135000X0.185000X-0.135000X0.185000X0.135000X0*%
%ADD29RoundRect,0.135000X-0.135000X-0.185000X0.135000X-0.185000X0.135000X0.185000X-0.135000X0.185000X0*%
%ADD30RoundRect,0.135000X0.135000X0.185000X-0.135000X0.185000X-0.135000X-0.185000X0.135000X-0.185000X0*%
%ADD31RoundRect,0.140000X-0.140000X-0.170000X0.140000X-0.170000X0.140000X0.170000X-0.140000X0.170000X0*%
%ADD32RoundRect,0.140000X0.140000X0.170000X-0.140000X0.170000X-0.140000X-0.170000X0.140000X-0.170000X0*%
G04 APERTURE END LIST*
D10*
X42986664Y-24780000D02*
G75*
G03*
X42986664Y-24780000I-287500J0D01*
G01*
%TO.C,YAR*%
G36*
X22799164Y-25585000D02*
G01*
X22604164Y-25675000D01*
X22604164Y-25545000D01*
X22799164Y-25585000D01*
G37*
G36*
X23074164Y-24765000D02*
G01*
X23039164Y-24770000D01*
X23074164Y-24735000D01*
X23074164Y-24765000D01*
G37*
G36*
X24459164Y-24004111D02*
G01*
X23059164Y-25385000D01*
X22539164Y-25280000D01*
X22769164Y-25050000D01*
X23239164Y-24990000D01*
X23289164Y-24960000D01*
X23319164Y-24900000D01*
X23319164Y-24500000D01*
X24144346Y-23683194D01*
X24149164Y-23680000D01*
X25129164Y-23001660D01*
X24459164Y-24004111D01*
G37*
G36*
X22359164Y-25790000D02*
G01*
X22109164Y-25910000D01*
X22069164Y-25980000D01*
X22079164Y-26050000D01*
X22119164Y-26100000D01*
X22169164Y-26120000D01*
X22220462Y-26120000D01*
X22389164Y-26050000D01*
X21329164Y-27107145D01*
X21413628Y-27594618D01*
X21022347Y-27974851D01*
X20899164Y-27558524D01*
X20837556Y-27501970D01*
X20770354Y-27567591D01*
X20576594Y-27369398D01*
X20638434Y-27304426D01*
X20576941Y-27241451D01*
X20153261Y-27124909D01*
X20550385Y-26733311D01*
X21039164Y-26780000D01*
X22329164Y-25490000D01*
X22359164Y-25490000D01*
X22359164Y-25790000D01*
G37*
%TD*%
D11*
%TO.C,J1*%
X38109164Y-17820000D03*
X40649164Y-17820000D03*
X43189164Y-17820000D03*
X45729164Y-17820000D03*
X48269164Y-17820000D03*
X50809164Y-17820000D03*
D12*
X53349164Y-17820000D03*
%TD*%
D13*
%TO.C,U5*%
X43251400Y-28534400D03*
X44750000Y-28534400D03*
X46248600Y-28534400D03*
X46248600Y-31430000D03*
X44750000Y-31430000D03*
X43251400Y-31430000D03*
D14*
X43251400Y-29982200D03*
%TD*%
D15*
%TO.C,C15*%
X33579164Y-28840000D03*
X33579164Y-29800000D03*
%TD*%
D16*
%TO.C,SW1*%
X56000000Y-25500000D03*
%TD*%
D17*
%TO.C,J3*%
X63590000Y-22540000D03*
X63590000Y-25080000D03*
D18*
X61050000Y-25080000D03*
D19*
X61050000Y-22540000D03*
%TD*%
D11*
%TO.C,J4*%
X53349164Y-33180000D03*
X50809164Y-33180000D03*
X48269164Y-33180000D03*
X45729164Y-33180000D03*
X43189164Y-33180000D03*
X40649164Y-33180000D03*
D12*
X38109164Y-33180000D03*
%TD*%
D20*
%TO.C,U4*%
X48300000Y-28180000D03*
X48800000Y-28180000D03*
X49300000Y-28180000D03*
X49800000Y-28180000D03*
X50300000Y-28180000D03*
X50800000Y-28180000D03*
D21*
X51500000Y-27480000D03*
X51500000Y-26980000D03*
X51500000Y-26480000D03*
X51500000Y-25980000D03*
X51500000Y-25480000D03*
X51500000Y-24980000D03*
D20*
X50800000Y-24280000D03*
X50300000Y-24280000D03*
X49800000Y-24280000D03*
X49300000Y-24280000D03*
X48800000Y-24280000D03*
X48300000Y-24280000D03*
D21*
X47600000Y-24980000D03*
X47600000Y-25480000D03*
X47600000Y-25980000D03*
X47600000Y-26480000D03*
X47600000Y-26980000D03*
X47600000Y-27480000D03*
%TD*%
D22*
%TO.C,J2*%
X22649164Y-23300000D03*
X22649164Y-27700000D03*
%TD*%
D23*
%TO.C,D3*%
X61049164Y-28680000D03*
D24*
X63589164Y-28680000D03*
%TD*%
D25*
%TO.C,H1*%
X22500000Y-18500000D03*
%TD*%
%TO.C,H4*%
X61000000Y-32500000D03*
%TD*%
%TO.C,H2*%
X61000000Y-18500000D03*
%TD*%
%TO.C,H3*%
X22500000Y-32500000D03*
%TD*%
D26*
%TO.C,U3*%
X28500000Y-24980000D03*
D27*
X34800000Y-22680000D03*
D26*
X28500000Y-22680000D03*
X28500000Y-20380000D03*
%TD*%
D28*
%TO.C,R8*%
X64349164Y-30670000D03*
X64349164Y-31690000D03*
%TD*%
D29*
%TO.C,R7*%
X49019164Y-29580000D03*
X47999164Y-29580000D03*
%TD*%
D30*
%TO.C,R1*%
X48499164Y-22180000D03*
X47479164Y-22180000D03*
%TD*%
D28*
%TO.C,R6*%
X27700000Y-28280000D03*
X27700000Y-27260000D03*
%TD*%
D31*
%TO.C,C16*%
X51279164Y-29580000D03*
X50319164Y-29580000D03*
%TD*%
%TO.C,C10*%
X50789164Y-22230000D03*
X51749164Y-22230000D03*
%TD*%
%TO.C,C13*%
X41299164Y-22180000D03*
X40339164Y-22180000D03*
%TD*%
D32*
%TO.C,C12*%
X44019164Y-22180000D03*
X44979164Y-22180000D03*
%TD*%
%TO.C,C11*%
X47490000Y-23130000D03*
X48450000Y-23130000D03*
%TD*%
D31*
%TO.C,C14*%
X46349164Y-27530000D03*
X45389164Y-27530000D03*
%TD*%
D32*
%TO.C,C4*%
X51749164Y-23180000D03*
X50789164Y-23180000D03*
%TD*%
M02*
