%TF.GenerationSoftware,KiCad,Pcbnew,6.0.4*%
%TF.CreationDate,2022-07-04T15:33:55+01:00*%
%TF.ProjectId,bob,626f622e-6b69-4636-9164-5f7063625858,rev?*%
%TF.SameCoordinates,Original*%
%TF.FileFunction,Soldermask,Top*%
%TF.FilePolarity,Negative*%
%FSLAX46Y46*%
G04 Gerber Fmt 4.6, Leading zero omitted, Abs format (unit mm)*
G04 Created by KiCad (PCBNEW 6.0.4) date 2022-07-04 15:33:55*
%MOMM*%
%LPD*%
G01*
G04 APERTURE LIST*
G04 Aperture macros list*
%AMRoundRect*
0 Rectangle with rounded corners*
0 $1 Rounding radius*
0 $2 $3 $4 $5 $6 $7 $8 $9 X,Y pos of 4 corners*
0 Add a 4 corners polygon primitive as box body*
4,1,4,$2,$3,$4,$5,$6,$7,$8,$9,$2,$3,0*
0 Add four circle primitives for the rounded corners*
1,1,$1+$1,$2,$3*
1,1,$1+$1,$4,$5*
1,1,$1+$1,$6,$7*
1,1,$1+$1,$8,$9*
0 Add four rect primitives between the rounded corners*
20,1,$1+$1,$2,$3,$4,$5,0*
20,1,$1+$1,$4,$5,$6,$7,0*
20,1,$1+$1,$6,$7,$8,$9,0*
20,1,$1+$1,$8,$9,$2,$3,0*%
%AMFreePoly0*
4,1,6,0.500000,-0.750000,-0.650000,-0.750000,-0.150000,0.000000,-0.650000,0.750000,0.500000,0.750000,0.500000,-0.750000,0.500000,-0.750000,$1*%
%AMFreePoly1*
4,1,6,1.000000,0.000000,0.500000,-0.750000,-0.500000,-0.750000,-0.500000,0.750000,0.500000,0.750000,1.000000,0.000000,1.000000,0.000000,$1*%
G04 Aperture macros list end*
%ADD10O,1.700000X1.700000*%
%ADD11R,1.700000X1.700000*%
%ADD12R,0.900000X1.200000*%
%ADD13RoundRect,0.225000X-0.225000X-0.250000X0.225000X-0.250000X0.225000X0.250000X-0.225000X0.250000X0*%
%ADD14C,6.500000*%
%ADD15C,2.000000*%
%ADD16RoundRect,0.425000X0.425000X-0.425000X0.425000X0.425000X-0.425000X0.425000X-0.425000X-0.425000X0*%
%ADD17C,1.700000*%
%ADD18R,1.700000X2.000000*%
%ADD19R,2.000000X0.500000*%
%ADD20C,1.000000*%
%ADD21C,1.800000*%
%ADD22R,1.800000X1.800000*%
%ADD23C,3.800000*%
%ADD24RoundRect,0.050000X0.387500X-0.050000X0.387500X0.050000X-0.387500X0.050000X-0.387500X-0.050000X0*%
%ADD25RoundRect,0.050000X0.050000X-0.387500X0.050000X0.387500X-0.050000X0.387500X-0.050000X-0.387500X0*%
%ADD26RoundRect,0.144000X1.456000X-1.456000X1.456000X1.456000X-1.456000X1.456000X-1.456000X-1.456000X0*%
%ADD27RoundRect,0.150000X-0.650000X-0.150000X0.650000X-0.150000X0.650000X0.150000X-0.650000X0.150000X0*%
%ADD28RoundRect,0.140000X-0.140000X-0.170000X0.140000X-0.170000X0.140000X0.170000X-0.140000X0.170000X0*%
%ADD29R,2.400000X2.000000*%
%ADD30RoundRect,0.135000X0.135000X0.185000X-0.135000X0.185000X-0.135000X-0.185000X0.135000X-0.185000X0*%
%ADD31RoundRect,0.135000X-0.185000X0.135000X-0.185000X-0.135000X0.185000X-0.135000X0.185000X0.135000X0*%
%ADD32FreePoly0,180.000000*%
%ADD33FreePoly1,180.000000*%
%ADD34RoundRect,0.140000X0.140000X0.170000X-0.140000X0.170000X-0.140000X-0.170000X0.140000X-0.170000X0*%
G04 APERTURE END LIST*
D10*
%TO.C,J1*%
X38109164Y-17820000D03*
X40649164Y-17820000D03*
X43189164Y-17820000D03*
X45729164Y-17820000D03*
X48269164Y-17820000D03*
X50809164Y-17820000D03*
D11*
X53349164Y-17820000D03*
%TD*%
D12*
%TO.C,D2*%
X29649164Y-20130000D03*
X32949164Y-20130000D03*
%TD*%
%TO.C,D1*%
X29649164Y-17780000D03*
X32949164Y-17780000D03*
%TD*%
D13*
%TO.C,C5*%
X30399164Y-23580000D03*
X31949164Y-23580000D03*
%TD*%
%TO.C,C3*%
X30399164Y-22080000D03*
X31949164Y-22080000D03*
%TD*%
D14*
%TO.C,SW1*%
X56000000Y-25500000D03*
%TD*%
D15*
%TO.C,J3*%
X63590000Y-22540000D03*
X63590000Y-25080000D03*
D16*
X61050000Y-25080000D03*
D17*
X61050000Y-22540000D03*
%TD*%
D10*
%TO.C,J4*%
X53349164Y-33180000D03*
X50809164Y-33180000D03*
X48269164Y-33180000D03*
X45729164Y-33180000D03*
X43189164Y-33180000D03*
X40649164Y-33180000D03*
D11*
X38109164Y-33180000D03*
%TD*%
D18*
%TO.C,J2*%
X19799164Y-29950000D03*
X19799164Y-21050000D03*
X25249164Y-29950000D03*
X25249164Y-21050000D03*
D19*
X25349164Y-27100000D03*
X25349164Y-26300000D03*
X25349164Y-25500000D03*
X25349164Y-24700000D03*
X25349164Y-23900000D03*
D20*
X22649164Y-23300000D03*
X22649164Y-27700000D03*
%TD*%
D21*
%TO.C,D3*%
X61049164Y-28680000D03*
D22*
X63589164Y-28680000D03*
%TD*%
D23*
%TO.C,H1*%
X22500000Y-18500000D03*
%TD*%
%TO.C,H4*%
X61000000Y-32500000D03*
%TD*%
%TO.C,H2*%
X61000000Y-18500000D03*
%TD*%
%TO.C,H3*%
X22500000Y-32500000D03*
%TD*%
D24*
%TO.C,U1*%
X39262500Y-27380000D03*
X39262500Y-26980000D03*
X39262500Y-26580000D03*
X39262500Y-26180000D03*
X39262500Y-25780000D03*
X39262500Y-25380000D03*
X39262500Y-24980000D03*
X39262500Y-24580000D03*
X39262500Y-24180000D03*
X39262500Y-23780000D03*
X39262500Y-23380000D03*
X39262500Y-22980000D03*
X39262500Y-22580000D03*
X39262500Y-22180000D03*
D25*
X40100000Y-21342500D03*
X40500000Y-21342500D03*
X40900000Y-21342500D03*
X41300000Y-21342500D03*
X41700000Y-21342500D03*
X42100000Y-21342500D03*
X42500000Y-21342500D03*
X42900000Y-21342500D03*
X43300000Y-21342500D03*
X43700000Y-21342500D03*
X44100000Y-21342500D03*
X44500000Y-21342500D03*
X44900000Y-21342500D03*
X45300000Y-21342500D03*
D24*
X46137500Y-22180000D03*
X46137500Y-22580000D03*
X46137500Y-22980000D03*
X46137500Y-23380000D03*
X46137500Y-23780000D03*
X46137500Y-24180000D03*
X46137500Y-24580000D03*
X46137500Y-24980000D03*
X46137500Y-25380000D03*
X46137500Y-25780000D03*
X46137500Y-26180000D03*
X46137500Y-26580000D03*
X46137500Y-26980000D03*
X46137500Y-27380000D03*
D25*
X45300000Y-28217500D03*
X44900000Y-28217500D03*
X44500000Y-28217500D03*
X44100000Y-28217500D03*
X43700000Y-28217500D03*
X43300000Y-28217500D03*
X42900000Y-28217500D03*
X42500000Y-28217500D03*
X42100000Y-28217500D03*
X41700000Y-28217500D03*
X41300000Y-28217500D03*
X40900000Y-28217500D03*
X40500000Y-28217500D03*
X40100000Y-28217500D03*
D26*
X42700000Y-24780000D03*
%TD*%
D27*
%TO.C,U2*%
X35000000Y-28770000D03*
X35000000Y-30040000D03*
X35000000Y-31310000D03*
X35000000Y-32580000D03*
X27800000Y-32580000D03*
X27800000Y-31310000D03*
X27800000Y-30040000D03*
X27800000Y-28770000D03*
%TD*%
D28*
%TO.C,C1*%
X47400000Y-20500000D03*
X46440000Y-20500000D03*
%TD*%
D29*
%TO.C,Y1*%
X49800000Y-23980000D03*
X49800000Y-27680000D03*
%TD*%
D30*
%TO.C,R5*%
X38799164Y-30830000D03*
X39819164Y-30830000D03*
%TD*%
D31*
%TO.C,R4*%
X47350000Y-24950000D03*
X47350000Y-23930000D03*
%TD*%
D30*
%TO.C,R2*%
X36600000Y-22680000D03*
X37620000Y-22680000D03*
%TD*%
%TO.C,R3*%
X36600000Y-23680000D03*
X37620000Y-23680000D03*
%TD*%
D32*
%TO.C,JP1*%
X49049164Y-21480000D03*
D33*
X50499164Y-21480000D03*
%TD*%
D32*
%TO.C,JP2*%
X28150000Y-26560000D03*
D33*
X29600000Y-26560000D03*
%TD*%
D34*
%TO.C,C2*%
X36610000Y-21680000D03*
X37570000Y-21680000D03*
%TD*%
%TO.C,C8*%
X39800000Y-29830000D03*
X38840000Y-29830000D03*
%TD*%
%TO.C,C6*%
X36610000Y-24680000D03*
X37570000Y-24680000D03*
%TD*%
%TO.C,C7*%
X52899164Y-29430000D03*
X51939164Y-29430000D03*
%TD*%
%TO.C,C9*%
X51939164Y-30380000D03*
X52899164Y-30380000D03*
%TD*%
M02*
