%TF.GenerationSoftware,KiCad,Pcbnew,6.0.4*%
%TF.CreationDate,2022-07-04T15:33:54+01:00*%
%TF.ProjectId,bob,626f622e-6b69-4636-9164-5f7063625858,rev?*%
%TF.SameCoordinates,Original*%
%TF.FileFunction,Paste,Top*%
%TF.FilePolarity,Positive*%
%FSLAX46Y46*%
G04 Gerber Fmt 4.6, Leading zero omitted, Abs format (unit mm)*
G04 Created by KiCad (PCBNEW 6.0.4) date 2022-07-04 15:33:54*
%MOMM*%
%LPD*%
G01*
G04 APERTURE LIST*
G04 Aperture macros list*
%AMRoundRect*
0 Rectangle with rounded corners*
0 $1 Rounding radius*
0 $2 $3 $4 $5 $6 $7 $8 $9 X,Y pos of 4 corners*
0 Add a 4 corners polygon primitive as box body*
4,1,4,$2,$3,$4,$5,$6,$7,$8,$9,$2,$3,0*
0 Add four circle primitives for the rounded corners*
1,1,$1+$1,$2,$3*
1,1,$1+$1,$4,$5*
1,1,$1+$1,$6,$7*
1,1,$1+$1,$8,$9*
0 Add four rect primitives between the rounded corners*
20,1,$1+$1,$2,$3,$4,$5,0*
20,1,$1+$1,$4,$5,$6,$7,0*
20,1,$1+$1,$6,$7,$8,$9,0*
20,1,$1+$1,$8,$9,$2,$3,0*%
G04 Aperture macros list end*
%ADD10R,0.900000X1.200000*%
%ADD11RoundRect,0.225000X-0.225000X-0.250000X0.225000X-0.250000X0.225000X0.250000X-0.225000X0.250000X0*%
%ADD12R,1.700000X2.000000*%
%ADD13R,2.000000X0.500000*%
%ADD14RoundRect,0.050000X0.387500X-0.050000X0.387500X0.050000X-0.387500X0.050000X-0.387500X-0.050000X0*%
%ADD15RoundRect,0.050000X0.050000X-0.387500X0.050000X0.387500X-0.050000X0.387500X-0.050000X-0.387500X0*%
%ADD16RoundRect,0.250000X0.292217X-0.292217X0.292217X0.292217X-0.292217X0.292217X-0.292217X-0.292217X0*%
%ADD17RoundRect,0.150000X-0.650000X-0.150000X0.650000X-0.150000X0.650000X0.150000X-0.650000X0.150000X0*%
%ADD18RoundRect,0.140000X-0.140000X-0.170000X0.140000X-0.170000X0.140000X0.170000X-0.140000X0.170000X0*%
%ADD19R,2.400000X2.000000*%
%ADD20RoundRect,0.135000X0.135000X0.185000X-0.135000X0.185000X-0.135000X-0.185000X0.135000X-0.185000X0*%
%ADD21RoundRect,0.135000X-0.185000X0.135000X-0.185000X-0.135000X0.185000X-0.135000X0.185000X0.135000X0*%
%ADD22RoundRect,0.140000X0.140000X0.170000X-0.140000X0.170000X-0.140000X-0.170000X0.140000X-0.170000X0*%
G04 APERTURE END LIST*
D10*
%TO.C,D2*%
X29649164Y-20130000D03*
X32949164Y-20130000D03*
%TD*%
%TO.C,D1*%
X29649164Y-17780000D03*
X32949164Y-17780000D03*
%TD*%
D11*
%TO.C,C5*%
X30399164Y-23580000D03*
X31949164Y-23580000D03*
%TD*%
%TO.C,C3*%
X30399164Y-22080000D03*
X31949164Y-22080000D03*
%TD*%
D12*
%TO.C,J2*%
X19799164Y-29950000D03*
X19799164Y-21050000D03*
X25249164Y-29950000D03*
X25249164Y-21050000D03*
D13*
X25349164Y-27100000D03*
X25349164Y-26300000D03*
X25349164Y-25500000D03*
X25349164Y-24700000D03*
X25349164Y-23900000D03*
%TD*%
D14*
%TO.C,U1*%
X39262500Y-27380000D03*
X39262500Y-26980000D03*
X39262500Y-26580000D03*
X39262500Y-26180000D03*
X39262500Y-25780000D03*
X39262500Y-25380000D03*
X39262500Y-24980000D03*
X39262500Y-24580000D03*
X39262500Y-24180000D03*
X39262500Y-23780000D03*
X39262500Y-23380000D03*
X39262500Y-22980000D03*
X39262500Y-22580000D03*
X39262500Y-22180000D03*
D15*
X40100000Y-21342500D03*
X40500000Y-21342500D03*
X40900000Y-21342500D03*
X41300000Y-21342500D03*
X41700000Y-21342500D03*
X42100000Y-21342500D03*
X42500000Y-21342500D03*
X42900000Y-21342500D03*
X43300000Y-21342500D03*
X43700000Y-21342500D03*
X44100000Y-21342500D03*
X44500000Y-21342500D03*
X44900000Y-21342500D03*
X45300000Y-21342500D03*
D14*
X46137500Y-22180000D03*
X46137500Y-22580000D03*
X46137500Y-22980000D03*
X46137500Y-23380000D03*
X46137500Y-23780000D03*
X46137500Y-24180000D03*
X46137500Y-24580000D03*
X46137500Y-24980000D03*
X46137500Y-25380000D03*
X46137500Y-25780000D03*
X46137500Y-26180000D03*
X46137500Y-26580000D03*
X46137500Y-26980000D03*
X46137500Y-27380000D03*
D15*
X45300000Y-28217500D03*
X44900000Y-28217500D03*
X44500000Y-28217500D03*
X44100000Y-28217500D03*
X43700000Y-28217500D03*
X43300000Y-28217500D03*
X42900000Y-28217500D03*
X42500000Y-28217500D03*
X42100000Y-28217500D03*
X41700000Y-28217500D03*
X41300000Y-28217500D03*
X40900000Y-28217500D03*
X40500000Y-28217500D03*
X40100000Y-28217500D03*
D16*
X43337500Y-24142500D03*
X42062500Y-24142500D03*
X43337500Y-25417500D03*
X42062500Y-25417500D03*
%TD*%
D17*
%TO.C,U2*%
X35000000Y-28770000D03*
X35000000Y-30040000D03*
X35000000Y-31310000D03*
X35000000Y-32580000D03*
X27800000Y-32580000D03*
X27800000Y-31310000D03*
X27800000Y-30040000D03*
X27800000Y-28770000D03*
%TD*%
D18*
%TO.C,C1*%
X47400000Y-20500000D03*
X46440000Y-20500000D03*
%TD*%
D19*
%TO.C,Y1*%
X49800000Y-23980000D03*
X49800000Y-27680000D03*
%TD*%
D20*
%TO.C,R5*%
X38799164Y-30830000D03*
X39819164Y-30830000D03*
%TD*%
D21*
%TO.C,R4*%
X47350000Y-24950000D03*
X47350000Y-23930000D03*
%TD*%
D20*
%TO.C,R2*%
X36600000Y-22680000D03*
X37620000Y-22680000D03*
%TD*%
%TO.C,R3*%
X36600000Y-23680000D03*
X37620000Y-23680000D03*
%TD*%
D22*
%TO.C,C2*%
X36610000Y-21680000D03*
X37570000Y-21680000D03*
%TD*%
%TO.C,C8*%
X39800000Y-29830000D03*
X38840000Y-29830000D03*
%TD*%
%TO.C,C6*%
X36610000Y-24680000D03*
X37570000Y-24680000D03*
%TD*%
%TO.C,C7*%
X52899164Y-29430000D03*
X51939164Y-29430000D03*
%TD*%
%TO.C,C9*%
X51939164Y-30380000D03*
X52899164Y-30380000D03*
%TD*%
M02*
