%TF.GenerationSoftware,KiCad,Pcbnew,6.0.4*%
%TF.CreationDate,2022-07-04T15:33:54+01:00*%
%TF.ProjectId,bob,626f622e-6b69-4636-9164-5f7063625858,rev?*%
%TF.SameCoordinates,Original*%
%TF.FileFunction,Copper,L1,Top*%
%TF.FilePolarity,Positive*%
%FSLAX46Y46*%
G04 Gerber Fmt 4.6, Leading zero omitted, Abs format (unit mm)*
G04 Created by KiCad (PCBNEW 6.0.4) date 2022-07-04 15:33:54*
%MOMM*%
%LPD*%
G01*
G04 APERTURE LIST*
G04 Aperture macros list*
%AMRoundRect*
0 Rectangle with rounded corners*
0 $1 Rounding radius*
0 $2 $3 $4 $5 $6 $7 $8 $9 X,Y pos of 4 corners*
0 Add a 4 corners polygon primitive as box body*
4,1,4,$2,$3,$4,$5,$6,$7,$8,$9,$2,$3,0*
0 Add four circle primitives for the rounded corners*
1,1,$1+$1,$2,$3*
1,1,$1+$1,$4,$5*
1,1,$1+$1,$6,$7*
1,1,$1+$1,$8,$9*
0 Add four rect primitives between the rounded corners*
20,1,$1+$1,$2,$3,$4,$5,0*
20,1,$1+$1,$4,$5,$6,$7,0*
20,1,$1+$1,$6,$7,$8,$9,0*
20,1,$1+$1,$8,$9,$2,$3,0*%
%AMFreePoly0*
4,1,6,0.500000,-0.750000,-0.650000,-0.750000,-0.150000,0.000000,-0.650000,0.750000,0.500000,0.750000,0.500000,-0.750000,0.500000,-0.750000,$1*%
%AMFreePoly1*
4,1,6,1.000000,0.000000,0.500000,-0.750000,-0.500000,-0.750000,-0.500000,0.750000,0.500000,0.750000,1.000000,0.000000,1.000000,0.000000,$1*%
G04 Aperture macros list end*
%TA.AperFunction,ComponentPad*%
%ADD10O,1.700000X1.700000*%
%TD*%
%TA.AperFunction,ComponentPad*%
%ADD11R,1.700000X1.700000*%
%TD*%
%TA.AperFunction,SMDPad,CuDef*%
%ADD12R,0.900000X1.200000*%
%TD*%
%TA.AperFunction,SMDPad,CuDef*%
%ADD13RoundRect,0.225000X-0.225000X-0.250000X0.225000X-0.250000X0.225000X0.250000X-0.225000X0.250000X0*%
%TD*%
%TA.AperFunction,TestPad*%
%ADD14C,6.500000*%
%TD*%
%TA.AperFunction,ComponentPad*%
%ADD15RoundRect,0.425000X0.425000X-0.425000X0.425000X0.425000X-0.425000X0.425000X-0.425000X-0.425000X0*%
%TD*%
%TA.AperFunction,ComponentPad*%
%ADD16C,1.700000*%
%TD*%
%TA.AperFunction,SMDPad,CuDef*%
%ADD17R,1.700000X2.000000*%
%TD*%
%TA.AperFunction,SMDPad,CuDef*%
%ADD18R,2.000000X0.500000*%
%TD*%
%TA.AperFunction,ComponentPad*%
%ADD19C,1.800000*%
%TD*%
%TA.AperFunction,ComponentPad*%
%ADD20R,1.800000X1.800000*%
%TD*%
%TA.AperFunction,ComponentPad*%
%ADD21C,3.800000*%
%TD*%
%TA.AperFunction,SMDPad,CuDef*%
%ADD22RoundRect,0.050000X0.387500X-0.050000X0.387500X0.050000X-0.387500X0.050000X-0.387500X-0.050000X0*%
%TD*%
%TA.AperFunction,SMDPad,CuDef*%
%ADD23RoundRect,0.050000X0.050000X-0.387500X0.050000X0.387500X-0.050000X0.387500X-0.050000X-0.387500X0*%
%TD*%
%TA.AperFunction,ComponentPad*%
%ADD24C,0.600000*%
%TD*%
%TA.AperFunction,SMDPad,CuDef*%
%ADD25RoundRect,0.144000X1.456000X-1.456000X1.456000X1.456000X-1.456000X1.456000X-1.456000X-1.456000X0*%
%TD*%
%TA.AperFunction,SMDPad,CuDef*%
%ADD26RoundRect,0.150000X-0.650000X-0.150000X0.650000X-0.150000X0.650000X0.150000X-0.650000X0.150000X0*%
%TD*%
%TA.AperFunction,SMDPad,CuDef*%
%ADD27RoundRect,0.140000X-0.140000X-0.170000X0.140000X-0.170000X0.140000X0.170000X-0.140000X0.170000X0*%
%TD*%
%TA.AperFunction,SMDPad,CuDef*%
%ADD28R,2.400000X2.000000*%
%TD*%
%TA.AperFunction,SMDPad,CuDef*%
%ADD29RoundRect,0.135000X0.135000X0.185000X-0.135000X0.185000X-0.135000X-0.185000X0.135000X-0.185000X0*%
%TD*%
%TA.AperFunction,SMDPad,CuDef*%
%ADD30RoundRect,0.135000X-0.185000X0.135000X-0.185000X-0.135000X0.185000X-0.135000X0.185000X0.135000X0*%
%TD*%
%TA.AperFunction,SMDPad,CuDef*%
%ADD31FreePoly0,180.000000*%
%TD*%
%TA.AperFunction,SMDPad,CuDef*%
%ADD32FreePoly1,180.000000*%
%TD*%
%TA.AperFunction,SMDPad,CuDef*%
%ADD33RoundRect,0.140000X0.140000X0.170000X-0.140000X0.170000X-0.140000X-0.170000X0.140000X-0.170000X0*%
%TD*%
%TA.AperFunction,ViaPad*%
%ADD34C,0.800000*%
%TD*%
%TA.AperFunction,Conductor*%
%ADD35C,0.200000*%
%TD*%
%TA.AperFunction,Conductor*%
%ADD36C,0.400000*%
%TD*%
G04 APERTURE END LIST*
D10*
%TO.P,J1,7,Pin_7*%
%TO.N,+BATT*%
X38109164Y-17820000D03*
%TO.P,J1,6,Pin_6*%
%TO.N,GPIO29*%
X40649164Y-17820000D03*
%TO.P,J1,5,Pin_5*%
%TO.N,GPIO28*%
X43189164Y-17820000D03*
%TO.P,J1,4,Pin_4*%
%TO.N,GPIO27*%
X45729164Y-17820000D03*
%TO.P,J1,3,Pin_3*%
%TO.N,GPIO26*%
X48269164Y-17820000D03*
%TO.P,J1,2,Pin_2*%
%TO.N,GPIO25*%
X50809164Y-17820000D03*
D11*
%TO.P,J1,1,Pin_1*%
%TO.N,GND*%
X53349164Y-17820000D03*
%TD*%
D12*
%TO.P,D2,1,K*%
%TO.N,Net-(D2-Pad1)*%
X29649164Y-20130000D03*
%TO.P,D2,2,A*%
%TO.N,VBUS*%
X32949164Y-20130000D03*
%TD*%
%TO.P,D1,1,K*%
%TO.N,Net-(D2-Pad1)*%
X29649164Y-17780000D03*
%TO.P,D1,2,A*%
%TO.N,+BATT*%
X32949164Y-17780000D03*
%TD*%
D13*
%TO.P,C5,1*%
%TO.N,+3V3*%
X30399164Y-23580000D03*
%TO.P,C5,2*%
%TO.N,GND*%
X31949164Y-23580000D03*
%TD*%
%TO.P,C3,1*%
%TO.N,Net-(D2-Pad1)*%
X30399164Y-22080000D03*
%TO.P,C3,2*%
%TO.N,GND*%
X31949164Y-22080000D03*
%TD*%
D14*
%TO.P,SW1,1,1*%
%TO.N,Net-(J3-Pad2)*%
X56000000Y-25500000D03*
%TD*%
D15*
%TO.P,J3,1,Pin_1*%
%TO.N,GND*%
X61050000Y-25080000D03*
D16*
%TO.P,J3,2,Pin_2*%
%TO.N,Net-(J3-Pad2)*%
X61050000Y-22540000D03*
%TD*%
D10*
%TO.P,J4,7,Pin_7*%
%TO.N,GND*%
X53349164Y-33180000D03*
%TO.P,J4,6,Pin_6*%
%TO.N,GPIO4*%
X50809164Y-33180000D03*
%TO.P,J4,5,Pin_5*%
%TO.N,GPIO3*%
X48269164Y-33180000D03*
%TO.P,J4,4,Pin_4*%
%TO.N,GPIO2*%
X45729164Y-33180000D03*
%TO.P,J4,3,Pin_3*%
%TO.N,I2C_SCL*%
X43189164Y-33180000D03*
%TO.P,J4,2,Pin_2*%
%TO.N,I2C_SDA*%
X40649164Y-33180000D03*
D11*
%TO.P,J4,1,Pin_1*%
%TO.N,+3V3*%
X38109164Y-33180000D03*
%TD*%
D17*
%TO.P,J2,6,Shield*%
%TO.N,GND*%
X19799164Y-29950000D03*
X19799164Y-21050000D03*
X25249164Y-29950000D03*
X25249164Y-21050000D03*
D18*
%TO.P,J2,5,GND*%
X25349164Y-27100000D03*
%TO.P,J2,4,ID*%
%TO.N,unconnected-(J2-Pad4)*%
X25349164Y-26300000D03*
%TO.P,J2,3,D+*%
%TO.N,USB_D+*%
X25349164Y-25500000D03*
%TO.P,J2,2,D-*%
%TO.N,USB_D-*%
X25349164Y-24700000D03*
%TO.P,J2,1,VBUS*%
%TO.N,VBUS*%
X25349164Y-23900000D03*
%TD*%
D19*
%TO.P,D3,2,A*%
%TO.N,+3V3*%
X61049164Y-28680000D03*
D20*
%TO.P,D3,1,K*%
%TO.N,Net-(D3-Pad1)*%
X63589164Y-28680000D03*
%TD*%
D21*
%TO.P,H1,1,1*%
%TO.N,GND*%
X22500000Y-18500000D03*
%TD*%
%TO.P,H4,1,1*%
%TO.N,GND*%
X61000000Y-32500000D03*
%TD*%
%TO.P,H2,1,1*%
%TO.N,GND*%
X61000000Y-18500000D03*
%TD*%
%TO.P,H3,1,1*%
%TO.N,GND*%
X22500000Y-32500000D03*
%TD*%
D22*
%TO.P,U1,56,QSPI_SS*%
%TO.N,QSPI_SS*%
X39262500Y-27380000D03*
%TO.P,U1,55,QSPI_SD1*%
%TO.N,QSPI_SD1*%
X39262500Y-26980000D03*
%TO.P,U1,54,QSPI_SD2*%
%TO.N,QSPI_SD2*%
X39262500Y-26580000D03*
%TO.P,U1,53,QSPI_SD0*%
%TO.N,QSPI_SD0*%
X39262500Y-26180000D03*
%TO.P,U1,52,QSPI_SCLK*%
%TO.N,QSPI_SCLK*%
X39262500Y-25780000D03*
%TO.P,U1,51,QSPI_SD3*%
%TO.N,QSPI_SD3*%
X39262500Y-25380000D03*
%TO.P,U1,50,DVDD*%
%TO.N,+1V1*%
X39262500Y-24980000D03*
%TO.P,U1,49,IOVDD*%
%TO.N,+3V3*%
X39262500Y-24580000D03*
%TO.P,U1,48,USB_VDD*%
X39262500Y-24180000D03*
%TO.P,U1,47,USB_DP*%
%TO.N,Net-(R3-Pad1)*%
X39262500Y-23780000D03*
%TO.P,U1,46,USB_DM*%
%TO.N,Net-(U1-Pad46)*%
X39262500Y-23380000D03*
%TO.P,U1,45,VREG_VOUT*%
%TO.N,+1V1*%
X39262500Y-22980000D03*
%TO.P,U1,44,VREG_IN*%
%TO.N,+3V3*%
X39262500Y-22580000D03*
%TO.P,U1,43,ADC_AVDD*%
X39262500Y-22180000D03*
D23*
%TO.P,U1,42,IOVDD*%
X40100000Y-21342500D03*
%TO.P,U1,41,GPIO29_ADC3*%
%TO.N,GPIO29*%
X40500000Y-21342500D03*
%TO.P,U1,40,GPIO28_ADC2*%
%TO.N,GPIO28*%
X40900000Y-21342500D03*
%TO.P,U1,39,GPIO27_ADC1*%
%TO.N,GPIO27*%
X41300000Y-21342500D03*
%TO.P,U1,38,GPIO26_ADC0*%
%TO.N,GPIO26*%
X41700000Y-21342500D03*
%TO.P,U1,37,GPIO25*%
%TO.N,GPIO25*%
X42100000Y-21342500D03*
%TO.P,U1,36,GPIO24*%
%TO.N,GPIO24*%
X42500000Y-21342500D03*
%TO.P,U1,35,GPIO23*%
%TO.N,GPIO23*%
X42900000Y-21342500D03*
%TO.P,U1,34,GPIO22*%
%TO.N,unconnected-(U1-Pad34)*%
X43300000Y-21342500D03*
%TO.P,U1,33,IOVDD*%
%TO.N,+3V3*%
X43700000Y-21342500D03*
%TO.P,U1,32,GPIO21*%
%TO.N,unconnected-(U1-Pad32)*%
X44100000Y-21342500D03*
%TO.P,U1,31,GPIO20*%
%TO.N,unconnected-(U1-Pad31)*%
X44500000Y-21342500D03*
%TO.P,U1,30,GPIO19*%
%TO.N,unconnected-(U1-Pad30)*%
X44900000Y-21342500D03*
%TO.P,U1,29,GPIO18*%
%TO.N,unconnected-(U1-Pad29)*%
X45300000Y-21342500D03*
D22*
%TO.P,U1,28,GPIO17*%
%TO.N,unconnected-(U1-Pad28)*%
X46137500Y-22180000D03*
%TO.P,U1,27,GPIO16*%
%TO.N,unconnected-(U1-Pad27)*%
X46137500Y-22580000D03*
%TO.P,U1,26,RUN*%
%TO.N,Net-(JP1-Pad2)*%
X46137500Y-22980000D03*
%TO.P,U1,25,SWD*%
%TO.N,SWD*%
X46137500Y-23380000D03*
%TO.P,U1,24,SWCLK*%
%TO.N,SWCLK*%
X46137500Y-23780000D03*
%TO.P,U1,23,DVDD*%
%TO.N,+1V1*%
X46137500Y-24180000D03*
%TO.P,U1,22,IOVDD*%
%TO.N,+3V3*%
X46137500Y-24580000D03*
%TO.P,U1,21,XOUT*%
%TO.N,XOUT*%
X46137500Y-24980000D03*
%TO.P,U1,20,XIN*%
%TO.N,XIN*%
X46137500Y-25380000D03*
%TO.P,U1,19,TESTEN*%
%TO.N,GND*%
X46137500Y-25780000D03*
%TO.P,U1,18,GPIO15*%
%TO.N,unconnected-(U1-Pad18)*%
X46137500Y-26180000D03*
%TO.P,U1,17,GPIO14*%
%TO.N,unconnected-(U1-Pad17)*%
X46137500Y-26580000D03*
%TO.P,U1,16,GPIO13*%
%TO.N,unconnected-(U1-Pad16)*%
X46137500Y-26980000D03*
%TO.P,U1,15,GPIO12*%
%TO.N,unconnected-(U1-Pad15)*%
X46137500Y-27380000D03*
D23*
%TO.P,U1,14,GPIO11*%
%TO.N,unconnected-(U1-Pad14)*%
X45300000Y-28217500D03*
%TO.P,U1,13,GPIO10*%
%TO.N,unconnected-(U1-Pad13)*%
X44900000Y-28217500D03*
%TO.P,U1,12,GPIO9*%
%TO.N,unconnected-(U1-Pad12)*%
X44500000Y-28217500D03*
%TO.P,U1,11,GPIO8*%
%TO.N,unconnected-(U1-Pad11)*%
X44100000Y-28217500D03*
%TO.P,U1,10,IOVDD*%
%TO.N,+3V3*%
X43700000Y-28217500D03*
%TO.P,U1,9,GPIO7*%
%TO.N,unconnected-(U1-Pad9)*%
X43300000Y-28217500D03*
%TO.P,U1,8,GPIO6*%
%TO.N,unconnected-(U1-Pad8)*%
X42900000Y-28217500D03*
%TO.P,U1,7,GPIO5*%
%TO.N,unconnected-(U1-Pad7)*%
X42500000Y-28217500D03*
%TO.P,U1,6,GPIO4*%
%TO.N,GPIO4*%
X42100000Y-28217500D03*
%TO.P,U1,5,GPIO3*%
%TO.N,GPIO3*%
X41700000Y-28217500D03*
%TO.P,U1,4,GPIO2*%
%TO.N,GPIO2*%
X41300000Y-28217500D03*
%TO.P,U1,3,GPIO1*%
%TO.N,I2C_SCL*%
X40900000Y-28217500D03*
%TO.P,U1,2,GPIO0*%
%TO.N,I2C_SDA*%
X40500000Y-28217500D03*
%TO.P,U1,1,IOVDD*%
%TO.N,+3V3*%
X40100000Y-28217500D03*
D24*
%TO.P,U1,57,GND*%
%TO.N,GND*%
X43975000Y-23505000D03*
X43975000Y-24780000D03*
X43975000Y-26055000D03*
X42700000Y-23505000D03*
X42700000Y-24780000D03*
X42700000Y-26055000D03*
X41425000Y-23505000D03*
X41425000Y-24780000D03*
X41425000Y-26055000D03*
D25*
X42700000Y-24780000D03*
%TD*%
D26*
%TO.P,U2,8,VCC*%
%TO.N,+3V3*%
X35000000Y-28770000D03*
%TO.P,U2,7,IO3*%
%TO.N,QSPI_SD3*%
X35000000Y-30040000D03*
%TO.P,U2,6,CLK*%
%TO.N,QSPI_SCLK*%
X35000000Y-31310000D03*
%TO.P,U2,5,DI(IO0)*%
%TO.N,QSPI_SD0*%
X35000000Y-32580000D03*
%TO.P,U2,4,GND*%
%TO.N,GND*%
X27800000Y-32580000D03*
%TO.P,U2,3,IO2*%
%TO.N,QSPI_SD2*%
X27800000Y-31310000D03*
%TO.P,U2,2,DO(IO1)*%
%TO.N,QSPI_SD1*%
X27800000Y-30040000D03*
%TO.P,U2,1,~{CS}*%
%TO.N,QSPI_SS*%
X27800000Y-28770000D03*
%TD*%
D27*
%TO.P,C1,2*%
%TO.N,GND*%
X47400000Y-20500000D03*
%TO.P,C1,1*%
%TO.N,+3V3*%
X46440000Y-20500000D03*
%TD*%
D28*
%TO.P,Y1,1,1*%
%TO.N,Net-(C7-Pad2)*%
X49800000Y-23980000D03*
%TO.P,Y1,2,2*%
%TO.N,XIN*%
X49800000Y-27680000D03*
%TD*%
D29*
%TO.P,R5,2*%
%TO.N,+3V3*%
X38799164Y-30830000D03*
%TO.P,R5,1*%
%TO.N,I2C_SDA*%
X39819164Y-30830000D03*
%TD*%
D30*
%TO.P,R4,2*%
%TO.N,XOUT*%
X47350000Y-24950000D03*
%TO.P,R4,1*%
%TO.N,Net-(C7-Pad2)*%
X47350000Y-23930000D03*
%TD*%
D29*
%TO.P,R2,2*%
%TO.N,USB_D-*%
X36600000Y-22680000D03*
%TO.P,R2,1*%
%TO.N,Net-(U1-Pad46)*%
X37620000Y-22680000D03*
%TD*%
%TO.P,R3,2*%
%TO.N,USB_D+*%
X36600000Y-23680000D03*
%TO.P,R3,1*%
%TO.N,Net-(R3-Pad1)*%
X37620000Y-23680000D03*
%TD*%
D31*
%TO.P,JP1,2,B*%
%TO.N,Net-(JP1-Pad2)*%
X49049164Y-21480000D03*
D32*
%TO.P,JP1,1,A*%
%TO.N,GND*%
X50499164Y-21480000D03*
%TD*%
D31*
%TO.P,JP2,2,B*%
%TO.N,Net-(JP2-Pad2)*%
X28150000Y-26560000D03*
D32*
%TO.P,JP2,1,A*%
%TO.N,GND*%
X29600000Y-26560000D03*
%TD*%
D33*
%TO.P,C2,2*%
%TO.N,GND*%
X36610000Y-21680000D03*
%TO.P,C2,1*%
%TO.N,+3V3*%
X37570000Y-21680000D03*
%TD*%
%TO.P,C8,1*%
%TO.N,+3V3*%
X39800000Y-29830000D03*
%TO.P,C8,2*%
%TO.N,GND*%
X38840000Y-29830000D03*
%TD*%
%TO.P,C6,2*%
%TO.N,GND*%
X36610000Y-24680000D03*
%TO.P,C6,1*%
%TO.N,+3V3*%
X37570000Y-24680000D03*
%TD*%
%TO.P,C7,1*%
%TO.N,GND*%
X52899164Y-29430000D03*
%TO.P,C7,2*%
%TO.N,Net-(C7-Pad2)*%
X51939164Y-29430000D03*
%TD*%
%TO.P,C9,2*%
%TO.N,XIN*%
X51939164Y-30380000D03*
%TO.P,C9,1*%
%TO.N,GND*%
X52899164Y-30380000D03*
%TD*%
D34*
%TO.N,GND*%
X47500000Y-20500000D03*
%TO.N,+BATT*%
X32949164Y-17830000D03*
%TO.N,VBUS*%
X25849164Y-22950000D03*
X32999164Y-20130000D03*
%TO.N,GND*%
X52999164Y-29930000D03*
%TO.N,Net-(JP1-Pad2)*%
X47429164Y-21880000D03*
%TO.N,+3V3*%
X52099164Y-23730000D03*
X28500000Y-22680000D03*
%TO.N,GND*%
X38099164Y-29530000D03*
X32549164Y-23680000D03*
X44799164Y-29680000D03*
X36329164Y-25030000D03*
X36559164Y-21520000D03*
X27779164Y-32600000D03*
X47349164Y-28190000D03*
%TO.N,+3V3*%
X34999164Y-25825352D03*
X49000000Y-29980000D03*
X46250000Y-29380000D03*
X39800000Y-29380000D03*
X37600000Y-21680000D03*
%TO.N,Net-(D2-Pad1)*%
X28500000Y-20380000D03*
%TO.N,GND*%
X29800000Y-26480000D03*
%TO.N,Net-(JP2-Pad2)*%
X27700000Y-26480000D03*
%TO.N,+3V3*%
X35000000Y-28780000D03*
%TO.N,QSPI_SD2*%
X40400000Y-26080000D03*
%TO.N,QSPI_SD1*%
X38199164Y-26924383D03*
%TO.N,QSPI_SS*%
X41000000Y-27080000D03*
X27800000Y-28780000D03*
%TO.N,QSPI_SD1*%
X27800000Y-30080000D03*
%TO.N,QSPI_SD2*%
X27800000Y-31280000D03*
%TO.N,+3V3*%
X45099164Y-25930000D03*
%TO.N,+1V1*%
X45000000Y-22980000D03*
X40300000Y-22980000D03*
%TD*%
D35*
%TO.N,USB_D-*%
X36600000Y-22680000D02*
X34604150Y-24675850D01*
X34604150Y-24675850D02*
X25373314Y-24675850D01*
X25373314Y-24675850D02*
X25349164Y-24700000D01*
%TO.N,USB_D+*%
X36600000Y-23680000D02*
X36236397Y-23680000D01*
X36236397Y-23680000D02*
X34790556Y-25125841D01*
X34790556Y-25125841D02*
X27223324Y-25125841D01*
X27223324Y-25125841D02*
X26849165Y-25500000D01*
X26849165Y-25500000D02*
X25349164Y-25500000D01*
%TO.N,+3V3*%
X44009745Y-20500000D02*
X43699520Y-20810225D01*
X46440000Y-20500000D02*
X44009745Y-20500000D01*
X43699520Y-20900000D02*
X43699520Y-20810225D01*
%TO.N,GPIO25*%
X42100000Y-21342500D02*
X42100000Y-20604182D01*
X42100000Y-20604182D02*
X42905142Y-19799040D01*
X42905142Y-19799040D02*
X48830124Y-19799040D01*
X48830124Y-19799040D02*
X50809164Y-17820000D01*
%TO.N,GPIO26*%
X41700000Y-21342500D02*
X41700000Y-20439176D01*
X42739656Y-19399520D02*
X46689644Y-19399520D01*
X46689644Y-19399520D02*
X48269164Y-17820000D01*
X41700000Y-20439176D02*
X42739656Y-19399520D01*
%TO.N,GPIO27*%
X41300000Y-21342500D02*
X41300000Y-20274170D01*
X41300000Y-20274170D02*
X42574170Y-19000000D01*
X42574170Y-19000000D02*
X44549164Y-19000000D01*
X44549164Y-19000000D02*
X45729164Y-17820000D01*
%TO.N,GPIO28*%
X40900000Y-21342500D02*
X40900000Y-20109164D01*
X40900000Y-20109164D02*
X43189164Y-17820000D01*
%TO.N,GPIO29*%
X40500000Y-21342500D02*
X40500000Y-17969164D01*
X40500000Y-17969164D02*
X40649164Y-17820000D01*
%TO.N,GPIO28*%
X40900480Y-21342020D02*
X40900000Y-21342500D01*
%TO.N,I2C_SDA*%
X40500000Y-28217500D02*
X40500000Y-31530836D01*
X40500000Y-31530836D02*
X40500000Y-33069164D01*
X39819164Y-30830000D02*
X39819164Y-30850000D01*
X39819164Y-30850000D02*
X40500000Y-31530836D01*
%TO.N,VBUS*%
X25349164Y-23900000D02*
X25349164Y-23450000D01*
X25349164Y-23450000D02*
X25849164Y-22950000D01*
%TO.N,I2C_SDA*%
X40500000Y-33069164D02*
X40389164Y-33180000D01*
%TO.N,Net-(D2-Pad1)*%
X29649164Y-20130000D02*
X29649164Y-17780000D01*
X30399164Y-22080000D02*
X29649164Y-21330000D01*
X29649164Y-21330000D02*
X29649164Y-20130000D01*
X28500000Y-20380000D02*
X29399164Y-20380000D01*
X29399164Y-20380000D02*
X29649164Y-20130000D01*
%TO.N,I2C_SCL*%
X40900000Y-29380000D02*
X40900000Y-30785006D01*
X40900000Y-30785006D02*
X42929164Y-32814170D01*
X42929164Y-32814170D02*
X42929164Y-33180000D01*
%TO.N,+3V3*%
X30399164Y-23580000D02*
X29400000Y-23580000D01*
X29400000Y-23580000D02*
X28500000Y-22680000D01*
%TO.N,Net-(C7-Pad2)*%
X49800000Y-23980000D02*
X51949164Y-26129164D01*
X51949164Y-29420000D02*
X51939164Y-29430000D01*
X51949164Y-26129164D02*
X51949164Y-29420000D01*
%TO.N,XIN*%
X51939164Y-30380000D02*
X49800000Y-28240836D01*
X49800000Y-28240836D02*
X49800000Y-27680000D01*
%TO.N,+3V3*%
X45099164Y-25920067D02*
X45400480Y-25618751D01*
X45099164Y-25930000D02*
X45099164Y-25920067D01*
X45400480Y-25618751D02*
X45400480Y-24785225D01*
X45400480Y-24785225D02*
X45605705Y-24580000D01*
X45605705Y-24580000D02*
X46137500Y-24580000D01*
X43700000Y-28217500D02*
X43700000Y-27329164D01*
X43700000Y-27329164D02*
X45099164Y-25930000D01*
%TO.N,Net-(JP1-Pad2)*%
X47429164Y-21880000D02*
X48349164Y-21880000D01*
X48349164Y-21880000D02*
X48799164Y-21430000D01*
X46668815Y-22980480D02*
X47429164Y-22220131D01*
X47429164Y-22220131D02*
X47429164Y-21880000D01*
%TO.N,GPIO25*%
X42100000Y-21342500D02*
X42099520Y-21342020D01*
%TO.N,+3V3*%
X43700000Y-21342500D02*
X43700000Y-20779164D01*
%TO.N,GND*%
X47349164Y-28190000D02*
X48139644Y-28980480D01*
X48139644Y-28980480D02*
X49400480Y-28980480D01*
X46137500Y-25780000D02*
X46680490Y-25780000D01*
X46680490Y-25780000D02*
X47349164Y-26448674D01*
X47349164Y-26448674D02*
X47349164Y-28190000D01*
%TO.N,XIN*%
X46137500Y-25380000D02*
X46845496Y-25380000D01*
X46845496Y-25380000D02*
X46985016Y-25519520D01*
X46985016Y-25519520D02*
X47188684Y-25519520D01*
X47188684Y-25519520D02*
X49349164Y-27680000D01*
X49349164Y-27680000D02*
X49800000Y-27680000D01*
%TO.N,+3V3*%
X36558794Y-25825352D02*
X37403185Y-24980961D01*
X34999164Y-25825352D02*
X35000000Y-25826188D01*
X34999164Y-25825352D02*
X36558794Y-25825352D01*
X37570000Y-24980961D02*
X37570000Y-24680000D01*
X37403185Y-24980961D02*
X37570000Y-24980961D01*
X35000000Y-25826188D02*
X35000000Y-28770000D01*
%TO.N,QSPI_SD3*%
X39262500Y-25380000D02*
X39262019Y-25380481D01*
X36100000Y-26849152D02*
X36100000Y-29105717D01*
X35165717Y-30040000D02*
X35000000Y-30040000D01*
X39262019Y-25380481D02*
X37568672Y-25380480D01*
X37568672Y-25380480D02*
X36100000Y-26849152D01*
X36100000Y-29105717D02*
X35165717Y-30040000D01*
%TO.N,QSPI_SCLK*%
X35000000Y-31310000D02*
X35165717Y-31310000D01*
X35165717Y-31310000D02*
X36499520Y-29976197D01*
X36499520Y-29976197D02*
X36499521Y-27014637D01*
X36499521Y-27014637D02*
X37734158Y-25780000D01*
X37734158Y-25780000D02*
X39262500Y-25780000D01*
%TO.N,QSPI_SD0*%
X35000000Y-32580000D02*
X35165717Y-32580000D01*
X35165717Y-32580000D02*
X36899040Y-30846677D01*
X36899040Y-30846677D02*
X36899040Y-27180124D01*
X36899040Y-27180124D02*
X37899164Y-26180000D01*
X37899164Y-26180000D02*
X39262500Y-26180000D01*
%TO.N,QSPI_SD1*%
X38199164Y-26924383D02*
X38254781Y-26980000D01*
X38254781Y-26980000D02*
X39262500Y-26980000D01*
%TO.N,+3V3*%
X39262500Y-22180000D02*
X43394295Y-22180000D01*
X43394295Y-22180000D02*
X43700480Y-21873815D01*
X48400000Y-29380000D02*
X46250000Y-29380000D01*
X49000000Y-29980000D02*
X48400000Y-29380000D01*
X43700480Y-21873815D02*
X43700480Y-21230000D01*
X43700480Y-21230000D02*
X43700000Y-21230480D01*
X43700000Y-21230480D02*
X43700000Y-21342500D01*
D36*
%TO.N,Net-(J3-Pad2)*%
X61050000Y-22540000D02*
X59740000Y-22540000D01*
X59740000Y-22540000D02*
X57634586Y-24645414D01*
D35*
%TO.N,+3V3*%
X39800000Y-29380000D02*
X39800000Y-29840000D01*
%TO.N,XOUT*%
X46137500Y-24980000D02*
X47350000Y-24980000D01*
%TO.N,Net-(C7-Pad2)*%
X49450000Y-23980000D02*
X47370000Y-23980000D01*
X47370000Y-23980000D02*
X47350000Y-23960000D01*
%TO.N,+3V3*%
X39800000Y-29840000D02*
X37960000Y-31680000D01*
X37960000Y-31680000D02*
X37960000Y-33080000D01*
%TO.N,GPIO4*%
X50767017Y-33032023D02*
X48815474Y-31080480D01*
X48815474Y-31080480D02*
X42890492Y-31080480D01*
X42890492Y-31080480D02*
X42099520Y-30289508D01*
X42099520Y-30289508D02*
X42099520Y-29045462D01*
X42099520Y-29045462D02*
X42100000Y-29044982D01*
X42100000Y-29044982D02*
X42100000Y-28217500D01*
%TO.N,GPIO3*%
X41700000Y-28217500D02*
X41700000Y-30179040D01*
X41700000Y-30179040D02*
X41699040Y-30180000D01*
X41699040Y-30180000D02*
X41699040Y-30454034D01*
X41699040Y-30454034D02*
X42725006Y-31480000D01*
X42725006Y-31480000D02*
X46674994Y-31480000D01*
X46674994Y-31480000D02*
X48227017Y-33032023D01*
%TO.N,GPIO2*%
X45407017Y-33032023D02*
X44254514Y-31879520D01*
X44254514Y-31879520D02*
X42559520Y-31879520D01*
X42559520Y-31879520D02*
X41299520Y-30619520D01*
X41299520Y-30619520D02*
X41299520Y-29330000D01*
%TO.N,I2C_SCL*%
X40900000Y-28217500D02*
X40900000Y-29380000D01*
%TO.N,Net-(JP1-Pad2)*%
X46668815Y-22980480D02*
X46000000Y-22980480D01*
%TO.N,QSPI_SD2*%
X39262500Y-26580000D02*
X39900000Y-26580000D01*
X39900000Y-26580000D02*
X40400000Y-26080000D01*
%TO.N,Net-(U1-Pad46)*%
X39262500Y-23380000D02*
X38320000Y-23380000D01*
X38320000Y-23380000D02*
X37620000Y-22680000D01*
%TO.N,+3V3*%
X39262500Y-22180000D02*
X38070000Y-22180000D01*
X38070000Y-22180000D02*
X37570000Y-21680000D01*
%TO.N,QSPI_SS*%
X41000000Y-27080000D02*
X40700000Y-27380000D01*
X40700000Y-27380000D02*
X39262500Y-27380000D01*
%TO.N,+3V3*%
X39262500Y-24580000D02*
X37870000Y-24580000D01*
%TO.N,GPIO2*%
X41300000Y-28217500D02*
X41300000Y-29374994D01*
%TO.N,Net-(R3-Pad1)*%
X39262500Y-23780000D02*
X37720000Y-23780000D01*
%TO.N,+1V1*%
X40300000Y-22980000D02*
X40300000Y-24480000D01*
X40300000Y-24480000D02*
X39800000Y-24980000D01*
X39800000Y-24980000D02*
X39262500Y-24980000D01*
X45000000Y-22980000D02*
X45000000Y-23580000D01*
X45000000Y-23580000D02*
X45600000Y-24180000D01*
X44900480Y-22880480D02*
X40399520Y-22880480D01*
X45600000Y-24180000D02*
X46137500Y-24180000D01*
X45000000Y-22980000D02*
X44900480Y-22880480D01*
X40399520Y-22880480D02*
X40300000Y-22980000D01*
%TO.N,+3V3*%
X40100000Y-28217500D02*
X40100000Y-29380000D01*
X39262500Y-24580000D02*
X39262500Y-24180000D01*
%TO.N,+1V1*%
X39262500Y-22980000D02*
X40300000Y-22980000D01*
%TO.N,+3V3*%
X39681250Y-21761250D02*
X39262500Y-22180000D01*
X40100000Y-21342500D02*
X39681250Y-21761250D01*
X39262500Y-22580000D02*
X39262500Y-22180000D01*
%TD*%
%TA.AperFunction,Conductor*%
%TO.N,GND*%
G36*
X37672124Y-16588716D02*
G01*
X37718617Y-16642372D01*
X37728721Y-16712646D01*
X37699227Y-16777226D01*
X37647614Y-16812926D01*
X37631627Y-16818824D01*
X37457174Y-16922612D01*
X37452834Y-16926418D01*
X37452830Y-16926421D01*
X37361140Y-17006832D01*
X37304556Y-17056455D01*
X37178884Y-17215869D01*
X37176195Y-17220980D01*
X37176193Y-17220983D01*
X37163237Y-17245609D01*
X37084367Y-17395515D01*
X37024171Y-17589378D01*
X37000312Y-17790964D01*
X37013588Y-17993522D01*
X37015009Y-17999118D01*
X37015010Y-17999123D01*
X37034228Y-18074792D01*
X37063556Y-18190269D01*
X37065971Y-18195507D01*
X37065973Y-18195512D01*
X37146123Y-18369371D01*
X37148541Y-18374616D01*
X37174350Y-18411135D01*
X37222525Y-18479301D01*
X37265697Y-18540389D01*
X37411102Y-18682035D01*
X37579884Y-18794812D01*
X37585187Y-18797090D01*
X37585190Y-18797092D01*
X37697375Y-18845290D01*
X37766392Y-18874942D01*
X37823035Y-18887759D01*
X37958743Y-18918467D01*
X37958748Y-18918468D01*
X37964380Y-18919742D01*
X37970151Y-18919969D01*
X37970153Y-18919969D01*
X38029920Y-18922317D01*
X38167217Y-18927712D01*
X38267663Y-18913148D01*
X38362395Y-18899413D01*
X38362400Y-18899412D01*
X38368109Y-18898584D01*
X38373573Y-18896729D01*
X38373578Y-18896728D01*
X38554857Y-18835192D01*
X38554862Y-18835190D01*
X38560329Y-18833334D01*
X38568090Y-18828988D01*
X38665365Y-18774511D01*
X38737440Y-18734147D01*
X38755522Y-18719109D01*
X38889077Y-18608031D01*
X38893509Y-18604345D01*
X38988924Y-18489622D01*
X39019617Y-18452718D01*
X39019619Y-18452715D01*
X39023311Y-18448276D01*
X39101888Y-18307967D01*
X39119674Y-18276208D01*
X39119675Y-18276206D01*
X39122498Y-18271165D01*
X39124354Y-18265698D01*
X39124356Y-18265693D01*
X39185892Y-18084414D01*
X39185893Y-18084409D01*
X39187748Y-18078945D01*
X39188576Y-18073236D01*
X39188577Y-18073231D01*
X39216343Y-17881727D01*
X39216876Y-17878053D01*
X39218396Y-17820000D01*
X39199822Y-17617859D01*
X39194092Y-17597541D01*
X39146289Y-17428046D01*
X39146288Y-17428044D01*
X39144721Y-17422487D01*
X39134142Y-17401033D01*
X39057495Y-17245609D01*
X39054940Y-17240428D01*
X38933484Y-17077779D01*
X38784422Y-16939987D01*
X38779539Y-16936906D01*
X38779535Y-16936903D01*
X38617628Y-16834748D01*
X38612745Y-16831667D01*
X38562806Y-16811743D01*
X38506948Y-16767923D01*
X38483648Y-16700859D01*
X38500304Y-16631844D01*
X38551629Y-16582789D01*
X38609498Y-16568714D01*
X40144003Y-16568714D01*
X40212124Y-16588716D01*
X40258617Y-16642372D01*
X40268721Y-16712646D01*
X40239227Y-16777226D01*
X40187614Y-16812926D01*
X40171627Y-16818824D01*
X39997174Y-16922612D01*
X39992834Y-16926418D01*
X39992830Y-16926421D01*
X39901140Y-17006832D01*
X39844556Y-17056455D01*
X39718884Y-17215869D01*
X39716195Y-17220980D01*
X39716193Y-17220983D01*
X39703237Y-17245609D01*
X39624367Y-17395515D01*
X39564171Y-17589378D01*
X39540312Y-17790964D01*
X39553588Y-17993522D01*
X39555009Y-17999118D01*
X39555010Y-17999123D01*
X39574228Y-18074792D01*
X39603556Y-18190269D01*
X39605971Y-18195507D01*
X39605973Y-18195512D01*
X39686123Y-18369371D01*
X39688541Y-18374616D01*
X39714350Y-18411135D01*
X39762525Y-18479301D01*
X39805697Y-18540389D01*
X39951102Y-18682035D01*
X40023565Y-18730453D01*
X40089502Y-18774511D01*
X40135030Y-18828988D01*
X40145500Y-18879276D01*
X40145500Y-20524500D01*
X40125498Y-20592621D01*
X40071842Y-20639114D01*
X40019500Y-20650500D01*
X40004762Y-20650500D01*
X40001074Y-20650939D01*
X40001070Y-20650939D01*
X39987597Y-20652542D01*
X39987595Y-20652542D01*
X39978211Y-20653659D01*
X39969571Y-20657497D01*
X39969570Y-20657497D01*
X39900063Y-20688371D01*
X39874542Y-20699707D01*
X39866323Y-20707940D01*
X39866322Y-20707941D01*
X39802618Y-20771756D01*
X39802617Y-20771758D01*
X39794401Y-20779988D01*
X39748534Y-20883737D01*
X39745500Y-20909762D01*
X39745500Y-21143471D01*
X39725498Y-21211592D01*
X39708595Y-21232566D01*
X39470600Y-21470561D01*
X39294741Y-21646421D01*
X39152567Y-21788595D01*
X39090255Y-21822621D01*
X39063472Y-21825500D01*
X38384823Y-21825500D01*
X38316702Y-21805498D01*
X38270209Y-21751842D01*
X38259872Y-21693814D01*
X38259162Y-21693807D01*
X38259201Y-21690048D01*
X38259307Y-21680000D01*
X38240276Y-21522733D01*
X38184280Y-21374546D01*
X38163106Y-21343737D01*
X38098855Y-21250251D01*
X38098854Y-21250249D01*
X38094553Y-21243992D01*
X37976275Y-21138611D01*
X37968889Y-21134700D01*
X37842988Y-21068039D01*
X37842989Y-21068039D01*
X37836274Y-21064484D01*
X37682633Y-21025892D01*
X37675034Y-21025852D01*
X37675033Y-21025852D01*
X37609181Y-21025507D01*
X37524221Y-21025062D01*
X37516841Y-21026834D01*
X37516839Y-21026834D01*
X37377563Y-21060271D01*
X37377560Y-21060272D01*
X37370184Y-21062043D01*
X37229414Y-21134700D01*
X37110039Y-21238838D01*
X37018950Y-21368444D01*
X36998877Y-21419929D01*
X36976008Y-21478586D01*
X36961406Y-21516037D01*
X36960414Y-21523570D01*
X36960414Y-21523571D01*
X36942455Y-21659987D01*
X36940729Y-21673096D01*
X36943644Y-21699500D01*
X36955347Y-21805498D01*
X36958113Y-21830553D01*
X36960723Y-21837686D01*
X36960724Y-21837689D01*
X37003670Y-21955047D01*
X37008296Y-22025892D01*
X36973886Y-22087993D01*
X36911364Y-22121631D01*
X36857052Y-22118746D01*
X36856862Y-22119946D01*
X36765653Y-22105500D01*
X36600034Y-22105500D01*
X36434348Y-22105501D01*
X36429455Y-22106276D01*
X36429454Y-22106276D01*
X36352936Y-22118394D01*
X36352934Y-22118395D01*
X36343138Y-22119946D01*
X36334301Y-22124449D01*
X36334300Y-22124449D01*
X36287629Y-22148229D01*
X36233204Y-22175960D01*
X36145960Y-22263204D01*
X36089946Y-22373138D01*
X36075500Y-22464347D01*
X36075501Y-22581568D01*
X36075501Y-22650970D01*
X36055499Y-22719091D01*
X36038596Y-22740066D01*
X34494217Y-24284445D01*
X34431905Y-24318471D01*
X34405122Y-24321350D01*
X31107076Y-24321350D01*
X31038955Y-24301348D01*
X30992462Y-24247692D01*
X30982358Y-24177418D01*
X31006250Y-24119785D01*
X31043696Y-24069821D01*
X31043698Y-24069818D01*
X31049081Y-24062635D01*
X31052232Y-24054229D01*
X31094522Y-23941419D01*
X31094522Y-23941418D01*
X31097294Y-23934024D01*
X31099207Y-23916420D01*
X31103295Y-23878786D01*
X31103295Y-23878785D01*
X31103664Y-23875389D01*
X31103663Y-23284612D01*
X31102821Y-23276857D01*
X31098148Y-23233834D01*
X31098147Y-23233830D01*
X31097294Y-23225976D01*
X31056831Y-23118039D01*
X31052232Y-23105770D01*
X31052231Y-23105769D01*
X31049081Y-23097365D01*
X31043701Y-23090186D01*
X31043699Y-23090183D01*
X30972087Y-22994633D01*
X30966708Y-22987456D01*
X30959531Y-22982077D01*
X30959528Y-22982074D01*
X30891148Y-22930826D01*
X30848633Y-22873967D01*
X30843607Y-22803148D01*
X30877667Y-22740855D01*
X30891148Y-22729174D01*
X30959528Y-22677926D01*
X30959531Y-22677923D01*
X30966708Y-22672544D01*
X30982125Y-22651974D01*
X31043699Y-22569817D01*
X31043701Y-22569814D01*
X31049081Y-22562635D01*
X31055377Y-22545841D01*
X31094522Y-22441419D01*
X31094522Y-22441418D01*
X31097294Y-22434024D01*
X31103664Y-22375389D01*
X31103663Y-21784612D01*
X31102645Y-21775238D01*
X31098148Y-21733834D01*
X31098147Y-21733830D01*
X31097294Y-21725976D01*
X31049081Y-21597365D01*
X31043701Y-21590186D01*
X31043699Y-21590183D01*
X30972087Y-21494633D01*
X30966708Y-21487456D01*
X30944171Y-21470565D01*
X30863981Y-21410465D01*
X30863978Y-21410463D01*
X30856799Y-21405083D01*
X30805782Y-21385958D01*
X30735583Y-21359642D01*
X30735582Y-21359642D01*
X30728188Y-21356870D01*
X30720338Y-21356017D01*
X30720337Y-21356017D01*
X30672950Y-21350869D01*
X30672949Y-21350869D01*
X30669553Y-21350500D01*
X30638926Y-21350500D01*
X30223193Y-21350501D01*
X30155072Y-21330499D01*
X30134098Y-21313596D01*
X30040569Y-21220067D01*
X30006543Y-21157755D01*
X30003664Y-21130972D01*
X30003664Y-21109964D01*
X30023666Y-21041843D01*
X30077322Y-20995350D01*
X30117311Y-20984571D01*
X30118042Y-20984499D01*
X30124230Y-20984499D01*
X30144336Y-20980500D01*
X30186290Y-20972156D01*
X30186292Y-20972155D01*
X30198465Y-20969734D01*
X30208785Y-20962839D01*
X30208786Y-20962838D01*
X30272332Y-20920377D01*
X30282648Y-20913484D01*
X30338898Y-20829301D01*
X30353664Y-20755067D01*
X30353663Y-19504934D01*
X30353663Y-19504933D01*
X32244664Y-19504933D01*
X32244665Y-20755066D01*
X32251738Y-20790628D01*
X32254052Y-20802260D01*
X32259430Y-20829301D01*
X32266325Y-20839620D01*
X32266326Y-20839622D01*
X32287443Y-20871225D01*
X32315680Y-20913484D01*
X32399863Y-20969734D01*
X32474097Y-20984500D01*
X32949087Y-20984500D01*
X33424230Y-20984499D01*
X33459982Y-20977388D01*
X33486290Y-20972156D01*
X33486292Y-20972155D01*
X33498465Y-20969734D01*
X33508785Y-20962839D01*
X33508786Y-20962838D01*
X33572332Y-20920377D01*
X33582648Y-20913484D01*
X33638898Y-20829301D01*
X33653664Y-20755067D01*
X33653664Y-20185486D01*
X33654921Y-20167735D01*
X33656817Y-20154413D01*
X33658326Y-20143807D01*
X33658471Y-20130000D01*
X33654576Y-20097816D01*
X33653663Y-20082678D01*
X33653663Y-19504934D01*
X33638898Y-19430699D01*
X33582648Y-19346516D01*
X33498465Y-19290266D01*
X33424231Y-19275500D01*
X32949241Y-19275500D01*
X32474098Y-19275501D01*
X32438346Y-19282612D01*
X32412038Y-19287844D01*
X32412036Y-19287845D01*
X32399863Y-19290266D01*
X32389543Y-19297161D01*
X32389542Y-19297162D01*
X32384385Y-19300608D01*
X32315680Y-19346516D01*
X32259430Y-19430699D01*
X32244664Y-19504933D01*
X30353663Y-19504933D01*
X30338898Y-19430699D01*
X30282648Y-19346516D01*
X30198465Y-19290266D01*
X30150270Y-19280679D01*
X30130300Y-19276707D01*
X30130298Y-19276707D01*
X30124231Y-19275500D01*
X30118044Y-19275500D01*
X30117313Y-19275428D01*
X30051481Y-19248845D01*
X30010472Y-19190891D01*
X30003664Y-19150035D01*
X30003664Y-18759964D01*
X30023666Y-18691843D01*
X30077322Y-18645350D01*
X30117311Y-18634571D01*
X30118042Y-18634499D01*
X30124230Y-18634499D01*
X30141187Y-18631126D01*
X30186290Y-18622156D01*
X30186292Y-18622155D01*
X30198465Y-18619734D01*
X30208785Y-18612839D01*
X30208786Y-18612838D01*
X30272332Y-18570377D01*
X30282648Y-18563484D01*
X30338898Y-18479301D01*
X30353664Y-18405067D01*
X30353663Y-17154934D01*
X30353663Y-17154933D01*
X32244664Y-17154933D01*
X32244665Y-18405066D01*
X32259430Y-18479301D01*
X32266325Y-18489620D01*
X32266326Y-18489622D01*
X32297094Y-18535669D01*
X32315680Y-18563484D01*
X32325996Y-18570377D01*
X32383193Y-18608595D01*
X32399863Y-18619734D01*
X32474097Y-18634500D01*
X32949087Y-18634500D01*
X33424230Y-18634499D01*
X33459982Y-18627388D01*
X33486290Y-18622156D01*
X33486292Y-18622155D01*
X33498465Y-18619734D01*
X33508785Y-18612839D01*
X33508786Y-18612838D01*
X33572332Y-18570377D01*
X33582648Y-18563484D01*
X33638898Y-18479301D01*
X33653664Y-18405067D01*
X33653663Y-17154934D01*
X33638898Y-17080699D01*
X33625730Y-17060991D01*
X33589541Y-17006832D01*
X33582648Y-16996516D01*
X33498465Y-16940266D01*
X33424231Y-16925500D01*
X32949241Y-16925500D01*
X32474098Y-16925501D01*
X32438346Y-16932612D01*
X32412038Y-16937844D01*
X32412036Y-16937845D01*
X32399863Y-16940266D01*
X32389543Y-16947161D01*
X32389542Y-16947162D01*
X32329149Y-16987516D01*
X32315680Y-16996516D01*
X32259430Y-17080699D01*
X32244664Y-17154933D01*
X30353663Y-17154933D01*
X30338898Y-17080699D01*
X30325730Y-17060991D01*
X30289541Y-17006832D01*
X30282648Y-16996516D01*
X30198465Y-16940266D01*
X30124231Y-16925500D01*
X29649241Y-16925500D01*
X29174098Y-16925501D01*
X29138346Y-16932612D01*
X29112038Y-16937844D01*
X29112036Y-16937845D01*
X29099863Y-16940266D01*
X29089543Y-16947161D01*
X29089542Y-16947162D01*
X29029149Y-16987516D01*
X29015680Y-16996516D01*
X28959430Y-17080699D01*
X28944664Y-17154933D01*
X28944665Y-18405066D01*
X28959430Y-18479301D01*
X28966325Y-18489620D01*
X28966326Y-18489622D01*
X28997094Y-18535669D01*
X29015680Y-18563484D01*
X29025996Y-18570377D01*
X29083193Y-18608595D01*
X29099863Y-18619734D01*
X29148058Y-18629321D01*
X29168028Y-18633293D01*
X29168030Y-18633293D01*
X29174097Y-18634500D01*
X29180284Y-18634500D01*
X29181015Y-18634572D01*
X29246847Y-18661155D01*
X29287856Y-18719109D01*
X29294664Y-18759965D01*
X29294664Y-19150036D01*
X29274662Y-19218157D01*
X29221006Y-19264650D01*
X29181017Y-19275429D01*
X29180286Y-19275501D01*
X29174098Y-19275501D01*
X29157141Y-19278874D01*
X29112038Y-19287844D01*
X29112036Y-19287845D01*
X29099863Y-19290266D01*
X29089543Y-19297161D01*
X29089542Y-19297162D01*
X29084385Y-19300608D01*
X29015680Y-19346516D01*
X28959430Y-19430699D01*
X28944664Y-19504933D01*
X28944664Y-19665536D01*
X28924662Y-19733657D01*
X28871006Y-19780150D01*
X28800732Y-19790254D01*
X28759709Y-19776892D01*
X28736274Y-19764484D01*
X28582633Y-19725892D01*
X28575034Y-19725852D01*
X28575033Y-19725852D01*
X28509181Y-19725507D01*
X28424221Y-19725062D01*
X28416841Y-19726834D01*
X28416839Y-19726834D01*
X28277563Y-19760271D01*
X28277560Y-19760272D01*
X28270184Y-19762043D01*
X28129414Y-19834700D01*
X28010039Y-19938838D01*
X27918950Y-20068444D01*
X27901294Y-20113730D01*
X27865096Y-20206573D01*
X27861406Y-20216037D01*
X27860414Y-20223570D01*
X27860414Y-20223571D01*
X27842183Y-20362052D01*
X27840729Y-20373096D01*
X27841563Y-20380646D01*
X27857116Y-20521521D01*
X27858113Y-20530553D01*
X27860723Y-20537684D01*
X27860723Y-20537686D01*
X27904519Y-20657364D01*
X27912553Y-20679319D01*
X27916789Y-20685622D01*
X27916789Y-20685623D01*
X27987350Y-20790628D01*
X28000908Y-20810805D01*
X28006527Y-20815918D01*
X28006528Y-20815919D01*
X28095340Y-20896731D01*
X28118076Y-20917419D01*
X28257293Y-20993008D01*
X28410522Y-21033207D01*
X28494477Y-21034526D01*
X28561319Y-21035576D01*
X28561322Y-21035576D01*
X28568916Y-21035695D01*
X28723332Y-21000329D01*
X28797875Y-20962838D01*
X28858072Y-20932563D01*
X28858075Y-20932561D01*
X28864855Y-20929151D01*
X28870627Y-20924221D01*
X28876959Y-20920014D01*
X28878035Y-20921634D01*
X28933615Y-20896731D01*
X29003815Y-20907338D01*
X29020655Y-20916809D01*
X29044233Y-20932563D01*
X29099863Y-20969734D01*
X29148058Y-20979321D01*
X29168028Y-20983293D01*
X29168030Y-20983293D01*
X29174097Y-20984500D01*
X29180284Y-20984500D01*
X29181015Y-20984572D01*
X29246847Y-21011155D01*
X29287856Y-21069109D01*
X29294664Y-21109965D01*
X29294664Y-21278743D01*
X29292558Y-21298537D01*
X29292353Y-21302890D01*
X29290161Y-21313070D01*
X29293184Y-21338611D01*
X29293791Y-21343737D01*
X29294106Y-21349083D01*
X29294236Y-21349072D01*
X29294664Y-21354252D01*
X29294664Y-21359451D01*
X29295517Y-21364575D01*
X29295518Y-21364588D01*
X29297591Y-21377041D01*
X29298428Y-21382916D01*
X29304033Y-21430270D01*
X29307734Y-21437978D01*
X29309139Y-21446417D01*
X29331793Y-21488401D01*
X29334474Y-21493664D01*
X29355119Y-21536658D01*
X29358475Y-21540650D01*
X29360422Y-21542597D01*
X29361912Y-21544222D01*
X29362145Y-21544654D01*
X29362109Y-21544687D01*
X29362248Y-21544845D01*
X29365181Y-21550280D01*
X29372828Y-21557349D01*
X29402045Y-21584357D01*
X29405611Y-21587786D01*
X29657759Y-21839934D01*
X29691785Y-21902246D01*
X29694664Y-21929029D01*
X29694665Y-22151247D01*
X29694665Y-22375388D01*
X29695034Y-22378782D01*
X29695034Y-22378788D01*
X29699552Y-22420377D01*
X29701034Y-22434024D01*
X29729151Y-22509028D01*
X29742869Y-22545620D01*
X29749247Y-22562635D01*
X29754627Y-22569814D01*
X29754629Y-22569817D01*
X29816203Y-22651974D01*
X29831620Y-22672544D01*
X29838797Y-22677923D01*
X29838800Y-22677926D01*
X29907180Y-22729174D01*
X29949695Y-22786033D01*
X29954721Y-22856852D01*
X29920661Y-22919145D01*
X29907180Y-22930826D01*
X29838800Y-22982074D01*
X29838797Y-22982077D01*
X29831620Y-22987456D01*
X29826241Y-22994633D01*
X29754629Y-23090183D01*
X29754627Y-23090186D01*
X29749247Y-23097365D01*
X29742440Y-23115524D01*
X29731866Y-23143729D01*
X29689225Y-23200494D01*
X29622663Y-23225194D01*
X29613884Y-23225500D01*
X29599029Y-23225500D01*
X29530908Y-23205498D01*
X29509934Y-23188595D01*
X29185738Y-22864399D01*
X29151712Y-22802087D01*
X29150090Y-22757551D01*
X29151223Y-22749595D01*
X29159162Y-22693807D01*
X29159307Y-22680000D01*
X29140276Y-22522733D01*
X29084280Y-22374546D01*
X29046861Y-22320101D01*
X28998855Y-22250251D01*
X28998854Y-22250249D01*
X28994553Y-22243992D01*
X28876275Y-22138611D01*
X28868889Y-22134700D01*
X28821270Y-22109487D01*
X28736274Y-22064484D01*
X28582633Y-22025892D01*
X28575034Y-22025852D01*
X28575033Y-22025852D01*
X28509181Y-22025507D01*
X28424221Y-22025062D01*
X28416841Y-22026834D01*
X28416839Y-22026834D01*
X28277563Y-22060271D01*
X28277560Y-22060272D01*
X28270184Y-22062043D01*
X28129414Y-22134700D01*
X28010039Y-22238838D01*
X27918950Y-22368444D01*
X27893118Y-22434700D01*
X27864173Y-22508941D01*
X27861406Y-22516037D01*
X27860414Y-22523570D01*
X27860414Y-22523571D01*
X27841747Y-22665367D01*
X27840729Y-22673096D01*
X27845807Y-22719091D01*
X27856935Y-22819881D01*
X27858113Y-22830553D01*
X27860723Y-22837684D01*
X27860723Y-22837686D01*
X27903337Y-22954134D01*
X27912553Y-22979319D01*
X27916789Y-22985622D01*
X27916789Y-22985623D01*
X27991877Y-23097365D01*
X28000908Y-23110805D01*
X28006527Y-23115918D01*
X28006528Y-23115919D01*
X28112460Y-23212309D01*
X28118076Y-23217419D01*
X28257293Y-23293008D01*
X28410522Y-23333207D01*
X28494477Y-23334526D01*
X28561319Y-23335576D01*
X28561322Y-23335576D01*
X28568916Y-23335695D01*
X28576319Y-23333999D01*
X28583878Y-23333205D01*
X28584189Y-23336166D01*
X28641337Y-23339613D01*
X28687720Y-23369058D01*
X29113082Y-23794420D01*
X29125587Y-23809902D01*
X29128523Y-23813129D01*
X29134175Y-23821882D01*
X29158438Y-23841009D01*
X29162433Y-23844559D01*
X29162517Y-23844460D01*
X29166480Y-23847818D01*
X29170156Y-23851494D01*
X29174385Y-23854517D01*
X29174386Y-23854517D01*
X29184652Y-23861854D01*
X29189395Y-23865415D01*
X29218675Y-23888497D01*
X29218679Y-23888499D01*
X29226857Y-23894946D01*
X29234925Y-23897779D01*
X29241885Y-23902753D01*
X29251863Y-23905737D01*
X29287586Y-23916420D01*
X29293235Y-23918256D01*
X29338208Y-23934050D01*
X29343404Y-23934500D01*
X29346109Y-23934500D01*
X29348365Y-23934597D01*
X29348841Y-23934740D01*
X29348839Y-23934786D01*
X29349038Y-23934799D01*
X29354955Y-23936568D01*
X29405124Y-23934597D01*
X29410070Y-23934500D01*
X29613884Y-23934500D01*
X29682005Y-23954502D01*
X29728498Y-24008158D01*
X29731866Y-24016271D01*
X29749247Y-24062635D01*
X29754630Y-24069818D01*
X29754632Y-24069821D01*
X29792078Y-24119785D01*
X29816926Y-24186291D01*
X29801873Y-24255674D01*
X29751699Y-24305904D01*
X29691252Y-24321350D01*
X26727666Y-24321350D01*
X26659545Y-24301348D01*
X26613052Y-24247692D01*
X26602273Y-24182998D01*
X26602456Y-24181140D01*
X26603664Y-24175067D01*
X26603663Y-23624934D01*
X26594779Y-23580266D01*
X26591320Y-23562874D01*
X26591319Y-23562872D01*
X26588898Y-23550699D01*
X26555866Y-23501263D01*
X26539541Y-23476832D01*
X26532648Y-23466516D01*
X26470677Y-23425108D01*
X26425150Y-23370632D01*
X26416302Y-23300189D01*
X26427443Y-23267835D01*
X26426919Y-23267624D01*
X26440174Y-23234652D01*
X26486006Y-23120641D01*
X26498706Y-23031405D01*
X26507745Y-22967891D01*
X26507745Y-22967888D01*
X26508326Y-22963807D01*
X26508419Y-22954934D01*
X26508428Y-22954134D01*
X26508428Y-22954128D01*
X26508471Y-22950000D01*
X26489440Y-22792733D01*
X26433444Y-22644546D01*
X26393390Y-22586267D01*
X26348019Y-22520251D01*
X26348018Y-22520249D01*
X26343717Y-22513992D01*
X26225439Y-22408611D01*
X26218053Y-22404700D01*
X26092152Y-22338039D01*
X26092153Y-22338039D01*
X26085438Y-22334484D01*
X25931797Y-22295892D01*
X25924198Y-22295852D01*
X25924197Y-22295852D01*
X25858345Y-22295507D01*
X25773385Y-22295062D01*
X25766005Y-22296834D01*
X25766003Y-22296834D01*
X25626727Y-22330271D01*
X25626724Y-22330272D01*
X25619348Y-22332043D01*
X25478578Y-22404700D01*
X25359203Y-22508838D01*
X25268114Y-22638444D01*
X25258544Y-22662991D01*
X25214021Y-22777186D01*
X25210570Y-22786037D01*
X25209578Y-22793570D01*
X25209578Y-22793571D01*
X25196505Y-22892874D01*
X25189893Y-22943096D01*
X25193105Y-22972185D01*
X25199642Y-23031405D01*
X25187236Y-23101309D01*
X25163498Y-23134326D01*
X25134740Y-23163084D01*
X25119267Y-23175581D01*
X25116031Y-23178526D01*
X25107282Y-23184175D01*
X25088155Y-23208438D01*
X25084605Y-23212433D01*
X25084704Y-23212517D01*
X25081346Y-23216480D01*
X25077670Y-23220156D01*
X25074647Y-23224385D01*
X25074647Y-23224386D01*
X25067310Y-23234652D01*
X25063749Y-23239395D01*
X25040667Y-23268675D01*
X25040665Y-23268679D01*
X25034218Y-23276857D01*
X25031385Y-23284925D01*
X25026411Y-23291885D01*
X25023427Y-23301864D01*
X25022309Y-23305601D01*
X25019410Y-23310063D01*
X25018845Y-23311216D01*
X25018705Y-23311148D01*
X24983628Y-23365135D01*
X24918901Y-23394306D01*
X24901591Y-23395501D01*
X24324098Y-23395501D01*
X24291247Y-23402035D01*
X24262038Y-23407844D01*
X24262036Y-23407845D01*
X24249863Y-23410266D01*
X24239543Y-23417161D01*
X24239542Y-23417162D01*
X24189720Y-23450453D01*
X24165680Y-23466516D01*
X24109430Y-23550699D01*
X24094664Y-23624933D01*
X24094665Y-24175066D01*
X24109430Y-24249301D01*
X24113461Y-24255333D01*
X24120668Y-24322373D01*
X24114640Y-24342902D01*
X24109430Y-24350699D01*
X24094664Y-24424933D01*
X24094665Y-24975066D01*
X24109430Y-25049301D01*
X24113461Y-25055333D01*
X24120668Y-25122373D01*
X24114640Y-25142902D01*
X24109430Y-25150699D01*
X24094664Y-25224933D01*
X24094665Y-25775066D01*
X24109430Y-25849301D01*
X24113461Y-25855333D01*
X24120668Y-25922373D01*
X24114640Y-25942902D01*
X24109430Y-25950699D01*
X24094664Y-26024933D01*
X24094665Y-26575066D01*
X24101776Y-26610818D01*
X24106830Y-26636227D01*
X24109430Y-26649301D01*
X24116325Y-26659620D01*
X24116326Y-26659622D01*
X24150274Y-26710427D01*
X24165680Y-26733484D01*
X24175996Y-26740377D01*
X24235390Y-26780063D01*
X24249863Y-26789734D01*
X24324097Y-26804500D01*
X25348998Y-26804500D01*
X26374230Y-26804499D01*
X26410968Y-26797192D01*
X26436290Y-26792156D01*
X26436292Y-26792155D01*
X26448465Y-26789734D01*
X26458785Y-26782839D01*
X26458786Y-26782838D01*
X26522332Y-26740377D01*
X26532648Y-26733484D01*
X26588898Y-26649301D01*
X26603664Y-26575067D01*
X26603663Y-26024934D01*
X26599714Y-26005079D01*
X26606043Y-25934365D01*
X26649598Y-25878299D01*
X26723293Y-25854500D01*
X26797908Y-25854500D01*
X26817702Y-25856606D01*
X26822055Y-25856811D01*
X26832235Y-25859003D01*
X26862905Y-25855373D01*
X26868248Y-25855058D01*
X26868237Y-25854928D01*
X26873417Y-25854500D01*
X26878616Y-25854500D01*
X26883740Y-25853647D01*
X26883753Y-25853646D01*
X26896206Y-25851573D01*
X26902081Y-25850736D01*
X26939094Y-25846355D01*
X26949435Y-25845131D01*
X26957143Y-25841430D01*
X26965582Y-25840025D01*
X27007566Y-25817371D01*
X27012829Y-25814690D01*
X27022596Y-25810000D01*
X27055823Y-25794045D01*
X27059815Y-25790689D01*
X27061762Y-25788742D01*
X27063387Y-25787252D01*
X27063819Y-25787019D01*
X27063852Y-25787055D01*
X27064010Y-25786916D01*
X27069445Y-25783983D01*
X27079845Y-25772733D01*
X27103522Y-25747119D01*
X27106951Y-25743553D01*
X27183715Y-25666789D01*
X27246027Y-25632763D01*
X27316842Y-25637828D01*
X27373678Y-25680375D01*
X27398489Y-25746895D01*
X27396389Y-25780463D01*
X27390514Y-25810000D01*
X27390514Y-25827566D01*
X27370512Y-25895687D01*
X27335602Y-25931506D01*
X27329414Y-25934700D01*
X27210039Y-26038838D01*
X27118950Y-26168444D01*
X27093853Y-26232815D01*
X27070836Y-26291851D01*
X27061406Y-26316037D01*
X27060414Y-26323570D01*
X27060414Y-26323571D01*
X27041863Y-26464484D01*
X27040729Y-26473096D01*
X27043315Y-26496516D01*
X27056019Y-26611585D01*
X27058113Y-26630553D01*
X27060723Y-26637684D01*
X27060723Y-26637686D01*
X27098009Y-26739574D01*
X27112553Y-26779319D01*
X27116789Y-26785622D01*
X27116789Y-26785623D01*
X27166246Y-26859222D01*
X27200908Y-26910805D01*
X27206527Y-26915918D01*
X27206528Y-26915919D01*
X27239795Y-26946189D01*
X27318076Y-27017419D01*
X27324749Y-27021042D01*
X27330943Y-27025444D01*
X27330188Y-27026506D01*
X27374959Y-27071066D01*
X27390514Y-27131712D01*
X27390514Y-27310000D01*
X27410266Y-27409301D01*
X27466516Y-27493484D01*
X27476832Y-27500377D01*
X27537320Y-27540794D01*
X27550699Y-27549734D01*
X27650000Y-27569486D01*
X28800000Y-27569486D01*
X28823612Y-27567173D01*
X28841123Y-27565458D01*
X28841126Y-27565457D01*
X28850357Y-27564553D01*
X28943937Y-27525905D01*
X29015604Y-27454388D01*
X29054447Y-27360889D01*
X29054553Y-27259643D01*
X29015905Y-27166063D01*
X29012342Y-27160718D01*
X28658458Y-26629892D01*
X28637314Y-26562117D01*
X28658458Y-26490108D01*
X29014195Y-25956502D01*
X29015905Y-25953937D01*
X29023509Y-25939694D01*
X29035366Y-25917484D01*
X29035367Y-25917481D01*
X29039734Y-25909301D01*
X29046219Y-25876701D01*
X29054090Y-25837128D01*
X29059486Y-25810000D01*
X29039734Y-25710699D01*
X29016778Y-25676343D01*
X28995563Y-25608590D01*
X29014346Y-25540123D01*
X29067163Y-25492680D01*
X29121543Y-25480341D01*
X34246794Y-25480341D01*
X34314915Y-25500343D01*
X34361408Y-25553999D01*
X34371512Y-25624273D01*
X34364189Y-25652106D01*
X34360570Y-25661389D01*
X34359578Y-25668922D01*
X34359578Y-25668923D01*
X34341804Y-25803934D01*
X34339893Y-25818448D01*
X34346393Y-25877324D01*
X34356423Y-25968168D01*
X34357277Y-25975905D01*
X34359887Y-25983036D01*
X34359887Y-25983038D01*
X34407932Y-26114327D01*
X34411717Y-26124671D01*
X34415953Y-26130974D01*
X34415953Y-26130975D01*
X34480053Y-26226365D01*
X34500072Y-26256157D01*
X34505691Y-26261270D01*
X34505692Y-26261271D01*
X34604299Y-26350996D01*
X34641222Y-26411637D01*
X34645500Y-26444190D01*
X34645500Y-28089500D01*
X34625498Y-28157621D01*
X34571842Y-28204114D01*
X34519500Y-28215500D01*
X34318166Y-28215500D01*
X34223445Y-28230502D01*
X34109277Y-28288674D01*
X34018674Y-28379277D01*
X33960502Y-28493445D01*
X33945500Y-28588166D01*
X33945500Y-28951834D01*
X33960502Y-29046555D01*
X34018674Y-29160723D01*
X34109277Y-29251326D01*
X34184687Y-29289750D01*
X34190542Y-29292733D01*
X34242157Y-29341482D01*
X34259223Y-29410397D01*
X34236322Y-29477598D01*
X34190542Y-29517267D01*
X34109277Y-29558674D01*
X34018674Y-29649277D01*
X33960502Y-29763445D01*
X33945500Y-29858166D01*
X33945500Y-30221834D01*
X33960502Y-30316555D01*
X34018674Y-30430723D01*
X34109277Y-30521326D01*
X34184687Y-30559750D01*
X34190542Y-30562733D01*
X34242157Y-30611482D01*
X34259223Y-30680397D01*
X34236322Y-30747598D01*
X34190542Y-30787267D01*
X34109277Y-30828674D01*
X34018674Y-30919277D01*
X33960502Y-31033445D01*
X33945500Y-31128166D01*
X33945500Y-31491834D01*
X33960502Y-31586555D01*
X34018674Y-31700723D01*
X34109277Y-31791326D01*
X34147709Y-31810908D01*
X34190542Y-31832733D01*
X34242157Y-31881482D01*
X34259223Y-31950397D01*
X34236322Y-32017598D01*
X34190542Y-32057267D01*
X34109277Y-32098674D01*
X34018674Y-32189277D01*
X33960502Y-32303445D01*
X33945500Y-32398166D01*
X33945500Y-32761834D01*
X33960502Y-32856555D01*
X34018674Y-32970723D01*
X34109277Y-33061326D01*
X34223445Y-33119498D01*
X34318166Y-33134500D01*
X35681834Y-33134500D01*
X35776555Y-33119498D01*
X35890723Y-33061326D01*
X35981326Y-32970723D01*
X36039498Y-32856555D01*
X36054500Y-32761834D01*
X36054500Y-32398166D01*
X36050099Y-32370381D01*
X36041050Y-32313241D01*
X36041049Y-32313238D01*
X36039498Y-32303445D01*
X36038489Y-32301465D01*
X36036585Y-32234768D01*
X36069350Y-32177706D01*
X37113460Y-31133595D01*
X37128942Y-31121090D01*
X37132169Y-31118154D01*
X37140922Y-31112502D01*
X37160049Y-31088239D01*
X37163599Y-31084244D01*
X37163500Y-31084160D01*
X37166858Y-31080197D01*
X37170534Y-31076521D01*
X37173557Y-31072291D01*
X37180894Y-31062025D01*
X37184455Y-31057282D01*
X37207537Y-31028002D01*
X37207539Y-31027998D01*
X37213986Y-31019820D01*
X37216819Y-31011752D01*
X37221793Y-31004792D01*
X37235460Y-30959091D01*
X37237296Y-30953442D01*
X37246192Y-30928110D01*
X37253090Y-30908469D01*
X37253540Y-30903273D01*
X37253540Y-30900568D01*
X37253637Y-30898312D01*
X37253780Y-30897836D01*
X37253826Y-30897838D01*
X37253839Y-30897639D01*
X37255608Y-30891722D01*
X37253637Y-30841553D01*
X37253540Y-30836607D01*
X37253540Y-27379153D01*
X37273542Y-27311032D01*
X37290445Y-27290058D01*
X37403840Y-27176663D01*
X37466152Y-27142637D01*
X37536967Y-27147702D01*
X37593803Y-27190249D01*
X37604677Y-27210303D01*
X37605659Y-27209802D01*
X37609107Y-27216568D01*
X37611717Y-27223702D01*
X37615953Y-27230005D01*
X37615953Y-27230006D01*
X37684025Y-27331307D01*
X37700072Y-27355188D01*
X37705691Y-27360301D01*
X37705692Y-27360302D01*
X37806294Y-27451842D01*
X37817240Y-27461802D01*
X37956457Y-27537391D01*
X38109686Y-27577590D01*
X38193641Y-27578909D01*
X38260483Y-27579959D01*
X38260486Y-27579959D01*
X38268080Y-27580078D01*
X38422496Y-27544712D01*
X38436152Y-27537844D01*
X38443541Y-27534128D01*
X38513386Y-27521391D01*
X38579029Y-27548436D01*
X38607725Y-27585702D01*
X38608397Y-27585240D01*
X38614983Y-27594824D01*
X38619707Y-27605458D01*
X38627940Y-27613677D01*
X38627941Y-27613678D01*
X38691756Y-27677382D01*
X38691758Y-27677383D01*
X38699988Y-27685599D01*
X38803737Y-27731466D01*
X38829762Y-27734500D01*
X39619500Y-27734500D01*
X39687621Y-27754502D01*
X39734114Y-27808158D01*
X39745500Y-27860500D01*
X39745500Y-28620623D01*
X39725498Y-28688744D01*
X39671842Y-28735237D01*
X39648918Y-28743141D01*
X39615943Y-28751057D01*
X39577563Y-28760271D01*
X39577560Y-28760272D01*
X39570184Y-28762043D01*
X39429414Y-28834700D01*
X39310039Y-28938838D01*
X39218950Y-29068444D01*
X39191785Y-29138118D01*
X39168460Y-29197945D01*
X39161406Y-29216037D01*
X39160414Y-29223570D01*
X39160414Y-29223571D01*
X39141863Y-29364484D01*
X39140729Y-29373096D01*
X39143736Y-29400329D01*
X39152267Y-29477598D01*
X39158113Y-29530553D01*
X39160723Y-29537684D01*
X39160723Y-29537686D01*
X39208092Y-29667128D01*
X39212553Y-29679319D01*
X39216786Y-29685619D01*
X39216791Y-29685628D01*
X39244082Y-29726241D01*
X39265500Y-29796511D01*
X39265501Y-29815631D01*
X39265501Y-29820965D01*
X39245502Y-29889086D01*
X39228596Y-29910066D01*
X38920065Y-30218596D01*
X38857753Y-30252621D01*
X38830971Y-30255500D01*
X38655159Y-30255501D01*
X38633512Y-30255501D01*
X38628619Y-30256276D01*
X38628618Y-30256276D01*
X38552100Y-30268394D01*
X38552098Y-30268395D01*
X38542302Y-30269946D01*
X38432368Y-30325960D01*
X38345124Y-30413204D01*
X38289110Y-30523138D01*
X38274664Y-30614347D01*
X38274665Y-30738611D01*
X38274665Y-30811806D01*
X38254663Y-30879927D01*
X38237760Y-30900902D01*
X37745580Y-31393082D01*
X37730098Y-31405587D01*
X37726871Y-31408523D01*
X37718118Y-31414175D01*
X37698991Y-31438438D01*
X37695441Y-31442433D01*
X37695540Y-31442517D01*
X37692182Y-31446480D01*
X37688506Y-31450156D01*
X37685483Y-31454385D01*
X37685483Y-31454386D01*
X37678146Y-31464652D01*
X37674585Y-31469395D01*
X37651503Y-31498675D01*
X37651501Y-31498679D01*
X37645054Y-31506857D01*
X37642221Y-31514925D01*
X37637247Y-31521885D01*
X37634263Y-31531863D01*
X37623580Y-31567586D01*
X37621744Y-31573235D01*
X37605950Y-31618208D01*
X37605500Y-31623404D01*
X37605500Y-31626109D01*
X37605403Y-31628365D01*
X37605260Y-31628841D01*
X37605214Y-31628839D01*
X37605201Y-31629038D01*
X37603432Y-31634955D01*
X37603841Y-31645359D01*
X37605403Y-31685124D01*
X37605500Y-31690070D01*
X37605500Y-31949501D01*
X37585498Y-32017622D01*
X37531842Y-32064115D01*
X37479500Y-32075501D01*
X37234098Y-32075501D01*
X37201986Y-32081888D01*
X37172038Y-32087844D01*
X37172036Y-32087845D01*
X37159863Y-32090266D01*
X37149543Y-32097161D01*
X37149542Y-32097162D01*
X37111297Y-32122717D01*
X37075680Y-32146516D01*
X37019430Y-32230699D01*
X37004664Y-32304933D01*
X37004665Y-34055066D01*
X37019430Y-34129301D01*
X37026325Y-34139620D01*
X37026326Y-34139622D01*
X37051792Y-34177733D01*
X37075680Y-34213484D01*
X37078869Y-34215615D01*
X37110050Y-34272717D01*
X37104985Y-34343532D01*
X37062438Y-34400368D01*
X36995918Y-34425179D01*
X36986929Y-34425500D01*
X20337476Y-34425500D01*
X20312897Y-34423079D01*
X20300000Y-34420514D01*
X20287828Y-34422935D01*
X20275421Y-34422935D01*
X20275421Y-34422295D01*
X20264642Y-34422971D01*
X20080752Y-34409819D01*
X20060580Y-34408376D01*
X20042786Y-34405818D01*
X19817040Y-34356710D01*
X19799791Y-34351645D01*
X19744644Y-34331077D01*
X19583330Y-34270910D01*
X19566983Y-34263444D01*
X19364218Y-34152725D01*
X19349095Y-34143006D01*
X19164152Y-34004559D01*
X19150566Y-33992786D01*
X18987214Y-33829434D01*
X18975441Y-33815848D01*
X18836994Y-33630905D01*
X18827275Y-33615782D01*
X18716556Y-33413017D01*
X18709090Y-33396670D01*
X18643390Y-33220521D01*
X18628355Y-33180209D01*
X18623290Y-33162960D01*
X18574182Y-32937214D01*
X18571624Y-32919420D01*
X18569202Y-32885556D01*
X18557029Y-32715358D01*
X18557705Y-32704579D01*
X18557065Y-32704579D01*
X18557065Y-32692172D01*
X18559486Y-32680000D01*
X18556957Y-32667286D01*
X18554537Y-32642587D01*
X18554562Y-32618002D01*
X18555676Y-31491834D01*
X26745500Y-31491834D01*
X26760502Y-31586555D01*
X26818674Y-31700723D01*
X26909277Y-31791326D01*
X27023445Y-31849498D01*
X27118166Y-31864500D01*
X27472788Y-31864500D01*
X27532910Y-31879769D01*
X27557293Y-31893008D01*
X27710522Y-31933207D01*
X27794477Y-31934526D01*
X27861319Y-31935576D01*
X27861322Y-31935576D01*
X27868916Y-31935695D01*
X28023332Y-31900329D01*
X28067858Y-31877935D01*
X28124472Y-31864500D01*
X28481834Y-31864500D01*
X28576555Y-31849498D01*
X28690723Y-31791326D01*
X28781326Y-31700723D01*
X28839498Y-31586555D01*
X28854500Y-31491834D01*
X28854500Y-31128166D01*
X28839498Y-31033445D01*
X28781326Y-30919277D01*
X28690723Y-30828674D01*
X28609458Y-30787267D01*
X28557843Y-30738518D01*
X28540777Y-30669603D01*
X28563678Y-30602402D01*
X28609458Y-30562733D01*
X28615313Y-30559750D01*
X28690723Y-30521326D01*
X28781326Y-30430723D01*
X28839498Y-30316555D01*
X28854500Y-30221834D01*
X28854500Y-29858166D01*
X28839498Y-29763445D01*
X28781326Y-29649277D01*
X28690723Y-29558674D01*
X28609458Y-29517267D01*
X28557843Y-29468518D01*
X28540777Y-29399603D01*
X28563678Y-29332402D01*
X28609458Y-29292733D01*
X28615313Y-29289750D01*
X28690723Y-29251326D01*
X28781326Y-29160723D01*
X28839498Y-29046555D01*
X28854500Y-28951834D01*
X28854500Y-28588166D01*
X28839498Y-28493445D01*
X28781326Y-28379277D01*
X28690723Y-28288674D01*
X28576555Y-28230502D01*
X28481834Y-28215500D01*
X28163924Y-28215500D01*
X28104965Y-28200854D01*
X28042989Y-28168039D01*
X28042986Y-28168038D01*
X28036274Y-28164484D01*
X27882633Y-28125892D01*
X27875034Y-28125852D01*
X27875033Y-28125852D01*
X27809181Y-28125507D01*
X27724221Y-28125062D01*
X27716841Y-28126834D01*
X27716839Y-28126834D01*
X27577563Y-28160271D01*
X27577560Y-28160272D01*
X27570184Y-28162043D01*
X27563439Y-28165524D01*
X27563440Y-28165524D01*
X27493803Y-28201466D01*
X27436013Y-28215500D01*
X27118166Y-28215500D01*
X27023445Y-28230502D01*
X26909277Y-28288674D01*
X26818674Y-28379277D01*
X26760502Y-28493445D01*
X26745500Y-28588166D01*
X26745500Y-28951834D01*
X26760502Y-29046555D01*
X26818674Y-29160723D01*
X26909277Y-29251326D01*
X26984687Y-29289750D01*
X26990542Y-29292733D01*
X27042157Y-29341482D01*
X27059223Y-29410397D01*
X27036322Y-29477598D01*
X26990542Y-29517267D01*
X26909277Y-29558674D01*
X26818674Y-29649277D01*
X26760502Y-29763445D01*
X26745500Y-29858166D01*
X26745500Y-30221834D01*
X26760502Y-30316555D01*
X26818674Y-30430723D01*
X26909277Y-30521326D01*
X26984687Y-30559750D01*
X26990542Y-30562733D01*
X27042157Y-30611482D01*
X27059223Y-30680397D01*
X27036322Y-30747598D01*
X26990542Y-30787267D01*
X26909277Y-30828674D01*
X26818674Y-30919277D01*
X26760502Y-31033445D01*
X26745500Y-31128166D01*
X26745500Y-31491834D01*
X18555676Y-31491834D01*
X18559387Y-27741080D01*
X21890640Y-27741080D01*
X21891880Y-27748296D01*
X21891880Y-27748298D01*
X21918665Y-27904179D01*
X21920435Y-27914477D01*
X21989320Y-28076368D01*
X22093601Y-28218071D01*
X22227684Y-28331982D01*
X22271198Y-28354201D01*
X22377859Y-28408666D01*
X22377864Y-28408668D01*
X22384376Y-28411993D01*
X22391482Y-28413732D01*
X22391485Y-28413733D01*
X22450302Y-28428125D01*
X22555272Y-28453811D01*
X22560874Y-28454159D01*
X22560877Y-28454159D01*
X22564439Y-28454380D01*
X22564448Y-28454380D01*
X22566378Y-28454500D01*
X22693217Y-28454500D01*
X22785114Y-28443786D01*
X22816646Y-28440110D01*
X22816648Y-28440110D01*
X22823918Y-28439262D01*
X22830795Y-28436766D01*
X22830798Y-28436765D01*
X22982419Y-28381729D01*
X22989298Y-28379232D01*
X22995415Y-28375222D01*
X22995418Y-28375220D01*
X23116727Y-28295685D01*
X23136432Y-28282766D01*
X23257428Y-28155040D01*
X23345796Y-28002904D01*
X23396794Y-27834520D01*
X23407688Y-27658920D01*
X23406157Y-27650007D01*
X23379133Y-27492738D01*
X23379132Y-27492736D01*
X23377893Y-27485523D01*
X23309008Y-27323632D01*
X23204727Y-27181929D01*
X23070644Y-27068018D01*
X23020173Y-27042246D01*
X22920469Y-26991334D01*
X22920464Y-26991332D01*
X22913952Y-26988007D01*
X22906846Y-26986268D01*
X22906843Y-26986267D01*
X22812717Y-26963235D01*
X22743056Y-26946189D01*
X22737454Y-26945841D01*
X22737451Y-26945841D01*
X22733889Y-26945620D01*
X22733880Y-26945620D01*
X22731950Y-26945500D01*
X22605111Y-26945500D01*
X22513214Y-26956214D01*
X22481682Y-26959890D01*
X22481680Y-26959890D01*
X22474410Y-26960738D01*
X22467533Y-26963234D01*
X22467530Y-26963235D01*
X22399285Y-26988007D01*
X22309030Y-27020768D01*
X22302913Y-27024778D01*
X22302910Y-27024780D01*
X22254149Y-27056750D01*
X22161896Y-27117234D01*
X22040900Y-27244960D01*
X21952532Y-27397096D01*
X21901534Y-27565480D01*
X21890640Y-27741080D01*
X18559387Y-27741080D01*
X18563504Y-23580266D01*
X18563741Y-23341080D01*
X21890640Y-23341080D01*
X21891880Y-23348296D01*
X21891880Y-23348298D01*
X21917861Y-23499500D01*
X21920435Y-23514477D01*
X21989320Y-23676368D01*
X22093601Y-23818071D01*
X22227684Y-23931982D01*
X22247632Y-23942168D01*
X22377859Y-24008666D01*
X22377864Y-24008668D01*
X22384376Y-24011993D01*
X22391482Y-24013732D01*
X22391485Y-24013733D01*
X22455181Y-24029319D01*
X22555272Y-24053811D01*
X22560874Y-24054159D01*
X22560877Y-24054159D01*
X22564439Y-24054380D01*
X22564448Y-24054380D01*
X22566378Y-24054500D01*
X22693217Y-24054500D01*
X22785114Y-24043786D01*
X22816646Y-24040110D01*
X22816648Y-24040110D01*
X22823918Y-24039262D01*
X22830795Y-24036766D01*
X22830798Y-24036765D01*
X22982419Y-23981729D01*
X22989298Y-23979232D01*
X22995415Y-23975222D01*
X22995418Y-23975220D01*
X23062865Y-23930999D01*
X23136432Y-23882766D01*
X23257428Y-23755040D01*
X23345796Y-23602904D01*
X23396794Y-23434520D01*
X23407688Y-23258920D01*
X23403935Y-23237075D01*
X23379133Y-23092738D01*
X23379132Y-23092736D01*
X23377893Y-23085523D01*
X23309008Y-22923632D01*
X23204727Y-22781929D01*
X23070644Y-22668018D01*
X23012727Y-22638444D01*
X22920469Y-22591334D01*
X22920464Y-22591332D01*
X22913952Y-22588007D01*
X22906846Y-22586268D01*
X22906843Y-22586267D01*
X22810265Y-22562635D01*
X22743056Y-22546189D01*
X22737454Y-22545841D01*
X22737451Y-22545841D01*
X22733889Y-22545620D01*
X22733880Y-22545620D01*
X22731950Y-22545500D01*
X22605111Y-22545500D01*
X22513214Y-22556214D01*
X22481682Y-22559890D01*
X22481680Y-22559890D01*
X22474410Y-22560738D01*
X22467533Y-22563234D01*
X22467530Y-22563235D01*
X22350230Y-22605813D01*
X22309030Y-22620768D01*
X22302913Y-22624778D01*
X22302910Y-22624780D01*
X22261433Y-22651974D01*
X22161896Y-22717234D01*
X22040900Y-22844960D01*
X21952532Y-22997096D01*
X21901534Y-23165480D01*
X21890640Y-23341080D01*
X18563741Y-23341080D01*
X18568678Y-18351749D01*
X18571098Y-18327298D01*
X18571280Y-18326384D01*
X18571280Y-18326380D01*
X18573700Y-18314212D01*
X18571279Y-18302041D01*
X18571279Y-18289636D01*
X18571918Y-18289636D01*
X18571243Y-18278851D01*
X18585836Y-18074793D01*
X18588394Y-18056998D01*
X18637501Y-17831251D01*
X18642566Y-17814002D01*
X18663134Y-17758855D01*
X18723301Y-17597541D01*
X18730763Y-17581202D01*
X18841487Y-17378424D01*
X18851201Y-17363310D01*
X18989651Y-17178362D01*
X19001424Y-17164776D01*
X19164776Y-17001424D01*
X19178362Y-16989651D01*
X19200539Y-16973049D01*
X19363310Y-16851201D01*
X19378424Y-16841487D01*
X19581202Y-16730763D01*
X19597541Y-16723301D01*
X19758855Y-16663134D01*
X19814002Y-16642566D01*
X19831251Y-16637501D01*
X20056998Y-16588394D01*
X20074793Y-16585836D01*
X20117400Y-16582789D01*
X20278853Y-16571243D01*
X20289633Y-16571918D01*
X20289633Y-16571279D01*
X20302040Y-16571279D01*
X20314212Y-16573700D01*
X20326384Y-16571279D01*
X20327108Y-16571135D01*
X20351688Y-16568714D01*
X37604003Y-16568714D01*
X37672124Y-16588716D01*
G37*
%TD.AperFunction*%
%TA.AperFunction,Conductor*%
G36*
X63336264Y-16571133D02*
G01*
X63349169Y-16573700D01*
X63361341Y-16571278D01*
X63373752Y-16571278D01*
X63373752Y-16571918D01*
X63384530Y-16571242D01*
X63588595Y-16585834D01*
X63606380Y-16588391D01*
X63768283Y-16623608D01*
X63832134Y-16637497D01*
X63849383Y-16642562D01*
X64065840Y-16723293D01*
X64082193Y-16730761D01*
X64284956Y-16841475D01*
X64300080Y-16851194D01*
X64485026Y-16989641D01*
X64498613Y-17001414D01*
X64661974Y-17164773D01*
X64673746Y-17178359D01*
X64738290Y-17264578D01*
X64812194Y-17363302D01*
X64821911Y-17378422D01*
X64849008Y-17428046D01*
X64932630Y-17581187D01*
X64940097Y-17597537D01*
X64945603Y-17612299D01*
X65020833Y-17813999D01*
X65025898Y-17831248D01*
X65075006Y-18056997D01*
X65077564Y-18074792D01*
X65092151Y-18278767D01*
X65091473Y-18289630D01*
X65092100Y-18289630D01*
X65092100Y-18302039D01*
X65089678Y-18314212D01*
X65092099Y-18326384D01*
X65092099Y-18326385D01*
X65092243Y-18327108D01*
X65094664Y-18351688D01*
X65094664Y-22440907D01*
X65074662Y-22509028D01*
X65057278Y-22524091D01*
X65091403Y-22584584D01*
X65094664Y-22613065D01*
X65094664Y-24980907D01*
X65074662Y-25049028D01*
X65057276Y-25064093D01*
X65091403Y-25124591D01*
X65094664Y-25153072D01*
X65094664Y-32642524D01*
X65092243Y-32667103D01*
X65089678Y-32680000D01*
X65092099Y-32692172D01*
X65092099Y-32704579D01*
X65091459Y-32704579D01*
X65092135Y-32715358D01*
X65082036Y-32856555D01*
X65077540Y-32919417D01*
X65074981Y-32937211D01*
X65025872Y-33162960D01*
X65020807Y-33180210D01*
X64940076Y-33396655D01*
X64932608Y-33413008D01*
X64821890Y-33615771D01*
X64812177Y-33630886D01*
X64673719Y-33815840D01*
X64661955Y-33829416D01*
X64498589Y-33992779D01*
X64485016Y-34004540D01*
X64300061Y-34142993D01*
X64284956Y-34152701D01*
X64082169Y-34263426D01*
X64065828Y-34270888D01*
X63849374Y-34351618D01*
X63832124Y-34356683D01*
X63641300Y-34398191D01*
X63607710Y-34405498D01*
X63606381Y-34405787D01*
X63588588Y-34408345D01*
X63384398Y-34422945D01*
X63373751Y-34422278D01*
X63373751Y-34422935D01*
X63361340Y-34422935D01*
X63349169Y-34420514D01*
X63336264Y-34423081D01*
X63311693Y-34425500D01*
X51328623Y-34425500D01*
X51260502Y-34405498D01*
X51214009Y-34351842D01*
X51203905Y-34281568D01*
X51233399Y-34216988D01*
X51267053Y-34189569D01*
X51437440Y-34094147D01*
X51477133Y-34061135D01*
X51589077Y-33968031D01*
X51593509Y-33964345D01*
X51711026Y-33823047D01*
X51719617Y-33812718D01*
X51719619Y-33812715D01*
X51723311Y-33808276D01*
X51822498Y-33631165D01*
X51824354Y-33625698D01*
X51824356Y-33625693D01*
X51885892Y-33444414D01*
X51885893Y-33444409D01*
X51887748Y-33438945D01*
X51888576Y-33433236D01*
X51888577Y-33433231D01*
X51916343Y-33241727D01*
X51916876Y-33238053D01*
X51918396Y-33180000D01*
X51899822Y-32977859D01*
X51898254Y-32972299D01*
X51846289Y-32788046D01*
X51846288Y-32788044D01*
X51844721Y-32782487D01*
X51834537Y-32761834D01*
X51757495Y-32605609D01*
X51754940Y-32600428D01*
X51633484Y-32437779D01*
X51484422Y-32299987D01*
X51479539Y-32296906D01*
X51479535Y-32296903D01*
X51329128Y-32202004D01*
X51312745Y-32191667D01*
X51124203Y-32116446D01*
X51118543Y-32115320D01*
X51118539Y-32115319D01*
X50930777Y-32077971D01*
X50930774Y-32077971D01*
X50925110Y-32076844D01*
X50919335Y-32076768D01*
X50919331Y-32076768D01*
X50817957Y-32075441D01*
X50722135Y-32074187D01*
X50716438Y-32075166D01*
X50716437Y-32075166D01*
X50527771Y-32107585D01*
X50522074Y-32108564D01*
X50468318Y-32128396D01*
X50397485Y-32133208D01*
X50335612Y-32099279D01*
X49102392Y-30866060D01*
X49089880Y-30850568D01*
X49086946Y-30847344D01*
X49081299Y-30838598D01*
X49073121Y-30832151D01*
X49069582Y-30828262D01*
X49038529Y-30764417D01*
X49046923Y-30693918D01*
X49092098Y-30639149D01*
X49134645Y-30620641D01*
X49215928Y-30602025D01*
X49215930Y-30602024D01*
X49223332Y-30600329D01*
X49298084Y-30562733D01*
X49358072Y-30532563D01*
X49358075Y-30532561D01*
X49364855Y-30529151D01*
X49370626Y-30524222D01*
X49370629Y-30524220D01*
X49479536Y-30431204D01*
X49479536Y-30431203D01*
X49485314Y-30426269D01*
X49577755Y-30297624D01*
X49636842Y-30150641D01*
X49642965Y-30107615D01*
X49658581Y-29997891D01*
X49658581Y-29997888D01*
X49659162Y-29993807D01*
X49659307Y-29980000D01*
X49640276Y-29822733D01*
X49584280Y-29674546D01*
X49559408Y-29638357D01*
X49498855Y-29550251D01*
X49498854Y-29550249D01*
X49494553Y-29543992D01*
X49376275Y-29438611D01*
X49236274Y-29364484D01*
X49082633Y-29325892D01*
X49075034Y-29325852D01*
X49075033Y-29325852D01*
X49007369Y-29325498D01*
X48924221Y-29325062D01*
X48916836Y-29326835D01*
X48915798Y-29326955D01*
X48845830Y-29314914D01*
X48812223Y-29290885D01*
X48686918Y-29165580D01*
X48674413Y-29150098D01*
X48671477Y-29146871D01*
X48668786Y-29142703D01*
X48665827Y-29138120D01*
X48666383Y-29137761D01*
X48638997Y-29081461D01*
X48647388Y-29010962D01*
X48692562Y-28956191D01*
X48763241Y-28934500D01*
X49684739Y-28934499D01*
X49940134Y-28934499D01*
X50008255Y-28954501D01*
X50029229Y-28971404D01*
X51367759Y-30309934D01*
X51401785Y-30372246D01*
X51404664Y-30399028D01*
X51404665Y-30581044D01*
X51405440Y-30585935D01*
X51405440Y-30585938D01*
X51409486Y-30611482D01*
X51419296Y-30673427D01*
X51423797Y-30682260D01*
X51423799Y-30682265D01*
X51429737Y-30693918D01*
X51476029Y-30784771D01*
X51564393Y-30873135D01*
X51675737Y-30929868D01*
X51685527Y-30931419D01*
X51685528Y-30931419D01*
X51711265Y-30935495D01*
X51768119Y-30944500D01*
X51939129Y-30944500D01*
X52110208Y-30944499D01*
X52133372Y-30940830D01*
X52192793Y-30931420D01*
X52192795Y-30931419D01*
X52202591Y-30929868D01*
X52313935Y-30873135D01*
X52402299Y-30784771D01*
X52459032Y-30673427D01*
X52473664Y-30581045D01*
X52473663Y-30178956D01*
X52459032Y-30086573D01*
X52431841Y-30033207D01*
X52406800Y-29984063D01*
X52402299Y-29975229D01*
X52401521Y-29974451D01*
X52379308Y-29912194D01*
X52395388Y-29843042D01*
X52397834Y-29839236D01*
X52402299Y-29834771D01*
X52459032Y-29723427D01*
X52473664Y-29631045D01*
X52473663Y-29228956D01*
X52459032Y-29136573D01*
X52402299Y-29025229D01*
X52340569Y-28963499D01*
X52306543Y-28901187D01*
X52303664Y-28874404D01*
X52303664Y-26180421D01*
X52306487Y-26153897D01*
X52307841Y-26147609D01*
X52341735Y-26085225D01*
X52380657Y-26063865D01*
X52327679Y-26049128D01*
X52283391Y-26002001D01*
X52266551Y-25970792D01*
X52263854Y-25965500D01*
X52248043Y-25932573D01*
X52243209Y-25922506D01*
X52239853Y-25918514D01*
X52237906Y-25916567D01*
X52236416Y-25914942D01*
X52236183Y-25914510D01*
X52236219Y-25914477D01*
X52236080Y-25914319D01*
X52233147Y-25908884D01*
X52223537Y-25900000D01*
X52196283Y-25874807D01*
X52192717Y-25871378D01*
X51291405Y-24970066D01*
X51257379Y-24907754D01*
X51254500Y-24880971D01*
X51254500Y-24037392D01*
X51274502Y-23969271D01*
X51328158Y-23922778D01*
X51398432Y-23912674D01*
X51463012Y-23942168D01*
X51498825Y-23994091D01*
X51511717Y-24029319D01*
X51515953Y-24035622D01*
X51515953Y-24035623D01*
X51572508Y-24119785D01*
X51600072Y-24160805D01*
X51605691Y-24165918D01*
X51605692Y-24165919D01*
X51688872Y-24241606D01*
X51717240Y-24267419D01*
X51856457Y-24343008D01*
X52009686Y-24383207D01*
X52093641Y-24384526D01*
X52160483Y-24385576D01*
X52160486Y-24385576D01*
X52168080Y-24385695D01*
X52322496Y-24350329D01*
X52464019Y-24279151D01*
X52469793Y-24274220D01*
X52472920Y-24272142D01*
X52540728Y-24251105D01*
X52609146Y-24270067D01*
X52656450Y-24323008D01*
X52667623Y-24393120D01*
X52662774Y-24414718D01*
X52662449Y-24415564D01*
X52661598Y-24418740D01*
X52661597Y-24418743D01*
X52659416Y-24426884D01*
X52567378Y-24770374D01*
X52555193Y-24847306D01*
X52511188Y-25125141D01*
X52509915Y-25133177D01*
X52490691Y-25500000D01*
X52509915Y-25866823D01*
X52518714Y-25922373D01*
X52518727Y-25922456D01*
X52509628Y-25992867D01*
X52463906Y-26047182D01*
X52442653Y-26053754D01*
X52474802Y-26055985D01*
X52531727Y-26098412D01*
X52555467Y-26154421D01*
X52567378Y-26229626D01*
X52662449Y-26584436D01*
X52663634Y-26587524D01*
X52663635Y-26587526D01*
X52697305Y-26675238D01*
X52794087Y-26927365D01*
X52795585Y-26930305D01*
X52958515Y-27250073D01*
X52960849Y-27254654D01*
X52962645Y-27257420D01*
X52962647Y-27257423D01*
X53022042Y-27348883D01*
X53160909Y-27562720D01*
X53392075Y-27848186D01*
X53651814Y-28107925D01*
X53937280Y-28339091D01*
X54245345Y-28539151D01*
X54572635Y-28705913D01*
X54732106Y-28767128D01*
X54909234Y-28835121D01*
X54915564Y-28837551D01*
X55270374Y-28932622D01*
X55463016Y-28963134D01*
X55629929Y-28989571D01*
X55629937Y-28989572D01*
X55633177Y-28990085D01*
X56000000Y-29009309D01*
X56366823Y-28990085D01*
X56370063Y-28989572D01*
X56370071Y-28989571D01*
X56536984Y-28963134D01*
X56729626Y-28932622D01*
X57084436Y-28837551D01*
X57090767Y-28835121D01*
X57267894Y-28767128D01*
X57427365Y-28705913D01*
X57537790Y-28649649D01*
X59890115Y-28649649D01*
X59903993Y-28861377D01*
X59956222Y-29067031D01*
X60045054Y-29259723D01*
X60167514Y-29433000D01*
X60319501Y-29581059D01*
X60324297Y-29584264D01*
X60324300Y-29584266D01*
X60455881Y-29672185D01*
X60495924Y-29698941D01*
X60501227Y-29701219D01*
X60501230Y-29701221D01*
X60668854Y-29773238D01*
X60690875Y-29782699D01*
X60748336Y-29795701D01*
X60892189Y-29828252D01*
X60892194Y-29828253D01*
X60897826Y-29829527D01*
X60903597Y-29829754D01*
X60903599Y-29829754D01*
X60969075Y-29832326D01*
X61109845Y-29837857D01*
X61218138Y-29822155D01*
X61314117Y-29808239D01*
X61314122Y-29808238D01*
X61319831Y-29807410D01*
X61325295Y-29805555D01*
X61325300Y-29805554D01*
X61420500Y-29773238D01*
X61520753Y-29739207D01*
X61533158Y-29732260D01*
X61700834Y-29638357D01*
X61700838Y-29638354D01*
X61705881Y-29635530D01*
X61869016Y-29499852D01*
X62004694Y-29336717D01*
X62007518Y-29331674D01*
X62007521Y-29331670D01*
X62105547Y-29156632D01*
X62105548Y-29156630D01*
X62108371Y-29151589D01*
X62155186Y-29013675D01*
X62174718Y-28956136D01*
X62174719Y-28956131D01*
X62176574Y-28950667D01*
X62183538Y-28902636D01*
X62183969Y-28899667D01*
X62213540Y-28835121D01*
X62273312Y-28796809D01*
X62344308Y-28796895D01*
X62403988Y-28835350D01*
X62433404Y-28899966D01*
X62434665Y-28917743D01*
X62434665Y-29605066D01*
X62449430Y-29679301D01*
X62456325Y-29689620D01*
X62456326Y-29689622D01*
X62486313Y-29734500D01*
X62505680Y-29763484D01*
X62589863Y-29819734D01*
X62664097Y-29834500D01*
X63589014Y-29834500D01*
X64514230Y-29834499D01*
X64557278Y-29825937D01*
X64576290Y-29822156D01*
X64576292Y-29822155D01*
X64588465Y-29819734D01*
X64598785Y-29812839D01*
X64598786Y-29812838D01*
X64662332Y-29770377D01*
X64672648Y-29763484D01*
X64728898Y-29679301D01*
X64743664Y-29605067D01*
X64743663Y-27754934D01*
X64728898Y-27680699D01*
X64706332Y-27646926D01*
X64679541Y-27606832D01*
X64672648Y-27596516D01*
X64588465Y-27540266D01*
X64514231Y-27525500D01*
X63589314Y-27525500D01*
X62664098Y-27525501D01*
X62628929Y-27532496D01*
X62602038Y-27537844D01*
X62602036Y-27537845D01*
X62589863Y-27540266D01*
X62579543Y-27547161D01*
X62579542Y-27547162D01*
X62521864Y-27585702D01*
X62505680Y-27596516D01*
X62449430Y-27680699D01*
X62434664Y-27754933D01*
X62434664Y-28428125D01*
X62414662Y-28496246D01*
X62361006Y-28542739D01*
X62290732Y-28552843D01*
X62226152Y-28523349D01*
X62187395Y-28462326D01*
X62133169Y-28270053D01*
X62133167Y-28270047D01*
X62131600Y-28264492D01*
X62114074Y-28228951D01*
X62040309Y-28079372D01*
X62037754Y-28074191D01*
X61984522Y-28002904D01*
X61914253Y-27908803D01*
X61914252Y-27908802D01*
X61910800Y-27904179D01*
X61886688Y-27881890D01*
X61759230Y-27764069D01*
X61759227Y-27764067D01*
X61754990Y-27760150D01*
X61575541Y-27646926D01*
X61378464Y-27568300D01*
X61372807Y-27567175D01*
X61372801Y-27567173D01*
X61176027Y-27528033D01*
X61176023Y-27528033D01*
X61170359Y-27526906D01*
X61164584Y-27526830D01*
X61164580Y-27526830D01*
X61057968Y-27525434D01*
X60958195Y-27524128D01*
X60952498Y-27525107D01*
X60952497Y-27525107D01*
X60754774Y-27559082D01*
X60749077Y-27560061D01*
X60550010Y-27633501D01*
X60545049Y-27636453D01*
X60545048Y-27636453D01*
X60372627Y-27739032D01*
X60372624Y-27739034D01*
X60367659Y-27741988D01*
X60363319Y-27745794D01*
X60363315Y-27745797D01*
X60212473Y-27878083D01*
X60208132Y-27881890D01*
X60204557Y-27886425D01*
X60204556Y-27886426D01*
X60107746Y-28009229D01*
X60076771Y-28048520D01*
X59977976Y-28236299D01*
X59948266Y-28331982D01*
X59918413Y-28428125D01*
X59915055Y-28438938D01*
X59890115Y-28649649D01*
X57537790Y-28649649D01*
X57754655Y-28539151D01*
X58062720Y-28339091D01*
X58348186Y-28107925D01*
X58607925Y-27848186D01*
X58839091Y-27562720D01*
X58977958Y-27348883D01*
X59037353Y-27257423D01*
X59037355Y-27257420D01*
X59039151Y-27254654D01*
X59041486Y-27250073D01*
X59204415Y-26930305D01*
X59205913Y-26927365D01*
X59302695Y-26675238D01*
X59336365Y-26587526D01*
X59336366Y-26587524D01*
X59337551Y-26584436D01*
X59432622Y-26229626D01*
X59474004Y-25968355D01*
X59489571Y-25870071D01*
X59489572Y-25870063D01*
X59490085Y-25866823D01*
X59509309Y-25500000D01*
X59490085Y-25133177D01*
X59488813Y-25125141D01*
X59444807Y-24847306D01*
X59432622Y-24770374D01*
X59337551Y-24415564D01*
X59335443Y-24410071D01*
X59281700Y-24270067D01*
X59205913Y-24072635D01*
X59127380Y-23918506D01*
X59114276Y-23848729D01*
X59140976Y-23782945D01*
X59150552Y-23772208D01*
X59879114Y-23043646D01*
X59941426Y-23009620D01*
X60012241Y-23014685D01*
X60069077Y-23057232D01*
X60082633Y-23079988D01*
X60089377Y-23094616D01*
X60092710Y-23099332D01*
X60202712Y-23254982D01*
X60206533Y-23260389D01*
X60210675Y-23264424D01*
X60235737Y-23288838D01*
X60351938Y-23402035D01*
X60356742Y-23405245D01*
X60387092Y-23425524D01*
X60520720Y-23514812D01*
X60526023Y-23517090D01*
X60526026Y-23517092D01*
X60701921Y-23592662D01*
X60707228Y-23594942D01*
X60753879Y-23605498D01*
X60899579Y-23638467D01*
X60899584Y-23638468D01*
X60905216Y-23639742D01*
X60910987Y-23639969D01*
X60910989Y-23639969D01*
X60970756Y-23642317D01*
X61108053Y-23647712D01*
X61210099Y-23632916D01*
X61303231Y-23619413D01*
X61303236Y-23619412D01*
X61308945Y-23618584D01*
X61314409Y-23616729D01*
X61314414Y-23616728D01*
X61495693Y-23555192D01*
X61495698Y-23555190D01*
X61501165Y-23553334D01*
X61511183Y-23547724D01*
X61615222Y-23489459D01*
X61678276Y-23454147D01*
X61698557Y-23437280D01*
X61823692Y-23333205D01*
X61834345Y-23324345D01*
X61864838Y-23287681D01*
X61960453Y-23172718D01*
X61960455Y-23172715D01*
X61964147Y-23168276D01*
X62041345Y-23030430D01*
X62060510Y-22996208D01*
X62060511Y-22996206D01*
X62063334Y-22991165D01*
X62065190Y-22985698D01*
X62065192Y-22985693D01*
X62123226Y-22814729D01*
X62164063Y-22756652D01*
X62229816Y-22729874D01*
X62299608Y-22742895D01*
X62351281Y-22791582D01*
X62362968Y-22818180D01*
X62423800Y-23015917D01*
X62426370Y-23020897D01*
X62426372Y-23020901D01*
X62509119Y-23181219D01*
X62526509Y-23214912D01*
X62662833Y-23392573D01*
X62666979Y-23396346D01*
X62666984Y-23396351D01*
X62799677Y-23517092D01*
X62828464Y-23543286D01*
X63018167Y-23662286D01*
X63093694Y-23692648D01*
X63149437Y-23736613D01*
X63172562Y-23803738D01*
X63155725Y-23872709D01*
X63100940Y-23923280D01*
X63073938Y-23936159D01*
X63022487Y-23960700D01*
X62948826Y-23995834D01*
X62944265Y-23999111D01*
X62944264Y-23999112D01*
X62808323Y-24096796D01*
X62766970Y-24126511D01*
X62722361Y-24172544D01*
X62615745Y-24282563D01*
X62611129Y-24287326D01*
X62608001Y-24291981D01*
X62517351Y-24426884D01*
X62486230Y-24473197D01*
X62426421Y-24609444D01*
X62398605Y-24672811D01*
X62396218Y-24678248D01*
X62343941Y-24895998D01*
X62343618Y-24901603D01*
X62333351Y-25079678D01*
X62331051Y-25119564D01*
X62357954Y-25341880D01*
X62423800Y-25555917D01*
X62426370Y-25560897D01*
X62426372Y-25560901D01*
X62520581Y-25743427D01*
X62526509Y-25754912D01*
X62529922Y-25759359D01*
X62529922Y-25759360D01*
X62540827Y-25773571D01*
X62662833Y-25932573D01*
X62666979Y-25936346D01*
X62666984Y-25936351D01*
X62786445Y-26045052D01*
X62828464Y-26083286D01*
X63018167Y-26202286D01*
X63225944Y-26285812D01*
X63231436Y-26286949D01*
X63231438Y-26286950D01*
X63371894Y-26316037D01*
X63445228Y-26331224D01*
X63449839Y-26331490D01*
X63449840Y-26331490D01*
X63500225Y-26334395D01*
X63500229Y-26334395D01*
X63502048Y-26334500D01*
X63646819Y-26334500D01*
X63649606Y-26334251D01*
X63649612Y-26334251D01*
X63718962Y-26328061D01*
X63813051Y-26319664D01*
X64029051Y-26260573D01*
X64034109Y-26258161D01*
X64034113Y-26258159D01*
X64226107Y-26166583D01*
X64226109Y-26166582D01*
X64231174Y-26164166D01*
X64245465Y-26153897D01*
X64408470Y-26036766D01*
X64408472Y-26036764D01*
X64413030Y-26033489D01*
X64489535Y-25954542D01*
X64564969Y-25876701D01*
X64564971Y-25876698D01*
X64568871Y-25872674D01*
X64584577Y-25849301D01*
X64690641Y-25691460D01*
X64690643Y-25691457D01*
X64693770Y-25686803D01*
X64778985Y-25492680D01*
X64781525Y-25486894D01*
X64781526Y-25486892D01*
X64783782Y-25481752D01*
X64825505Y-25307964D01*
X64834749Y-25269459D01*
X64834749Y-25269458D01*
X64836059Y-25264002D01*
X64842873Y-25145819D01*
X64866763Y-25078963D01*
X64880949Y-25068035D01*
X64847768Y-25016405D01*
X64843577Y-24996044D01*
X64822720Y-24823692D01*
X64822046Y-24818120D01*
X64756200Y-24604083D01*
X64750178Y-24592414D01*
X64656063Y-24410071D01*
X64656063Y-24410070D01*
X64653491Y-24405088D01*
X64517167Y-24227427D01*
X64513021Y-24223654D01*
X64513016Y-24223649D01*
X64355689Y-24080493D01*
X64351536Y-24076714D01*
X64161833Y-23957714D01*
X64086306Y-23927352D01*
X64030563Y-23883387D01*
X64007438Y-23816262D01*
X64024275Y-23747291D01*
X64079060Y-23696720D01*
X64087602Y-23692646D01*
X64151253Y-23662286D01*
X64226107Y-23626583D01*
X64226109Y-23626582D01*
X64231174Y-23624166D01*
X64235736Y-23620888D01*
X64408470Y-23496766D01*
X64408472Y-23496764D01*
X64413030Y-23493489D01*
X64497546Y-23406276D01*
X64564969Y-23336701D01*
X64564971Y-23336698D01*
X64568871Y-23332674D01*
X64612441Y-23267835D01*
X64690641Y-23151460D01*
X64690643Y-23151457D01*
X64693770Y-23146803D01*
X64772308Y-22967891D01*
X64781525Y-22946894D01*
X64781526Y-22946892D01*
X64783782Y-22941752D01*
X64828005Y-22757551D01*
X64834749Y-22729459D01*
X64834749Y-22729458D01*
X64836059Y-22724002D01*
X64842873Y-22605812D01*
X64866763Y-22538956D01*
X64880946Y-22528030D01*
X64847768Y-22476405D01*
X64843577Y-22456044D01*
X64841467Y-22438611D01*
X64822046Y-22278120D01*
X64756200Y-22064083D01*
X64747362Y-22046958D01*
X64656063Y-21870071D01*
X64656063Y-21870070D01*
X64653491Y-21865088D01*
X64517167Y-21687427D01*
X64513021Y-21683654D01*
X64513016Y-21683649D01*
X64355689Y-21540493D01*
X64351536Y-21536714D01*
X64161833Y-21417714D01*
X64130413Y-21405083D01*
X64029678Y-21364588D01*
X63954056Y-21334188D01*
X63948564Y-21333051D01*
X63948562Y-21333050D01*
X63797754Y-21301819D01*
X63734772Y-21288776D01*
X63730161Y-21288510D01*
X63730160Y-21288510D01*
X63679775Y-21285605D01*
X63679771Y-21285605D01*
X63677952Y-21285500D01*
X63533181Y-21285500D01*
X63530394Y-21285749D01*
X63530388Y-21285749D01*
X63461038Y-21291939D01*
X63366949Y-21300336D01*
X63150949Y-21359427D01*
X63145891Y-21361839D01*
X63145887Y-21361841D01*
X62953893Y-21453417D01*
X62948826Y-21455834D01*
X62944265Y-21459111D01*
X62944264Y-21459112D01*
X62792113Y-21568444D01*
X62766970Y-21586511D01*
X62763065Y-21590541D01*
X62624204Y-21733834D01*
X62611129Y-21747326D01*
X62608001Y-21751981D01*
X62524101Y-21876839D01*
X62486230Y-21933197D01*
X62428598Y-22064484D01*
X62399304Y-22131219D01*
X62396218Y-22138248D01*
X62394908Y-22143705D01*
X62365539Y-22266034D01*
X62330187Y-22327603D01*
X62267160Y-22360286D01*
X62196469Y-22353705D01*
X62140558Y-22309951D01*
X62121751Y-22270821D01*
X62121091Y-22268479D01*
X62096975Y-22182971D01*
X62087126Y-22148048D01*
X62087124Y-22148042D01*
X62085557Y-22142487D01*
X62081477Y-22134212D01*
X61998331Y-21965609D01*
X61995776Y-21960428D01*
X61874320Y-21797779D01*
X61725258Y-21659987D01*
X61720375Y-21656906D01*
X61720371Y-21656903D01*
X61558464Y-21554748D01*
X61553581Y-21551667D01*
X61365039Y-21476446D01*
X61359379Y-21475320D01*
X61359375Y-21475319D01*
X61171613Y-21437971D01*
X61171610Y-21437971D01*
X61165946Y-21436844D01*
X61160171Y-21436768D01*
X61160167Y-21436768D01*
X61058793Y-21435441D01*
X60962971Y-21434187D01*
X60957274Y-21435166D01*
X60957273Y-21435166D01*
X60817917Y-21459112D01*
X60762910Y-21468564D01*
X60572463Y-21538824D01*
X60398010Y-21642612D01*
X60393670Y-21646418D01*
X60393666Y-21646421D01*
X60273299Y-21751981D01*
X60245392Y-21776455D01*
X60241817Y-21780990D01*
X60241816Y-21780991D01*
X60236267Y-21788030D01*
X60119720Y-21935869D01*
X60117031Y-21940980D01*
X60117029Y-21940983D01*
X60076420Y-22018168D01*
X60027000Y-22069140D01*
X59964912Y-22085500D01*
X59774456Y-22085500D01*
X59759647Y-22084627D01*
X59734915Y-22081700D01*
X59725562Y-22080593D01*
X59716298Y-22082285D01*
X59716295Y-22082285D01*
X59667320Y-22091229D01*
X59663418Y-22091878D01*
X59614164Y-22099284D01*
X59614161Y-22099285D01*
X59604849Y-22100685D01*
X59598282Y-22103838D01*
X59591117Y-22105147D01*
X59538533Y-22132462D01*
X59535043Y-22134205D01*
X59481647Y-22159846D01*
X59476352Y-22164741D01*
X59476213Y-22164834D01*
X59469834Y-22168148D01*
X59464746Y-22172494D01*
X59427164Y-22210076D01*
X59423599Y-22213506D01*
X59381288Y-22252617D01*
X59377571Y-22259016D01*
X59371967Y-22265272D01*
X58635770Y-23001469D01*
X58573458Y-23035495D01*
X58502643Y-23030430D01*
X58457580Y-23001469D01*
X58348186Y-22892075D01*
X58062720Y-22660909D01*
X57754655Y-22460849D01*
X57427365Y-22294087D01*
X57128384Y-22179319D01*
X57087526Y-22163635D01*
X57087524Y-22163634D01*
X57084436Y-22162449D01*
X56729626Y-22067378D01*
X56519273Y-22034061D01*
X56370071Y-22010429D01*
X56370063Y-22010428D01*
X56366823Y-22009915D01*
X56000000Y-21990691D01*
X55633177Y-22009915D01*
X55629937Y-22010428D01*
X55629929Y-22010429D01*
X55480727Y-22034061D01*
X55270374Y-22067378D01*
X54915564Y-22162449D01*
X54912476Y-22163634D01*
X54912474Y-22163635D01*
X54871616Y-22179319D01*
X54572635Y-22294087D01*
X54569695Y-22295585D01*
X54248287Y-22459350D01*
X54248284Y-22459352D01*
X54245346Y-22460849D01*
X54242580Y-22462645D01*
X54242577Y-22462647D01*
X54101133Y-22554502D01*
X53937280Y-22660909D01*
X53651814Y-22892075D01*
X53392075Y-23151814D01*
X53160909Y-23437280D01*
X53159107Y-23440055D01*
X53159104Y-23440059D01*
X52980881Y-23714498D01*
X52927005Y-23760735D01*
X52856684Y-23770504D01*
X52792244Y-23740704D01*
X52754145Y-23680795D01*
X52750124Y-23661025D01*
X52739440Y-23572733D01*
X52683444Y-23424546D01*
X52642612Y-23365135D01*
X52598019Y-23300251D01*
X52598018Y-23300249D01*
X52593717Y-23293992D01*
X52587026Y-23288030D01*
X52527115Y-23234652D01*
X52475439Y-23188611D01*
X52468053Y-23184700D01*
X52360389Y-23127695D01*
X52335438Y-23114484D01*
X52181797Y-23075892D01*
X52174198Y-23075852D01*
X52174197Y-23075852D01*
X52108345Y-23075507D01*
X52023385Y-23075062D01*
X52016005Y-23076834D01*
X52016003Y-23076834D01*
X51876727Y-23110271D01*
X51876724Y-23110272D01*
X51869348Y-23112043D01*
X51728578Y-23184700D01*
X51609203Y-23288838D01*
X51518114Y-23418444D01*
X51515355Y-23425520D01*
X51515353Y-23425524D01*
X51497892Y-23470310D01*
X51454511Y-23526512D01*
X51387632Y-23550338D01*
X51318488Y-23534224D01*
X51269032Y-23483286D01*
X51254499Y-23424540D01*
X51254499Y-22954934D01*
X51239734Y-22880699D01*
X51229424Y-22865268D01*
X51190377Y-22806832D01*
X51183484Y-22796516D01*
X51123824Y-22756652D01*
X51109620Y-22747161D01*
X51099301Y-22740266D01*
X51025067Y-22725500D01*
X49801278Y-22725500D01*
X49733157Y-22705498D01*
X49686664Y-22651842D01*
X49676560Y-22581568D01*
X49706054Y-22516988D01*
X49753182Y-22483041D01*
X49831632Y-22450642D01*
X49831633Y-22450641D01*
X49843101Y-22445905D01*
X49914768Y-22374388D01*
X49923361Y-22353705D01*
X49926883Y-22345225D01*
X49953611Y-22280889D01*
X49953717Y-22179643D01*
X49915069Y-22086063D01*
X49911634Y-22080910D01*
X49557622Y-21549892D01*
X49536478Y-21482117D01*
X49557622Y-21410108D01*
X49913359Y-20876502D01*
X49915069Y-20873937D01*
X49919367Y-20865886D01*
X49934530Y-20837484D01*
X49934531Y-20837481D01*
X49938898Y-20829301D01*
X49946591Y-20790628D01*
X49956229Y-20742171D01*
X49958650Y-20730000D01*
X49938898Y-20630699D01*
X49882648Y-20546516D01*
X49798465Y-20490266D01*
X49699164Y-20470514D01*
X48549164Y-20470514D01*
X48449863Y-20490266D01*
X48365680Y-20546516D01*
X48309430Y-20630699D01*
X48289678Y-20730000D01*
X48289678Y-21385958D01*
X48269676Y-21454079D01*
X48252773Y-21475053D01*
X48239231Y-21488595D01*
X48176919Y-21522621D01*
X48150136Y-21525500D01*
X48046028Y-21525500D01*
X47977907Y-21505498D01*
X47942189Y-21470868D01*
X47928021Y-21450253D01*
X47928017Y-21450248D01*
X47923717Y-21443992D01*
X47913725Y-21435089D01*
X47880046Y-21405083D01*
X47805439Y-21338611D01*
X47798053Y-21334700D01*
X47672152Y-21268039D01*
X47672153Y-21268039D01*
X47665438Y-21264484D01*
X47511797Y-21225892D01*
X47504198Y-21225852D01*
X47504197Y-21225852D01*
X47438345Y-21225507D01*
X47353385Y-21225062D01*
X47346005Y-21226834D01*
X47346003Y-21226834D01*
X47206727Y-21260271D01*
X47206724Y-21260272D01*
X47199348Y-21262043D01*
X47058578Y-21334700D01*
X46939203Y-21438838D01*
X46848114Y-21568444D01*
X46839499Y-21590541D01*
X46800703Y-21690048D01*
X46790570Y-21716037D01*
X46789579Y-21723568D01*
X46789578Y-21723570D01*
X46787851Y-21736690D01*
X46759128Y-21801617D01*
X46699863Y-21840708D01*
X46628871Y-21841553D01*
X46611984Y-21835484D01*
X46604931Y-21832366D01*
X46604930Y-21832366D01*
X46596263Y-21828534D01*
X46570238Y-21825500D01*
X45780500Y-21825500D01*
X45712379Y-21805498D01*
X45665886Y-21751842D01*
X45654500Y-21699500D01*
X45654500Y-20980500D01*
X45674502Y-20912379D01*
X45728158Y-20865886D01*
X45780500Y-20854500D01*
X45878059Y-20854500D01*
X45946180Y-20874502D01*
X45975600Y-20902288D01*
X45976865Y-20904771D01*
X46065229Y-20993135D01*
X46176573Y-21049868D01*
X46186363Y-21051419D01*
X46186364Y-21051419D01*
X46212101Y-21055495D01*
X46268955Y-21064500D01*
X46439965Y-21064500D01*
X46611044Y-21064499D01*
X46634208Y-21060830D01*
X46693629Y-21051420D01*
X46693631Y-21051419D01*
X46703427Y-21049868D01*
X46731477Y-21035576D01*
X46750482Y-21025892D01*
X46814771Y-20993135D01*
X46903135Y-20904771D01*
X46959868Y-20793427D01*
X46963301Y-20771756D01*
X46970875Y-20723932D01*
X46974500Y-20701045D01*
X46974499Y-20298956D01*
X46973724Y-20294062D01*
X46973359Y-20289425D01*
X46987955Y-20219945D01*
X47037798Y-20169386D01*
X47098971Y-20153540D01*
X48778867Y-20153540D01*
X48798661Y-20155646D01*
X48803014Y-20155851D01*
X48813194Y-20158043D01*
X48843864Y-20154413D01*
X48849207Y-20154098D01*
X48849196Y-20153968D01*
X48854376Y-20153540D01*
X48859575Y-20153540D01*
X48864699Y-20152687D01*
X48864712Y-20152686D01*
X48877165Y-20150613D01*
X48883040Y-20149776D01*
X48920053Y-20145395D01*
X48930394Y-20144171D01*
X48938102Y-20140470D01*
X48946541Y-20139065D01*
X48988525Y-20116411D01*
X48993788Y-20113730D01*
X49026929Y-20097816D01*
X49036782Y-20093085D01*
X49040774Y-20089729D01*
X49042721Y-20087782D01*
X49044346Y-20086292D01*
X49044778Y-20086059D01*
X49044811Y-20086095D01*
X49044969Y-20085956D01*
X49050404Y-20083023D01*
X49084481Y-20046159D01*
X49087910Y-20042593D01*
X49663311Y-19467192D01*
X50258540Y-18871962D01*
X50320852Y-18837937D01*
X50397372Y-18845289D01*
X50461089Y-18872664D01*
X50461092Y-18872665D01*
X50466392Y-18874942D01*
X50472021Y-18876216D01*
X50472022Y-18876216D01*
X50658743Y-18918467D01*
X50658748Y-18918468D01*
X50664380Y-18919742D01*
X50670151Y-18919969D01*
X50670153Y-18919969D01*
X50729920Y-18922317D01*
X50867217Y-18927712D01*
X50967663Y-18913148D01*
X51062395Y-18899413D01*
X51062400Y-18899412D01*
X51068109Y-18898584D01*
X51073573Y-18896729D01*
X51073578Y-18896728D01*
X51254857Y-18835192D01*
X51254862Y-18835190D01*
X51260329Y-18833334D01*
X51268090Y-18828988D01*
X51365365Y-18774511D01*
X51437440Y-18734147D01*
X51455522Y-18719109D01*
X51589077Y-18608031D01*
X51593509Y-18604345D01*
X51688924Y-18489622D01*
X51719617Y-18452718D01*
X51719619Y-18452715D01*
X51723311Y-18448276D01*
X51801888Y-18307967D01*
X51819674Y-18276208D01*
X51819675Y-18276206D01*
X51822498Y-18271165D01*
X51824354Y-18265698D01*
X51824356Y-18265693D01*
X51885892Y-18084414D01*
X51885893Y-18084409D01*
X51887748Y-18078945D01*
X51888576Y-18073236D01*
X51888577Y-18073231D01*
X51916343Y-17881727D01*
X51916876Y-17878053D01*
X51918396Y-17820000D01*
X51899822Y-17617859D01*
X51894092Y-17597541D01*
X51846289Y-17428046D01*
X51846288Y-17428044D01*
X51844721Y-17422487D01*
X51834142Y-17401033D01*
X51757495Y-17245609D01*
X51754940Y-17240428D01*
X51633484Y-17077779D01*
X51484422Y-16939987D01*
X51479539Y-16936906D01*
X51479535Y-16936903D01*
X51317628Y-16834748D01*
X51312745Y-16831667D01*
X51262806Y-16811743D01*
X51206948Y-16767923D01*
X51183648Y-16700859D01*
X51200304Y-16631844D01*
X51251629Y-16582789D01*
X51309498Y-16568714D01*
X63311693Y-16568714D01*
X63336264Y-16571133D01*
G37*
%TD.AperFunction*%
%TA.AperFunction,Conductor*%
G36*
X47053766Y-25891634D02*
G01*
X47078955Y-25911130D01*
X48308595Y-27140770D01*
X48342621Y-27203082D01*
X48345500Y-27229865D01*
X48345501Y-28705066D01*
X48351502Y-28735237D01*
X48357526Y-28765524D01*
X48360266Y-28779301D01*
X48367161Y-28789620D01*
X48367162Y-28789622D01*
X48393807Y-28829498D01*
X48415022Y-28897250D01*
X48396239Y-28965717D01*
X48343422Y-29013161D01*
X48289042Y-29025500D01*
X46866864Y-29025500D01*
X46798743Y-29005498D01*
X46763025Y-28970868D01*
X46748857Y-28950253D01*
X46748853Y-28950248D01*
X46744553Y-28943992D01*
X46731792Y-28932622D01*
X46698136Y-28902636D01*
X46626275Y-28838611D01*
X46618889Y-28834700D01*
X46492988Y-28768039D01*
X46492989Y-28768039D01*
X46486274Y-28764484D01*
X46332633Y-28725892D01*
X46325034Y-28725852D01*
X46325033Y-28725852D01*
X46259181Y-28725507D01*
X46174221Y-28725062D01*
X46166841Y-28726834D01*
X46166839Y-28726834D01*
X46027563Y-28760271D01*
X46027560Y-28760272D01*
X46020184Y-28762043D01*
X45879414Y-28834700D01*
X45873697Y-28839687D01*
X45873690Y-28839692D01*
X45821753Y-28885000D01*
X45757271Y-28914708D01*
X45687738Y-28904947D01*
X45696703Y-28914669D01*
X45708973Y-28984598D01*
X45686847Y-29042978D01*
X45673322Y-29062222D01*
X45673319Y-29062227D01*
X45668950Y-29068444D01*
X45641785Y-29138118D01*
X45618460Y-29197945D01*
X45611406Y-29216037D01*
X45610414Y-29223570D01*
X45610414Y-29223571D01*
X45591863Y-29364484D01*
X45590729Y-29373096D01*
X45593736Y-29400329D01*
X45602267Y-29477598D01*
X45608113Y-29530553D01*
X45610723Y-29537684D01*
X45610723Y-29537686D01*
X45658092Y-29667128D01*
X45662553Y-29679319D01*
X45666789Y-29685622D01*
X45666789Y-29685623D01*
X45740759Y-29795701D01*
X45750908Y-29810805D01*
X45756527Y-29815918D01*
X45756528Y-29815919D01*
X45859995Y-29910066D01*
X45868076Y-29917419D01*
X46007293Y-29993008D01*
X46160522Y-30033207D01*
X46244477Y-30034526D01*
X46311319Y-30035576D01*
X46311322Y-30035576D01*
X46318916Y-30035695D01*
X46473332Y-30000329D01*
X46543742Y-29964917D01*
X46608072Y-29932563D01*
X46608075Y-29932561D01*
X46614855Y-29929151D01*
X46620626Y-29924222D01*
X46620629Y-29924220D01*
X46729536Y-29831204D01*
X46729536Y-29831203D01*
X46735314Y-29826269D01*
X46763552Y-29786971D01*
X46819543Y-29743326D01*
X46865872Y-29734500D01*
X48200971Y-29734500D01*
X48269092Y-29754502D01*
X48290066Y-29771405D01*
X48314362Y-29795701D01*
X48348388Y-29858013D01*
X48350189Y-29901241D01*
X48340729Y-29973096D01*
X48343736Y-30000329D01*
X48356646Y-30117262D01*
X48358113Y-30130553D01*
X48360723Y-30137684D01*
X48360723Y-30137686D01*
X48404121Y-30256276D01*
X48412553Y-30279319D01*
X48416789Y-30285622D01*
X48416789Y-30285623D01*
X48457925Y-30346839D01*
X48500908Y-30410805D01*
X48506527Y-30415918D01*
X48506528Y-30415919D01*
X48606390Y-30506786D01*
X48643313Y-30567427D01*
X48641590Y-30638402D01*
X48601768Y-30697179D01*
X48536490Y-30725096D01*
X48521591Y-30725980D01*
X43089522Y-30725980D01*
X43021401Y-30705978D01*
X43000427Y-30689076D01*
X42490925Y-30179575D01*
X42456900Y-30117262D01*
X42454020Y-30090479D01*
X42454020Y-29112565D01*
X42454261Y-29107013D01*
X42454148Y-29107008D01*
X42454266Y-29104281D01*
X42454500Y-29101578D01*
X42454500Y-29098866D01*
X42454597Y-29096617D01*
X42454740Y-29096141D01*
X42454786Y-29096143D01*
X42454799Y-29095944D01*
X42456568Y-29090027D01*
X42454620Y-29040447D01*
X42471932Y-28971593D01*
X42523721Y-28923030D01*
X42580523Y-28909500D01*
X42595238Y-28909500D01*
X42598926Y-28909061D01*
X42598930Y-28909061D01*
X42612403Y-28907458D01*
X42612405Y-28907458D01*
X42621789Y-28906341D01*
X42648909Y-28894295D01*
X42719282Y-28884921D01*
X42751003Y-28894205D01*
X42770073Y-28902636D01*
X42770075Y-28902636D01*
X42778737Y-28906466D01*
X42804762Y-28909500D01*
X42995238Y-28909500D01*
X42998926Y-28909061D01*
X42998930Y-28909061D01*
X43012403Y-28907458D01*
X43012405Y-28907458D01*
X43021789Y-28906341D01*
X43048909Y-28894295D01*
X43119282Y-28884921D01*
X43151003Y-28894205D01*
X43170073Y-28902636D01*
X43170075Y-28902636D01*
X43178737Y-28906466D01*
X43204762Y-28909500D01*
X43395238Y-28909500D01*
X43398926Y-28909061D01*
X43398930Y-28909061D01*
X43412403Y-28907458D01*
X43412405Y-28907458D01*
X43421789Y-28906341D01*
X43448909Y-28894295D01*
X43519282Y-28884921D01*
X43551003Y-28894205D01*
X43570073Y-28902636D01*
X43570075Y-28902636D01*
X43578737Y-28906466D01*
X43604762Y-28909500D01*
X43795238Y-28909500D01*
X43798926Y-28909061D01*
X43798930Y-28909061D01*
X43812403Y-28907458D01*
X43812405Y-28907458D01*
X43821789Y-28906341D01*
X43848909Y-28894295D01*
X43919282Y-28884921D01*
X43951003Y-28894205D01*
X43970073Y-28902636D01*
X43970075Y-28902636D01*
X43978737Y-28906466D01*
X44004762Y-28909500D01*
X44195238Y-28909500D01*
X44198926Y-28909061D01*
X44198930Y-28909061D01*
X44212403Y-28907458D01*
X44212405Y-28907458D01*
X44221789Y-28906341D01*
X44248909Y-28894295D01*
X44319282Y-28884921D01*
X44351003Y-28894205D01*
X44370073Y-28902636D01*
X44370075Y-28902636D01*
X44378737Y-28906466D01*
X44404762Y-28909500D01*
X44595238Y-28909500D01*
X44598926Y-28909061D01*
X44598930Y-28909061D01*
X44612403Y-28907458D01*
X44612405Y-28907458D01*
X44621789Y-28906341D01*
X44648909Y-28894295D01*
X44719282Y-28884921D01*
X44751003Y-28894205D01*
X44770073Y-28902636D01*
X44770075Y-28902636D01*
X44778737Y-28906466D01*
X44804762Y-28909500D01*
X44995238Y-28909500D01*
X44998926Y-28909061D01*
X44998930Y-28909061D01*
X45012403Y-28907458D01*
X45012405Y-28907458D01*
X45021789Y-28906341D01*
X45048909Y-28894295D01*
X45119282Y-28884921D01*
X45151003Y-28894205D01*
X45170073Y-28902636D01*
X45170075Y-28902636D01*
X45178737Y-28906466D01*
X45204762Y-28909500D01*
X45395238Y-28909500D01*
X45398926Y-28909061D01*
X45398930Y-28909061D01*
X45412403Y-28907458D01*
X45412405Y-28907458D01*
X45421789Y-28906341D01*
X45433393Y-28901187D01*
X45525458Y-28860293D01*
X45526278Y-28862139D01*
X45579869Y-28844587D01*
X45633133Y-28858455D01*
X45612925Y-28790471D01*
X45623683Y-28739106D01*
X45651466Y-28676263D01*
X45654500Y-28650238D01*
X45654500Y-27860500D01*
X45674502Y-27792379D01*
X45728158Y-27745886D01*
X45780500Y-27734500D01*
X46570238Y-27734500D01*
X46573926Y-27734061D01*
X46573930Y-27734061D01*
X46587403Y-27732458D01*
X46587405Y-27732458D01*
X46596789Y-27731341D01*
X46700458Y-27685293D01*
X46726785Y-27658920D01*
X46772382Y-27613244D01*
X46772383Y-27613242D01*
X46780599Y-27605012D01*
X46826466Y-27501263D01*
X46829500Y-27475238D01*
X46829500Y-27284762D01*
X46828209Y-27273905D01*
X46827458Y-27267597D01*
X46827458Y-27267595D01*
X46826341Y-27258211D01*
X46814295Y-27231091D01*
X46804921Y-27160718D01*
X46814205Y-27128997D01*
X46822636Y-27109927D01*
X46822636Y-27109925D01*
X46826466Y-27101263D01*
X46829500Y-27075238D01*
X46829500Y-26884762D01*
X46827524Y-26868149D01*
X46827458Y-26867597D01*
X46827458Y-26867595D01*
X46826341Y-26858211D01*
X46814295Y-26831091D01*
X46804921Y-26760718D01*
X46814205Y-26728997D01*
X46822636Y-26709927D01*
X46822636Y-26709925D01*
X46826466Y-26701263D01*
X46829500Y-26675238D01*
X46829500Y-26484762D01*
X46829011Y-26480646D01*
X46827458Y-26467597D01*
X46827458Y-26467595D01*
X46826341Y-26458211D01*
X46814295Y-26431091D01*
X46804921Y-26360718D01*
X46814205Y-26328997D01*
X46822636Y-26309927D01*
X46822636Y-26309925D01*
X46826466Y-26301263D01*
X46829500Y-26275238D01*
X46829500Y-26084762D01*
X46828934Y-26080000D01*
X46827458Y-26067597D01*
X46827458Y-26067595D01*
X46826341Y-26058211D01*
X46822503Y-26049570D01*
X46819998Y-26040457D01*
X46822085Y-26039883D01*
X46814379Y-25981996D01*
X46844546Y-25917727D01*
X46904670Y-25879970D01*
X46940019Y-25877324D01*
X46939970Y-25876088D01*
X46939971Y-25876088D01*
X46984914Y-25874322D01*
X47053766Y-25891634D01*
G37*
%TD.AperFunction*%
%TA.AperFunction,Conductor*%
G36*
X44383742Y-23254982D02*
G01*
X44420202Y-23290704D01*
X44496667Y-23404495D01*
X44496671Y-23404499D01*
X44500908Y-23410805D01*
X44506527Y-23415918D01*
X44506528Y-23415919D01*
X44551645Y-23456972D01*
X44599231Y-23500271D01*
X44602910Y-23503619D01*
X44639833Y-23564259D01*
X44643238Y-23582003D01*
X44644627Y-23593738D01*
X44644942Y-23599083D01*
X44645072Y-23599072D01*
X44645500Y-23604252D01*
X44645500Y-23609451D01*
X44646353Y-23614575D01*
X44646354Y-23614588D01*
X44648427Y-23627041D01*
X44649264Y-23632916D01*
X44653645Y-23669929D01*
X44654869Y-23680270D01*
X44658570Y-23687978D01*
X44659975Y-23696417D01*
X44682629Y-23738401D01*
X44685310Y-23743664D01*
X44687052Y-23747291D01*
X44705955Y-23786658D01*
X44709311Y-23790650D01*
X44711258Y-23792597D01*
X44712748Y-23794222D01*
X44712981Y-23794654D01*
X44712946Y-23794687D01*
X44713083Y-23794842D01*
X44716017Y-23800280D01*
X44752882Y-23834357D01*
X44756449Y-23837787D01*
X45212419Y-24293757D01*
X45246445Y-24356069D01*
X45241380Y-24426884D01*
X45212419Y-24471947D01*
X45186055Y-24498311D01*
X45170569Y-24510818D01*
X45167345Y-24513752D01*
X45158598Y-24519400D01*
X45139471Y-24543663D01*
X45135921Y-24547658D01*
X45136020Y-24547742D01*
X45132662Y-24551705D01*
X45128986Y-24555381D01*
X45125963Y-24559610D01*
X45125963Y-24559611D01*
X45118626Y-24569877D01*
X45115065Y-24574620D01*
X45091983Y-24603900D01*
X45091981Y-24603904D01*
X45085534Y-24612082D01*
X45082701Y-24620150D01*
X45077727Y-24627110D01*
X45074743Y-24637088D01*
X45064060Y-24672811D01*
X45062224Y-24678460D01*
X45046430Y-24723433D01*
X45045980Y-24728629D01*
X45045980Y-24731334D01*
X45045883Y-24733590D01*
X45045740Y-24734066D01*
X45045694Y-24734064D01*
X45045681Y-24734263D01*
X45043912Y-24740180D01*
X45044973Y-24767185D01*
X45045883Y-24790349D01*
X45045980Y-24795295D01*
X45045980Y-25170307D01*
X45025978Y-25238428D01*
X44972322Y-25284921D01*
X44949397Y-25292825D01*
X44921693Y-25299476D01*
X44876727Y-25310271D01*
X44876724Y-25310272D01*
X44869348Y-25312043D01*
X44728578Y-25384700D01*
X44609203Y-25488838D01*
X44518114Y-25618444D01*
X44460570Y-25766037D01*
X44459578Y-25773570D01*
X44459578Y-25773571D01*
X44440928Y-25915235D01*
X44439893Y-25923096D01*
X44449643Y-26011405D01*
X44437237Y-26081309D01*
X44413501Y-26114324D01*
X43966147Y-26561679D01*
X43485580Y-27042246D01*
X43470098Y-27054751D01*
X43466871Y-27057687D01*
X43458118Y-27063339D01*
X43438991Y-27087602D01*
X43435441Y-27091597D01*
X43435540Y-27091681D01*
X43432182Y-27095644D01*
X43428506Y-27099320D01*
X43425483Y-27103549D01*
X43425483Y-27103550D01*
X43418146Y-27113816D01*
X43414585Y-27118559D01*
X43391503Y-27147839D01*
X43391501Y-27147843D01*
X43385054Y-27156021D01*
X43382221Y-27164089D01*
X43377247Y-27171049D01*
X43374263Y-27181027D01*
X43363580Y-27216750D01*
X43361744Y-27222399D01*
X43345950Y-27267372D01*
X43345500Y-27272568D01*
X43345500Y-27275273D01*
X43345403Y-27277529D01*
X43345260Y-27278005D01*
X43345214Y-27278003D01*
X43345201Y-27278202D01*
X43343432Y-27284119D01*
X43343841Y-27294523D01*
X43345403Y-27334288D01*
X43345500Y-27339234D01*
X43345500Y-27399500D01*
X43325498Y-27467621D01*
X43271842Y-27514114D01*
X43219500Y-27525500D01*
X43204762Y-27525500D01*
X43201074Y-27525939D01*
X43201070Y-27525939D01*
X43187597Y-27527542D01*
X43187595Y-27527542D01*
X43178211Y-27528659D01*
X43151091Y-27540705D01*
X43080718Y-27550079D01*
X43048997Y-27540795D01*
X43029927Y-27532364D01*
X43029925Y-27532364D01*
X43021263Y-27528534D01*
X42995238Y-27525500D01*
X42804762Y-27525500D01*
X42801074Y-27525939D01*
X42801070Y-27525939D01*
X42787597Y-27527542D01*
X42787595Y-27527542D01*
X42778211Y-27528659D01*
X42751091Y-27540705D01*
X42680718Y-27550079D01*
X42648997Y-27540795D01*
X42629927Y-27532364D01*
X42629925Y-27532364D01*
X42621263Y-27528534D01*
X42595238Y-27525500D01*
X42404762Y-27525500D01*
X42401074Y-27525939D01*
X42401070Y-27525939D01*
X42387597Y-27527542D01*
X42387595Y-27527542D01*
X42378211Y-27528659D01*
X42351091Y-27540705D01*
X42280718Y-27550079D01*
X42248997Y-27540795D01*
X42229927Y-27532364D01*
X42229925Y-27532364D01*
X42221263Y-27528534D01*
X42195238Y-27525500D01*
X42004762Y-27525500D01*
X42001074Y-27525939D01*
X42001070Y-27525939D01*
X41987597Y-27527542D01*
X41987595Y-27527542D01*
X41978211Y-27528659D01*
X41951091Y-27540705D01*
X41880718Y-27550079D01*
X41848997Y-27540795D01*
X41829927Y-27532364D01*
X41829925Y-27532364D01*
X41821263Y-27528534D01*
X41795238Y-27525500D01*
X41712801Y-27525500D01*
X41644680Y-27505498D01*
X41598187Y-27451842D01*
X41588083Y-27381568D01*
X41595894Y-27352504D01*
X41634006Y-27257698D01*
X41634008Y-27257691D01*
X41636842Y-27250641D01*
X41647861Y-27173213D01*
X41658581Y-27097891D01*
X41658581Y-27097888D01*
X41659162Y-27093807D01*
X41659307Y-27080000D01*
X41658288Y-27071575D01*
X41643072Y-26945841D01*
X41640276Y-26922733D01*
X41584280Y-26774546D01*
X41560796Y-26740377D01*
X41498855Y-26650251D01*
X41498854Y-26650249D01*
X41494553Y-26643992D01*
X41376275Y-26538611D01*
X41236274Y-26464484D01*
X41228911Y-26462635D01*
X41228907Y-26462633D01*
X41117138Y-26434559D01*
X41055942Y-26398564D01*
X41023921Y-26335199D01*
X41030925Y-26265360D01*
X41034007Y-26257694D01*
X41034008Y-26257692D01*
X41036842Y-26250641D01*
X41051721Y-26146094D01*
X41058581Y-26097891D01*
X41058581Y-26097888D01*
X41059162Y-26093807D01*
X41059307Y-26080000D01*
X41057355Y-26063865D01*
X41048763Y-25992867D01*
X41040276Y-25922733D01*
X40984280Y-25774546D01*
X40920445Y-25681665D01*
X40898855Y-25650251D01*
X40898854Y-25650249D01*
X40894553Y-25643992D01*
X40776275Y-25538611D01*
X40768889Y-25534700D01*
X40689527Y-25492680D01*
X40636274Y-25464484D01*
X40482633Y-25425892D01*
X40475034Y-25425852D01*
X40475033Y-25425852D01*
X40409181Y-25425507D01*
X40324221Y-25425062D01*
X40316841Y-25426834D01*
X40316839Y-25426834D01*
X40177563Y-25460271D01*
X40177560Y-25460272D01*
X40170184Y-25462043D01*
X40163441Y-25465523D01*
X40156314Y-25468174D01*
X40155222Y-25465238D01*
X40099542Y-25476005D01*
X40033615Y-25449658D01*
X39992398Y-25391850D01*
X39988977Y-25320936D01*
X40021280Y-25264907D01*
X40020280Y-25263983D01*
X40024354Y-25259576D01*
X40024354Y-25259575D01*
X40054357Y-25227119D01*
X40057786Y-25223553D01*
X40514423Y-24766916D01*
X40529909Y-24754408D01*
X40533134Y-24751474D01*
X40541882Y-24745825D01*
X40561003Y-24721570D01*
X40564561Y-24717567D01*
X40564461Y-24717482D01*
X40567814Y-24713525D01*
X40571495Y-24709844D01*
X40581864Y-24695335D01*
X40585426Y-24690591D01*
X40608497Y-24661325D01*
X40608499Y-24661321D01*
X40614946Y-24653143D01*
X40617779Y-24645075D01*
X40622753Y-24638115D01*
X40627301Y-24622906D01*
X40636420Y-24592414D01*
X40638256Y-24586765D01*
X40651424Y-24549269D01*
X40654050Y-24541792D01*
X40654500Y-24536596D01*
X40654500Y-24533891D01*
X40654597Y-24531635D01*
X40654740Y-24531159D01*
X40654786Y-24531161D01*
X40654799Y-24530962D01*
X40656568Y-24525045D01*
X40654597Y-24474876D01*
X40654500Y-24469930D01*
X40654500Y-23596082D01*
X40674502Y-23527961D01*
X40698669Y-23500271D01*
X40779536Y-23431204D01*
X40779536Y-23431203D01*
X40785314Y-23426269D01*
X40877755Y-23297624D01*
X40877853Y-23297694D01*
X40925599Y-23250220D01*
X40985668Y-23234980D01*
X44315621Y-23234980D01*
X44383742Y-23254982D01*
G37*
%TD.AperFunction*%
%TA.AperFunction,Conductor*%
G36*
X36301925Y-24219976D02*
G01*
X36315089Y-24225763D01*
X36343138Y-24240054D01*
X36434347Y-24254500D01*
X36599966Y-24254500D01*
X36765652Y-24254499D01*
X36787083Y-24251105D01*
X36847064Y-24241606D01*
X36847066Y-24241605D01*
X36856862Y-24240054D01*
X36876447Y-24230075D01*
X36946224Y-24216971D01*
X37012009Y-24243671D01*
X37052915Y-24301699D01*
X37055955Y-24372630D01*
X37054318Y-24378358D01*
X37050132Y-24386573D01*
X37035500Y-24478955D01*
X37035501Y-24661325D01*
X37035501Y-24795115D01*
X37015499Y-24863235D01*
X36998597Y-24884210D01*
X36448861Y-25433947D01*
X36386548Y-25467972D01*
X36359765Y-25470852D01*
X35616028Y-25470852D01*
X35547907Y-25450850D01*
X35512189Y-25416220D01*
X35498021Y-25395605D01*
X35498017Y-25395600D01*
X35493717Y-25389344D01*
X35375439Y-25283963D01*
X35368192Y-25280126D01*
X35367877Y-25279819D01*
X35362491Y-25276076D01*
X35363115Y-25275178D01*
X35317351Y-25230575D01*
X35301369Y-25161401D01*
X35325322Y-25094567D01*
X35338052Y-25079684D01*
X36168799Y-24248936D01*
X36231110Y-24214912D01*
X36301925Y-24219976D01*
G37*
%TD.AperFunction*%
%TD*%
%TA.AperFunction,NonConductor*%
G36*
X45292124Y-16588716D02*
G01*
X45338617Y-16642372D01*
X45348721Y-16712646D01*
X45319227Y-16777226D01*
X45267614Y-16812926D01*
X45251627Y-16818824D01*
X45077174Y-16922612D01*
X45072834Y-16926418D01*
X45072830Y-16926421D01*
X44981140Y-17006832D01*
X44924556Y-17056455D01*
X44798884Y-17215869D01*
X44796195Y-17220980D01*
X44796193Y-17220983D01*
X44783237Y-17245609D01*
X44704367Y-17395515D01*
X44644171Y-17589378D01*
X44620312Y-17790964D01*
X44633588Y-17993522D01*
X44635009Y-17999118D01*
X44635010Y-17999123D01*
X44654228Y-18074792D01*
X44683556Y-18190269D01*
X44701695Y-18229616D01*
X44712050Y-18299852D01*
X44682788Y-18364537D01*
X44676364Y-18371461D01*
X44439230Y-18608595D01*
X44376918Y-18642621D01*
X44350135Y-18645500D01*
X44206608Y-18645500D01*
X44138487Y-18625498D01*
X44091994Y-18571842D01*
X44081890Y-18501568D01*
X44102178Y-18449639D01*
X44103311Y-18448276D01*
X44181888Y-18307967D01*
X44199674Y-18276208D01*
X44199675Y-18276206D01*
X44202498Y-18271165D01*
X44204354Y-18265698D01*
X44204356Y-18265693D01*
X44265892Y-18084414D01*
X44265893Y-18084409D01*
X44267748Y-18078945D01*
X44268576Y-18073236D01*
X44268577Y-18073231D01*
X44296343Y-17881727D01*
X44296876Y-17878053D01*
X44298396Y-17820000D01*
X44279822Y-17617859D01*
X44274092Y-17597541D01*
X44226289Y-17428046D01*
X44226288Y-17428044D01*
X44224721Y-17422487D01*
X44214142Y-17401033D01*
X44137495Y-17245609D01*
X44134940Y-17240428D01*
X44013484Y-17077779D01*
X43864422Y-16939987D01*
X43859539Y-16936906D01*
X43859535Y-16936903D01*
X43697628Y-16834748D01*
X43692745Y-16831667D01*
X43642806Y-16811743D01*
X43586948Y-16767923D01*
X43563648Y-16700859D01*
X43580304Y-16631844D01*
X43631629Y-16582789D01*
X43689498Y-16568714D01*
X45224003Y-16568714D01*
X45292124Y-16588716D01*
G37*
%TD.AperFunction*%
%TA.AperFunction,NonConductor*%
G36*
X47832124Y-16588716D02*
G01*
X47878617Y-16642372D01*
X47888721Y-16712646D01*
X47859227Y-16777226D01*
X47807614Y-16812926D01*
X47791627Y-16818824D01*
X47617174Y-16922612D01*
X47612834Y-16926418D01*
X47612830Y-16926421D01*
X47521140Y-17006832D01*
X47464556Y-17056455D01*
X47338884Y-17215869D01*
X47336195Y-17220980D01*
X47336193Y-17220983D01*
X47323237Y-17245609D01*
X47244367Y-17395515D01*
X47184171Y-17589378D01*
X47160312Y-17790964D01*
X47173588Y-17993522D01*
X47175009Y-17999118D01*
X47175010Y-17999123D01*
X47194228Y-18074792D01*
X47223556Y-18190269D01*
X47241695Y-18229616D01*
X47252050Y-18299852D01*
X47222788Y-18364537D01*
X47216364Y-18371461D01*
X46579710Y-19008115D01*
X46517398Y-19042141D01*
X46490615Y-19045020D01*
X46285193Y-19045020D01*
X46217072Y-19025018D01*
X46170579Y-18971362D01*
X46160475Y-18901088D01*
X46189969Y-18836508D01*
X46223627Y-18809086D01*
X46285365Y-18774511D01*
X46357440Y-18734147D01*
X46375522Y-18719109D01*
X46509077Y-18608031D01*
X46513509Y-18604345D01*
X46608924Y-18489622D01*
X46639617Y-18452718D01*
X46639619Y-18452715D01*
X46643311Y-18448276D01*
X46721888Y-18307967D01*
X46739674Y-18276208D01*
X46739675Y-18276206D01*
X46742498Y-18271165D01*
X46744354Y-18265698D01*
X46744356Y-18265693D01*
X46805892Y-18084414D01*
X46805893Y-18084409D01*
X46807748Y-18078945D01*
X46808576Y-18073236D01*
X46808577Y-18073231D01*
X46836343Y-17881727D01*
X46836876Y-17878053D01*
X46838396Y-17820000D01*
X46819822Y-17617859D01*
X46814092Y-17597541D01*
X46766289Y-17428046D01*
X46766288Y-17428044D01*
X46764721Y-17422487D01*
X46754142Y-17401033D01*
X46677495Y-17245609D01*
X46674940Y-17240428D01*
X46553484Y-17077779D01*
X46404422Y-16939987D01*
X46399539Y-16936906D01*
X46399535Y-16936903D01*
X46237628Y-16834748D01*
X46232745Y-16831667D01*
X46182806Y-16811743D01*
X46126948Y-16767923D01*
X46103648Y-16700859D01*
X46120304Y-16631844D01*
X46171629Y-16582789D01*
X46229498Y-16568714D01*
X47764003Y-16568714D01*
X47832124Y-16588716D01*
G37*
%TD.AperFunction*%
%TA.AperFunction,NonConductor*%
G36*
X50372124Y-16588716D02*
G01*
X50418617Y-16642372D01*
X50428721Y-16712646D01*
X50399227Y-16777226D01*
X50347614Y-16812926D01*
X50331627Y-16818824D01*
X50157174Y-16922612D01*
X50152834Y-16926418D01*
X50152830Y-16926421D01*
X50061140Y-17006832D01*
X50004556Y-17056455D01*
X49878884Y-17215869D01*
X49876195Y-17220980D01*
X49876193Y-17220983D01*
X49863237Y-17245609D01*
X49784367Y-17395515D01*
X49724171Y-17589378D01*
X49700312Y-17790964D01*
X49713588Y-17993522D01*
X49715009Y-17999118D01*
X49715010Y-17999123D01*
X49734228Y-18074792D01*
X49763556Y-18190269D01*
X49781695Y-18229616D01*
X49792050Y-18299852D01*
X49762788Y-18364537D01*
X49756364Y-18371461D01*
X48720191Y-19407635D01*
X48657879Y-19441660D01*
X48631096Y-19444540D01*
X47450153Y-19444540D01*
X47382032Y-19424538D01*
X47335539Y-19370882D01*
X47325435Y-19300608D01*
X47354929Y-19236028D01*
X47361058Y-19229445D01*
X47718541Y-18871962D01*
X47780853Y-18837936D01*
X47857374Y-18845290D01*
X47921076Y-18872659D01*
X47921085Y-18872662D01*
X47926392Y-18874942D01*
X47983035Y-18887759D01*
X48118743Y-18918467D01*
X48118748Y-18918468D01*
X48124380Y-18919742D01*
X48130151Y-18919969D01*
X48130153Y-18919969D01*
X48189920Y-18922317D01*
X48327217Y-18927712D01*
X48427663Y-18913148D01*
X48522395Y-18899413D01*
X48522400Y-18899412D01*
X48528109Y-18898584D01*
X48533573Y-18896729D01*
X48533578Y-18896728D01*
X48714857Y-18835192D01*
X48714862Y-18835190D01*
X48720329Y-18833334D01*
X48728090Y-18828988D01*
X48825365Y-18774511D01*
X48897440Y-18734147D01*
X48915522Y-18719109D01*
X49049077Y-18608031D01*
X49053509Y-18604345D01*
X49148924Y-18489622D01*
X49179617Y-18452718D01*
X49179619Y-18452715D01*
X49183311Y-18448276D01*
X49261888Y-18307967D01*
X49279674Y-18276208D01*
X49279675Y-18276206D01*
X49282498Y-18271165D01*
X49284354Y-18265698D01*
X49284356Y-18265693D01*
X49345892Y-18084414D01*
X49345893Y-18084409D01*
X49347748Y-18078945D01*
X49348576Y-18073236D01*
X49348577Y-18073231D01*
X49376343Y-17881727D01*
X49376876Y-17878053D01*
X49378396Y-17820000D01*
X49359822Y-17617859D01*
X49354092Y-17597541D01*
X49306289Y-17428046D01*
X49306288Y-17428044D01*
X49304721Y-17422487D01*
X49294142Y-17401033D01*
X49217495Y-17245609D01*
X49214940Y-17240428D01*
X49093484Y-17077779D01*
X48944422Y-16939987D01*
X48939539Y-16936906D01*
X48939535Y-16936903D01*
X48777628Y-16834748D01*
X48772745Y-16831667D01*
X48722806Y-16811743D01*
X48666948Y-16767923D01*
X48643648Y-16700859D01*
X48660304Y-16631844D01*
X48711629Y-16582789D01*
X48769498Y-16568714D01*
X50304003Y-16568714D01*
X50372124Y-16588716D01*
G37*
%TD.AperFunction*%
%TA.AperFunction,NonConductor*%
G36*
X42752124Y-16588716D02*
G01*
X42798617Y-16642372D01*
X42808721Y-16712646D01*
X42779227Y-16777226D01*
X42727614Y-16812926D01*
X42711627Y-16818824D01*
X42537174Y-16922612D01*
X42532834Y-16926418D01*
X42532830Y-16926421D01*
X42441140Y-17006832D01*
X42384556Y-17056455D01*
X42258884Y-17215869D01*
X42256195Y-17220980D01*
X42256193Y-17220983D01*
X42243237Y-17245609D01*
X42164367Y-17395515D01*
X42104171Y-17589378D01*
X42080312Y-17790964D01*
X42093588Y-17993522D01*
X42095009Y-17999118D01*
X42095010Y-17999123D01*
X42114228Y-18074792D01*
X42143556Y-18190269D01*
X42161695Y-18229616D01*
X42172050Y-18299852D01*
X42142788Y-18364537D01*
X42136364Y-18371461D01*
X41536464Y-18971362D01*
X41069595Y-19438231D01*
X41007283Y-19472256D01*
X40936468Y-19467192D01*
X40879632Y-19424645D01*
X40854821Y-19358125D01*
X40854500Y-19349136D01*
X40854500Y-19007072D01*
X40874502Y-18938951D01*
X40928158Y-18892458D01*
X40939998Y-18887759D01*
X40964988Y-18879276D01*
X41100329Y-18833334D01*
X41108090Y-18828988D01*
X41205365Y-18774511D01*
X41277440Y-18734147D01*
X41295522Y-18719109D01*
X41429077Y-18608031D01*
X41433509Y-18604345D01*
X41528924Y-18489622D01*
X41559617Y-18452718D01*
X41559619Y-18452715D01*
X41563311Y-18448276D01*
X41641888Y-18307967D01*
X41659674Y-18276208D01*
X41659675Y-18276206D01*
X41662498Y-18271165D01*
X41664354Y-18265698D01*
X41664356Y-18265693D01*
X41725892Y-18084414D01*
X41725893Y-18084409D01*
X41727748Y-18078945D01*
X41728576Y-18073236D01*
X41728577Y-18073231D01*
X41756343Y-17881727D01*
X41756876Y-17878053D01*
X41758396Y-17820000D01*
X41739822Y-17617859D01*
X41734092Y-17597541D01*
X41686289Y-17428046D01*
X41686288Y-17428044D01*
X41684721Y-17422487D01*
X41674142Y-17401033D01*
X41597495Y-17245609D01*
X41594940Y-17240428D01*
X41473484Y-17077779D01*
X41324422Y-16939987D01*
X41319539Y-16936906D01*
X41319535Y-16936903D01*
X41157628Y-16834748D01*
X41152745Y-16831667D01*
X41102806Y-16811743D01*
X41046948Y-16767923D01*
X41023648Y-16700859D01*
X41040304Y-16631844D01*
X41091629Y-16582789D01*
X41149498Y-16568714D01*
X42684003Y-16568714D01*
X42752124Y-16588716D01*
G37*
%TD.AperFunction*%
%TA.AperFunction,NonConductor*%
G36*
X43618798Y-20173542D02*
G01*
X43665291Y-20227198D01*
X43675395Y-20297472D01*
X43645901Y-20362052D01*
X43639772Y-20368635D01*
X43571892Y-20436515D01*
X43551145Y-20453272D01*
X43458118Y-20513339D01*
X43449320Y-20524500D01*
X43387826Y-20602505D01*
X43329946Y-20643619D01*
X43288876Y-20650500D01*
X43204762Y-20650500D01*
X43201074Y-20650939D01*
X43201070Y-20650939D01*
X43187597Y-20652542D01*
X43187595Y-20652542D01*
X43178211Y-20653659D01*
X43151091Y-20665705D01*
X43080718Y-20675079D01*
X43048997Y-20665795D01*
X43029927Y-20657364D01*
X43029925Y-20657364D01*
X43021263Y-20653534D01*
X42995238Y-20650500D01*
X42859211Y-20650500D01*
X42791090Y-20630498D01*
X42744597Y-20576842D01*
X42734493Y-20506568D01*
X42763987Y-20441988D01*
X42770116Y-20435405D01*
X43015076Y-20190445D01*
X43077388Y-20156419D01*
X43104171Y-20153540D01*
X43550677Y-20153540D01*
X43618798Y-20173542D01*
G37*
%TD.AperFunction*%
%TA.AperFunction,NonConductor*%
G36*
X45151003Y-22019205D02*
G01*
X45170073Y-22027636D01*
X45170075Y-22027636D01*
X45178737Y-22031466D01*
X45204762Y-22034500D01*
X45319500Y-22034500D01*
X45387621Y-22054502D01*
X45434114Y-22108158D01*
X45445500Y-22160500D01*
X45445500Y-22265979D01*
X45425498Y-22334100D01*
X45371842Y-22380593D01*
X45301568Y-22390697D01*
X45260544Y-22377334D01*
X45236274Y-22364484D01*
X45082633Y-22325892D01*
X45075034Y-22325852D01*
X45075033Y-22325852D01*
X45009181Y-22325507D01*
X44924221Y-22325062D01*
X44916841Y-22326834D01*
X44916839Y-22326834D01*
X44777563Y-22360271D01*
X44777560Y-22360272D01*
X44770184Y-22362043D01*
X44748688Y-22373138D01*
X44649719Y-22424220D01*
X44629414Y-22434700D01*
X44623692Y-22439692D01*
X44623690Y-22439693D01*
X44560372Y-22494929D01*
X44495890Y-22524637D01*
X44477543Y-22525980D01*
X43853845Y-22525980D01*
X43785724Y-22505978D01*
X43739231Y-22452322D01*
X43729127Y-22382048D01*
X43758621Y-22317468D01*
X43764749Y-22310885D01*
X43914902Y-22160731D01*
X43930382Y-22148229D01*
X43933612Y-22145290D01*
X43942362Y-22139640D01*
X43961489Y-22115377D01*
X43965039Y-22111382D01*
X43964940Y-22111298D01*
X43968298Y-22107335D01*
X43971974Y-22103659D01*
X43975101Y-22099284D01*
X43982334Y-22089163D01*
X43985877Y-22084442D01*
X43987393Y-22082518D01*
X44045264Y-22041391D01*
X44086362Y-22034500D01*
X44195238Y-22034500D01*
X44198926Y-22034061D01*
X44198930Y-22034061D01*
X44212403Y-22032458D01*
X44212405Y-22032458D01*
X44221789Y-22031341D01*
X44248909Y-22019295D01*
X44319282Y-22009921D01*
X44351003Y-22019205D01*
X44370073Y-22027636D01*
X44370075Y-22027636D01*
X44378737Y-22031466D01*
X44404762Y-22034500D01*
X44595238Y-22034500D01*
X44598926Y-22034061D01*
X44598930Y-22034061D01*
X44612403Y-22032458D01*
X44612405Y-22032458D01*
X44621789Y-22031341D01*
X44648909Y-22019295D01*
X44719282Y-22009921D01*
X44751003Y-22019205D01*
X44770073Y-22027636D01*
X44770075Y-22027636D01*
X44778737Y-22031466D01*
X44804762Y-22034500D01*
X44995238Y-22034500D01*
X44998926Y-22034061D01*
X44998930Y-22034061D01*
X45012403Y-22032458D01*
X45012405Y-22032458D01*
X45021789Y-22031341D01*
X45048909Y-22019295D01*
X45119282Y-22009921D01*
X45151003Y-22019205D01*
G37*
%TD.AperFunction*%
%TA.AperFunction,NonConductor*%
G36*
X38512621Y-22554502D02*
G01*
X38559114Y-22608158D01*
X38570500Y-22660500D01*
X38570500Y-22675238D01*
X38570939Y-22678926D01*
X38570939Y-22678930D01*
X38572542Y-22692403D01*
X38573659Y-22701789D01*
X38585705Y-22728909D01*
X38595079Y-22799282D01*
X38585795Y-22831003D01*
X38573534Y-22858737D01*
X38572668Y-22866169D01*
X38536009Y-22925730D01*
X38472014Y-22956475D01*
X38401557Y-22947741D01*
X38362563Y-22921225D01*
X38190933Y-22749595D01*
X38156907Y-22687283D01*
X38161972Y-22616468D01*
X38204519Y-22559632D01*
X38271039Y-22534821D01*
X38280028Y-22534500D01*
X38444500Y-22534500D01*
X38512621Y-22554502D01*
G37*
%TD.AperFunction*%
%TA.AperFunction,NonConductor*%
G36*
X48256713Y-22254502D02*
G01*
X48305001Y-22312281D01*
X48307009Y-22317127D01*
X48309430Y-22329301D01*
X48365680Y-22413484D01*
X48449863Y-22469734D01*
X48534039Y-22486477D01*
X48596948Y-22519384D01*
X48632080Y-22581079D01*
X48628280Y-22651974D01*
X48586755Y-22709560D01*
X48534038Y-22733635D01*
X48500699Y-22740266D01*
X48490379Y-22747161D01*
X48490378Y-22747162D01*
X48441328Y-22779937D01*
X48416516Y-22796516D01*
X48360266Y-22880699D01*
X48345500Y-22954933D01*
X48345500Y-23499500D01*
X48325498Y-23567621D01*
X48271842Y-23614114D01*
X48219500Y-23625500D01*
X47961583Y-23625500D01*
X47893462Y-23605498D01*
X47859648Y-23573562D01*
X47858542Y-23572040D01*
X47854040Y-23563204D01*
X47766796Y-23475960D01*
X47656862Y-23419946D01*
X47647073Y-23418396D01*
X47647071Y-23418395D01*
X47620579Y-23414199D01*
X47565653Y-23405500D01*
X47350044Y-23405500D01*
X47134348Y-23405501D01*
X47129455Y-23406276D01*
X47129454Y-23406276D01*
X47054900Y-23418083D01*
X46984489Y-23408983D01*
X46930175Y-23363260D01*
X46909204Y-23295431D01*
X46928232Y-23227032D01*
X46946095Y-23204539D01*
X47633735Y-22516898D01*
X47666217Y-22493428D01*
X47787236Y-22432563D01*
X47787239Y-22432561D01*
X47794019Y-22429151D01*
X47799790Y-22424222D01*
X47799793Y-22424220D01*
X47908700Y-22331204D01*
X47908700Y-22331203D01*
X47914478Y-22326269D01*
X47942716Y-22286971D01*
X47998707Y-22243326D01*
X48045036Y-22234500D01*
X48188592Y-22234500D01*
X48256713Y-22254502D01*
G37*
%TD.AperFunction*%
%TA.AperFunction,NonConductor*%
G36*
X45362532Y-26561679D02*
G01*
X45419830Y-26603601D01*
X45445500Y-26672562D01*
X45445500Y-26675238D01*
X45445941Y-26678944D01*
X45445941Y-26678945D01*
X45447477Y-26691851D01*
X45448659Y-26701789D01*
X45460705Y-26728909D01*
X45470079Y-26799282D01*
X45460795Y-26831003D01*
X45448534Y-26858737D01*
X45445500Y-26884762D01*
X45445500Y-27075238D01*
X45445939Y-27078926D01*
X45445939Y-27078930D01*
X45447542Y-27092403D01*
X45448659Y-27101789D01*
X45460705Y-27128909D01*
X45470079Y-27199282D01*
X45460795Y-27231003D01*
X45454625Y-27244960D01*
X45448534Y-27258737D01*
X45445500Y-27284762D01*
X45445500Y-27399500D01*
X45425498Y-27467621D01*
X45371842Y-27514114D01*
X45319500Y-27525500D01*
X45204762Y-27525500D01*
X45201074Y-27525939D01*
X45201070Y-27525939D01*
X45187597Y-27527542D01*
X45187595Y-27527542D01*
X45178211Y-27528659D01*
X45151091Y-27540705D01*
X45080718Y-27550079D01*
X45048997Y-27540795D01*
X45029927Y-27532364D01*
X45029925Y-27532364D01*
X45021263Y-27528534D01*
X44995238Y-27525500D01*
X44804762Y-27525500D01*
X44801074Y-27525939D01*
X44801070Y-27525939D01*
X44787597Y-27527542D01*
X44787595Y-27527542D01*
X44778211Y-27528659D01*
X44751091Y-27540705D01*
X44680718Y-27550079D01*
X44648997Y-27540795D01*
X44629927Y-27532364D01*
X44629925Y-27532364D01*
X44621263Y-27528534D01*
X44595238Y-27525500D01*
X44404762Y-27525500D01*
X44401074Y-27525939D01*
X44401070Y-27525939D01*
X44387597Y-27527542D01*
X44387595Y-27527542D01*
X44378211Y-27528659D01*
X44351091Y-27540705D01*
X44280718Y-27550079D01*
X44248995Y-27540794D01*
X44237342Y-27535642D01*
X44183126Y-27489802D01*
X44162300Y-27421929D01*
X44181475Y-27353571D01*
X44199196Y-27331307D01*
X44911395Y-26619108D01*
X44973707Y-26585082D01*
X45009679Y-26583676D01*
X45009686Y-26583207D01*
X45160483Y-26585576D01*
X45160486Y-26585576D01*
X45168080Y-26585695D01*
X45291666Y-26557390D01*
X45362532Y-26561679D01*
G37*
%TD.AperFunction*%
%TA.AperFunction,NonConductor*%
G36*
X36031893Y-26199854D02*
G01*
X36078386Y-26253510D01*
X36088490Y-26323784D01*
X36058996Y-26388364D01*
X36052867Y-26394947D01*
X35885580Y-26562234D01*
X35870098Y-26574739D01*
X35866871Y-26577675D01*
X35858118Y-26583327D01*
X35838991Y-26607590D01*
X35835441Y-26611585D01*
X35835540Y-26611669D01*
X35832182Y-26615632D01*
X35828506Y-26619308D01*
X35825483Y-26623537D01*
X35825483Y-26623538D01*
X35818146Y-26633804D01*
X35814585Y-26638547D01*
X35791503Y-26667827D01*
X35791501Y-26667831D01*
X35785054Y-26676009D01*
X35782221Y-26684077D01*
X35777247Y-26691037D01*
X35774263Y-26701015D01*
X35763580Y-26736738D01*
X35761744Y-26742387D01*
X35745950Y-26787360D01*
X35745500Y-26792556D01*
X35745500Y-26795261D01*
X35745403Y-26797517D01*
X35745260Y-26797993D01*
X35745214Y-26797991D01*
X35745201Y-26798190D01*
X35743432Y-26804107D01*
X35743841Y-26814511D01*
X35745403Y-26854276D01*
X35745500Y-26859222D01*
X35745500Y-28089500D01*
X35725498Y-28157621D01*
X35671842Y-28204114D01*
X35619500Y-28215500D01*
X35480500Y-28215500D01*
X35412379Y-28195498D01*
X35365886Y-28141842D01*
X35354500Y-28089500D01*
X35354500Y-26440720D01*
X35374502Y-26372599D01*
X35398669Y-26344909D01*
X35478700Y-26276556D01*
X35478700Y-26276555D01*
X35484478Y-26271621D01*
X35512716Y-26232323D01*
X35568707Y-26188678D01*
X35615036Y-26179852D01*
X35963772Y-26179852D01*
X36031893Y-26199854D01*
G37*
%TD.AperFunction*%
%TA.AperFunction,NonConductor*%
G36*
X48287622Y-24354502D02*
G01*
X48334115Y-24408158D01*
X48345501Y-24460500D01*
X48345501Y-25005066D01*
X48360266Y-25079301D01*
X48367161Y-25089621D01*
X48367162Y-25089622D01*
X48384556Y-25115653D01*
X48416516Y-25163484D01*
X48500699Y-25219734D01*
X48574933Y-25234500D01*
X48784593Y-25234500D01*
X50500971Y-25234499D01*
X50569092Y-25254501D01*
X50590066Y-25271404D01*
X51557759Y-26239097D01*
X51591785Y-26301409D01*
X51594664Y-26328192D01*
X51594664Y-28854404D01*
X51574662Y-28922525D01*
X51557759Y-28943499D01*
X51476029Y-29025229D01*
X51434436Y-29106859D01*
X51423020Y-29129264D01*
X51374271Y-29180879D01*
X51305356Y-29197945D01*
X51238155Y-29175044D01*
X51221658Y-29161156D01*
X51136489Y-29075987D01*
X51102463Y-29013675D01*
X51107528Y-28942860D01*
X51155583Y-28882127D01*
X51183484Y-28863484D01*
X51239734Y-28779301D01*
X51254500Y-28705067D01*
X51254499Y-26654934D01*
X51239734Y-26580699D01*
X51224160Y-26557390D01*
X51190377Y-26506832D01*
X51183484Y-26496516D01*
X51099301Y-26440266D01*
X51025067Y-26425500D01*
X50767631Y-26425500D01*
X48648195Y-26425501D01*
X48580074Y-26405499D01*
X48559100Y-26388597D01*
X48163370Y-25992867D01*
X47758651Y-25588149D01*
X47724626Y-25525836D01*
X47729690Y-25455021D01*
X47767721Y-25404965D01*
X47766796Y-25404040D01*
X47854040Y-25316796D01*
X47910054Y-25206862D01*
X47924500Y-25115653D01*
X47924499Y-24784348D01*
X47920236Y-24757430D01*
X47911606Y-24702936D01*
X47911605Y-24702934D01*
X47910054Y-24693138D01*
X47889964Y-24653708D01*
X47858540Y-24592036D01*
X47854040Y-24583204D01*
X47820431Y-24549595D01*
X47786405Y-24487283D01*
X47791470Y-24416468D01*
X47834017Y-24359632D01*
X47900537Y-24334821D01*
X47909526Y-24334500D01*
X48219501Y-24334500D01*
X48287622Y-24354502D01*
G37*
%TD.AperFunction*%
%TA.AperFunction,NonConductor*%
G36*
X45627853Y-31854502D02*
G01*
X45674346Y-31908158D01*
X45684450Y-31978432D01*
X45654956Y-32043012D01*
X45595230Y-32081396D01*
X45581071Y-32084680D01*
X45562651Y-32087845D01*
X45458829Y-32105685D01*
X45442074Y-32108564D01*
X45339897Y-32146259D01*
X45257042Y-32176826D01*
X45257039Y-32176827D01*
X45251627Y-32178824D01*
X45246670Y-32181773D01*
X45246668Y-32181774D01*
X45212664Y-32202004D01*
X45143893Y-32219643D01*
X45076503Y-32197302D01*
X45059147Y-32182813D01*
X44925929Y-32049595D01*
X44891903Y-31987283D01*
X44896968Y-31916468D01*
X44939515Y-31859632D01*
X45006035Y-31834821D01*
X45015024Y-31834500D01*
X45559732Y-31834500D01*
X45627853Y-31854502D01*
G37*
%TD.AperFunction*%
%TA.AperFunction,NonConductor*%
G36*
X48684566Y-31454982D02*
G01*
X48705540Y-31471885D01*
X49789345Y-32555690D01*
X49823371Y-32618002D01*
X49818306Y-32688817D01*
X49811759Y-32703451D01*
X49811166Y-32704579D01*
X49784367Y-32755515D01*
X49724171Y-32949378D01*
X49700312Y-33150964D01*
X49713588Y-33353522D01*
X49715009Y-33359118D01*
X49715010Y-33359123D01*
X49735283Y-33438945D01*
X49763556Y-33550269D01*
X49765973Y-33555512D01*
X49803174Y-33636208D01*
X49848541Y-33734616D01*
X49965697Y-33900389D01*
X50111102Y-34042035D01*
X50279884Y-34154812D01*
X50285187Y-34157090D01*
X50285190Y-34157092D01*
X50347197Y-34183732D01*
X50401890Y-34229000D01*
X50423427Y-34296651D01*
X50404970Y-34365207D01*
X50352379Y-34412901D01*
X50297459Y-34425500D01*
X48788623Y-34425500D01*
X48720502Y-34405498D01*
X48674009Y-34351842D01*
X48663905Y-34281568D01*
X48693399Y-34216988D01*
X48727053Y-34189569D01*
X48897440Y-34094147D01*
X48937133Y-34061135D01*
X49049077Y-33968031D01*
X49053509Y-33964345D01*
X49171026Y-33823047D01*
X49179617Y-33812718D01*
X49179619Y-33812715D01*
X49183311Y-33808276D01*
X49282498Y-33631165D01*
X49284354Y-33625698D01*
X49284356Y-33625693D01*
X49345892Y-33444414D01*
X49345893Y-33444409D01*
X49347748Y-33438945D01*
X49348576Y-33433236D01*
X49348577Y-33433231D01*
X49376343Y-33241727D01*
X49376876Y-33238053D01*
X49378396Y-33180000D01*
X49359822Y-32977859D01*
X49358254Y-32972299D01*
X49306289Y-32788046D01*
X49306288Y-32788044D01*
X49304721Y-32782487D01*
X49294537Y-32761834D01*
X49217495Y-32605609D01*
X49214940Y-32600428D01*
X49093484Y-32437779D01*
X48944422Y-32299987D01*
X48939539Y-32296906D01*
X48939535Y-32296903D01*
X48789128Y-32202004D01*
X48772745Y-32191667D01*
X48584203Y-32116446D01*
X48578543Y-32115320D01*
X48578539Y-32115319D01*
X48390777Y-32077971D01*
X48390774Y-32077971D01*
X48385110Y-32076844D01*
X48379335Y-32076768D01*
X48379331Y-32076768D01*
X48277957Y-32075441D01*
X48182135Y-32074187D01*
X48176438Y-32075166D01*
X48176437Y-32075166D01*
X47987771Y-32107585D01*
X47982074Y-32108564D01*
X47976657Y-32110562D01*
X47976655Y-32110563D01*
X47976650Y-32110565D01*
X47928317Y-32128396D01*
X47857487Y-32133208D01*
X47795613Y-32099280D01*
X47346408Y-31650075D01*
X47312383Y-31587763D01*
X47317447Y-31516948D01*
X47359994Y-31460112D01*
X47426514Y-31435301D01*
X47435503Y-31434980D01*
X48616445Y-31434980D01*
X48684566Y-31454982D01*
G37*
%TD.AperFunction*%
%TA.AperFunction,NonConductor*%
G36*
X46544085Y-31854502D02*
G01*
X46565059Y-31871404D01*
X46914036Y-32220380D01*
X47249345Y-32555689D01*
X47283370Y-32618002D01*
X47278306Y-32688817D01*
X47271759Y-32703452D01*
X47244367Y-32755515D01*
X47184171Y-32949378D01*
X47160312Y-33150964D01*
X47173588Y-33353522D01*
X47175009Y-33359118D01*
X47175010Y-33359123D01*
X47195283Y-33438945D01*
X47223556Y-33550269D01*
X47225973Y-33555512D01*
X47263174Y-33636208D01*
X47308541Y-33734616D01*
X47425697Y-33900389D01*
X47571102Y-34042035D01*
X47739884Y-34154812D01*
X47745187Y-34157090D01*
X47745190Y-34157092D01*
X47807197Y-34183732D01*
X47861890Y-34229000D01*
X47883427Y-34296651D01*
X47864970Y-34365207D01*
X47812379Y-34412901D01*
X47757459Y-34425500D01*
X46248623Y-34425500D01*
X46180502Y-34405498D01*
X46134009Y-34351842D01*
X46123905Y-34281568D01*
X46153399Y-34216988D01*
X46187053Y-34189569D01*
X46357440Y-34094147D01*
X46397133Y-34061135D01*
X46509077Y-33968031D01*
X46513509Y-33964345D01*
X46631026Y-33823047D01*
X46639617Y-33812718D01*
X46639619Y-33812715D01*
X46643311Y-33808276D01*
X46742498Y-33631165D01*
X46744354Y-33625698D01*
X46744356Y-33625693D01*
X46805892Y-33444414D01*
X46805893Y-33444409D01*
X46807748Y-33438945D01*
X46808576Y-33433236D01*
X46808577Y-33433231D01*
X46836343Y-33241727D01*
X46836876Y-33238053D01*
X46838396Y-33180000D01*
X46819822Y-32977859D01*
X46818254Y-32972299D01*
X46766289Y-32788046D01*
X46766288Y-32788044D01*
X46764721Y-32782487D01*
X46754537Y-32761834D01*
X46677495Y-32605609D01*
X46674940Y-32600428D01*
X46553484Y-32437779D01*
X46404422Y-32299987D01*
X46399539Y-32296906D01*
X46399535Y-32296903D01*
X46249128Y-32202004D01*
X46232745Y-32191667D01*
X46044203Y-32116446D01*
X46038543Y-32115320D01*
X46038539Y-32115319D01*
X45881483Y-32084079D01*
X45818573Y-32051172D01*
X45783441Y-31989477D01*
X45787241Y-31918582D01*
X45828767Y-31860996D01*
X45894833Y-31835001D01*
X45906064Y-31834500D01*
X46475964Y-31834500D01*
X46544085Y-31854502D01*
G37*
%TD.AperFunction*%
%TA.AperFunction,NonConductor*%
G36*
X44344611Y-32470956D02*
G01*
X44632751Y-32759096D01*
X44666777Y-32821408D01*
X44663988Y-32885556D01*
X44645885Y-32943855D01*
X44645884Y-32943861D01*
X44644171Y-32949378D01*
X44620312Y-33150964D01*
X44633588Y-33353522D01*
X44635009Y-33359118D01*
X44635010Y-33359123D01*
X44655283Y-33438945D01*
X44683556Y-33550269D01*
X44685973Y-33555512D01*
X44723174Y-33636208D01*
X44768541Y-33734616D01*
X44885697Y-33900389D01*
X45031102Y-34042035D01*
X45199884Y-34154812D01*
X45205187Y-34157090D01*
X45205190Y-34157092D01*
X45267197Y-34183732D01*
X45321890Y-34229000D01*
X45343427Y-34296651D01*
X45324970Y-34365207D01*
X45272379Y-34412901D01*
X45217459Y-34425500D01*
X43708623Y-34425500D01*
X43640502Y-34405498D01*
X43594009Y-34351842D01*
X43583905Y-34281568D01*
X43613399Y-34216988D01*
X43647053Y-34189569D01*
X43817440Y-34094147D01*
X43857133Y-34061135D01*
X43969077Y-33968031D01*
X43973509Y-33964345D01*
X44091026Y-33823047D01*
X44099617Y-33812718D01*
X44099619Y-33812715D01*
X44103311Y-33808276D01*
X44202498Y-33631165D01*
X44204354Y-33625698D01*
X44204356Y-33625693D01*
X44265892Y-33444414D01*
X44265893Y-33444409D01*
X44267748Y-33438945D01*
X44268576Y-33433236D01*
X44268577Y-33433231D01*
X44296343Y-33241727D01*
X44296876Y-33238053D01*
X44298396Y-33180000D01*
X44279822Y-32977859D01*
X44278254Y-32972299D01*
X44226289Y-32788046D01*
X44226288Y-32788044D01*
X44224721Y-32782487D01*
X44214537Y-32761834D01*
X44142510Y-32615779D01*
X44130320Y-32545837D01*
X44157879Y-32480407D01*
X44216437Y-32440264D01*
X44287403Y-32438153D01*
X44344611Y-32470956D01*
G37*
%TD.AperFunction*%
%TA.AperFunction,NonConductor*%
G36*
X41072518Y-31458863D02*
G01*
X42169345Y-32555690D01*
X42203371Y-32618002D01*
X42198306Y-32688817D01*
X42191759Y-32703451D01*
X42191166Y-32704579D01*
X42164367Y-32755515D01*
X42104171Y-32949378D01*
X42080312Y-33150964D01*
X42093588Y-33353522D01*
X42095009Y-33359118D01*
X42095010Y-33359123D01*
X42115283Y-33438945D01*
X42143556Y-33550269D01*
X42145973Y-33555512D01*
X42183174Y-33636208D01*
X42228541Y-33734616D01*
X42345697Y-33900389D01*
X42491102Y-34042035D01*
X42659884Y-34154812D01*
X42665187Y-34157090D01*
X42665190Y-34157092D01*
X42727197Y-34183732D01*
X42781890Y-34229000D01*
X42803427Y-34296651D01*
X42784970Y-34365207D01*
X42732379Y-34412901D01*
X42677459Y-34425500D01*
X41168623Y-34425500D01*
X41100502Y-34405498D01*
X41054009Y-34351842D01*
X41043905Y-34281568D01*
X41073399Y-34216988D01*
X41107053Y-34189569D01*
X41277440Y-34094147D01*
X41317133Y-34061135D01*
X41429077Y-33968031D01*
X41433509Y-33964345D01*
X41551026Y-33823047D01*
X41559617Y-33812718D01*
X41559619Y-33812715D01*
X41563311Y-33808276D01*
X41662498Y-33631165D01*
X41664354Y-33625698D01*
X41664356Y-33625693D01*
X41725892Y-33444414D01*
X41725893Y-33444409D01*
X41727748Y-33438945D01*
X41728576Y-33433236D01*
X41728577Y-33433231D01*
X41756343Y-33241727D01*
X41756876Y-33238053D01*
X41758396Y-33180000D01*
X41739822Y-32977859D01*
X41738254Y-32972299D01*
X41686289Y-32788046D01*
X41686288Y-32788044D01*
X41684721Y-32782487D01*
X41674537Y-32761834D01*
X41597495Y-32605609D01*
X41594940Y-32600428D01*
X41473484Y-32437779D01*
X41324422Y-32299987D01*
X41319539Y-32296906D01*
X41319535Y-32296903D01*
X41169128Y-32202004D01*
X41152745Y-32191667D01*
X40964203Y-32116446D01*
X40958538Y-32115319D01*
X40958534Y-32115318D01*
X40955916Y-32114797D01*
X40954794Y-32114210D01*
X40952998Y-32113678D01*
X40953103Y-32113325D01*
X40893007Y-32081888D01*
X40857876Y-32020193D01*
X40854500Y-31991219D01*
X40854500Y-31582094D01*
X40856606Y-31562300D01*
X40856811Y-31557947D01*
X40859003Y-31547767D01*
X40858129Y-31540383D01*
X40880753Y-31474918D01*
X40936540Y-31431005D01*
X41007212Y-31424224D01*
X41072518Y-31458863D01*
G37*
%TD.AperFunction*%
%TA.AperFunction,NonConductor*%
G36*
X39353196Y-31250970D02*
G01*
X39398259Y-31279931D01*
X39452368Y-31334040D01*
X39562302Y-31390054D01*
X39572091Y-31391604D01*
X39572093Y-31391605D01*
X39605423Y-31396884D01*
X39653511Y-31404500D01*
X39672477Y-31404500D01*
X39820134Y-31404499D01*
X39888254Y-31424501D01*
X39909229Y-31441404D01*
X40108595Y-31640770D01*
X40142621Y-31703082D01*
X40145500Y-31729865D01*
X40145500Y-32122717D01*
X40125498Y-32190838D01*
X40083923Y-32231002D01*
X40002142Y-32279656D01*
X40002139Y-32279658D01*
X39997174Y-32282612D01*
X39992834Y-32286418D01*
X39992830Y-32286421D01*
X39859762Y-32403120D01*
X39844556Y-32416455D01*
X39718884Y-32575869D01*
X39716195Y-32580980D01*
X39716193Y-32580983D01*
X39694972Y-32621317D01*
X39624367Y-32755515D01*
X39564171Y-32949378D01*
X39540312Y-33150964D01*
X39553588Y-33353522D01*
X39555009Y-33359118D01*
X39555010Y-33359123D01*
X39575283Y-33438945D01*
X39603556Y-33550269D01*
X39605973Y-33555512D01*
X39643174Y-33636208D01*
X39688541Y-33734616D01*
X39805697Y-33900389D01*
X39951102Y-34042035D01*
X40119884Y-34154812D01*
X40125187Y-34157090D01*
X40125190Y-34157092D01*
X40187197Y-34183732D01*
X40241890Y-34229000D01*
X40263427Y-34296651D01*
X40244970Y-34365207D01*
X40192379Y-34412901D01*
X40137459Y-34425500D01*
X39231399Y-34425500D01*
X39163278Y-34405498D01*
X39116785Y-34351842D01*
X39106681Y-34281568D01*
X39135635Y-34218170D01*
X39142648Y-34213484D01*
X39186144Y-34148389D01*
X39192003Y-34139620D01*
X39198898Y-34129301D01*
X39213664Y-34055067D01*
X39213663Y-32304934D01*
X39198898Y-32230699D01*
X39179725Y-32202004D01*
X39149541Y-32156832D01*
X39142648Y-32146516D01*
X39058465Y-32090266D01*
X38984231Y-32075500D01*
X38440500Y-32075500D01*
X38372379Y-32055498D01*
X38325886Y-32001842D01*
X38314500Y-31949500D01*
X38314500Y-31879029D01*
X38334502Y-31810908D01*
X38351405Y-31789934D01*
X38699934Y-31441405D01*
X38762246Y-31407379D01*
X38789028Y-31404500D01*
X38945048Y-31404499D01*
X38964816Y-31404499D01*
X38977009Y-31402568D01*
X39046228Y-31391606D01*
X39046230Y-31391605D01*
X39056026Y-31390054D01*
X39165960Y-31334040D01*
X39220069Y-31279931D01*
X39282381Y-31245905D01*
X39353196Y-31250970D01*
G37*
%TD.AperFunction*%
M02*
